<mxfile host="Electron" agent="Mozilla/5.0 (Windows NT 10.0; Win64; x64) AppleWebKit/537.36 (KHTML, like Gecko) draw.io/25.0.2 Chrome/128.0.6613.186 Electron/32.2.5 Safari/537.36" version="25.0.2">
  <diagram name="Страница — 1" id="WgB-dWR_ppGz-95qczfS">
    <mxGraphModel dx="2048" dy="1992" grid="0" gridSize="10" guides="1" tooltips="1" connect="1" arrows="1" fold="1" page="1" pageScale="1" pageWidth="827" pageHeight="1169" background="#ffffff" math="0" shadow="0">
      <root>
        <mxCell id="0" />
        <mxCell id="1" parent="0" />
        <mxCell id="kS7yauVVDzb5seXYYpU2-86" value="" style="rounded=1;whiteSpace=wrap;html=1;fillColor=#ffffff;strokeColor=#c0b3e6;strokeWidth=4;fontColor=#0400ff;" parent="1" vertex="1">
          <mxGeometry x="-288" y="861" width="1766" height="243" as="geometry" />
        </mxCell>
        <mxCell id="kS7yauVVDzb5seXYYpU2-84" value="" style="rounded=1;whiteSpace=wrap;html=1;fillColor=#ffffff;strokeColor=#c65d91;strokeWidth=4;fontColor=#0400ff;" parent="1" vertex="1">
          <mxGeometry x="-294" y="614" width="1766" height="243" as="geometry" />
        </mxCell>
        <mxCell id="kS7yauVVDzb5seXYYpU2-83" value="" style="rounded=1;whiteSpace=wrap;html=1;fillColor=#ffffff;strokeColor=#931dd3;strokeWidth=4;fontColor=#0400ff;" parent="1" vertex="1">
          <mxGeometry x="-298" y="368" width="1766" height="243" as="geometry" />
        </mxCell>
        <mxCell id="kS7yauVVDzb5seXYYpU2-80" value="" style="rounded=1;whiteSpace=wrap;html=1;fillColor=#ffffff;strokeColor=#660000;strokeWidth=4;fontColor=#0400ff;" parent="1" vertex="1">
          <mxGeometry x="-301" y="123" width="1766" height="243" as="geometry" />
        </mxCell>
        <mxCell id="kS7yauVVDzb5seXYYpU2-78" value="" style="rounded=1;whiteSpace=wrap;html=1;fillColor=#ffffff;strokeColor=#ffea00;strokeWidth=4;fontColor=#0400ff;" parent="1" vertex="1">
          <mxGeometry x="-301" y="-123" width="1766" height="243" as="geometry" />
        </mxCell>
        <mxCell id="kS7yauVVDzb5seXYYpU2-77" value="" style="rounded=1;whiteSpace=wrap;html=1;fillColor=#ffffff;strokeColor=#0eff0a;strokeWidth=4;fontColor=#0400ff;" parent="1" vertex="1">
          <mxGeometry x="-301" y="-370" width="1766" height="243" as="geometry" />
        </mxCell>
        <mxCell id="kS7yauVVDzb5seXYYpU2-76" value="" style="rounded=1;whiteSpace=wrap;html=1;fillColor=#ffffff;strokeColor=#002aff;strokeWidth=4;fontColor=#0400ff;" parent="1" vertex="1">
          <mxGeometry x="-298" y="-610" width="1766" height="243" as="geometry" />
        </mxCell>
        <mxCell id="kS7yauVVDzb5seXYYpU2-71" value="&lt;div&gt;&lt;br/&gt;&lt;/div&gt;" style="rounded=1;whiteSpace=wrap;html=1;fillColor=#ffffff;strokeColor=#e60000;strokeWidth=4;" parent="1" vertex="1">
          <mxGeometry x="-298" y="-855.5" width="1766" height="243" as="geometry" />
        </mxCell>
        <mxCell id="kS7yauVVDzb5seXYYpU2-1" value="&lt;div style=&quot;text-align: center;&quot;&gt;&lt;span style=&quot;font-size: 30px;&quot;&gt;&lt;b&gt;BMP280&lt;/b&gt;&lt;/span&gt;&lt;/div&gt;" style="text;html=1;whiteSpace=wrap;labelBackgroundColor=none;fontColor=#000000;" parent="1" vertex="1">
          <mxGeometry x="-185.03" y="-704" width="128" height="43" as="geometry" />
        </mxCell>
        <mxCell id="kS7yauVVDzb5seXYYpU2-6" value="&lt;div style=&quot;text-align: center;&quot;&gt;&lt;span style=&quot;font-size: 30px;&quot;&gt;&lt;b&gt;NE06MV2&lt;/b&gt;&lt;/span&gt;&lt;/div&gt;" style="text;html=1;whiteSpace=wrap;labelBackgroundColor=none;fontColor=#000000;" parent="1" vertex="1">
          <mxGeometry x="-203.54" y="-436" width="128" height="43" as="geometry" />
        </mxCell>
        <mxCell id="kS7yauVVDzb5seXYYpU2-7" value="&lt;div style=&quot;text-align: center;&quot;&gt;&lt;span style=&quot;font-size: 30px;&quot;&gt;&lt;b&gt;MQ-4&lt;/b&gt;&lt;/span&gt;&lt;/div&gt;" style="text;html=1;whiteSpace=wrap;labelBackgroundColor=none;fontColor=#000000;" parent="1" vertex="1">
          <mxGeometry x="-180.56" y="-184" width="90.04" height="43" as="geometry" />
        </mxCell>
        <mxCell id="kS7yauVVDzb5seXYYpU2-8" value="&lt;div style=&quot;text-align: center;&quot;&gt;&lt;span style=&quot;font-size: 30px;&quot;&gt;&lt;b&gt;ME2-O2-Ф20&lt;/b&gt;&lt;/span&gt;&lt;/div&gt;" style="text;html=1;whiteSpace=wrap;labelBackgroundColor=none;fontColor=#000000;" parent="1" vertex="1">
          <mxGeometry x="-227.53" y="786" width="207" height="43" as="geometry" />
        </mxCell>
        <mxCell id="kS7yauVVDzb5seXYYpU2-9" value="&lt;div style=&quot;text-align: center;&quot;&gt;&lt;span style=&quot;font-size: 30px;&quot;&gt;&lt;b&gt;SCD41&lt;/b&gt;&lt;/span&gt;&lt;/div&gt;" style="text;html=1;whiteSpace=wrap;labelBackgroundColor=none;fontColor=#000000;" parent="1" vertex="1">
          <mxGeometry x="-191.87" y="56" width="104.65" height="43" as="geometry" />
        </mxCell>
        <mxCell id="kS7yauVVDzb5seXYYpU2-10" value="&lt;div style=&quot;text-align: center;&quot;&gt;&lt;span style=&quot;font-size: 30px;&quot;&gt;&lt;b&gt;DS18B20&lt;/b&gt;&lt;/span&gt;&lt;/div&gt;" style="text;html=1;whiteSpace=wrap;labelBackgroundColor=none;fontColor=#000000;" parent="1" vertex="1">
          <mxGeometry x="-199.7" y="294" width="128" height="43" as="geometry" />
        </mxCell>
        <mxCell id="kS7yauVVDzb5seXYYpU2-11" value="&lt;div style=&quot;text-align: center;&quot;&gt;&lt;span style=&quot;font-size: 30px;&quot;&gt;&lt;b&gt;LIS3MDL&lt;/b&gt;&lt;/span&gt;&lt;/div&gt;" style="text;html=1;whiteSpace=wrap;labelBackgroundColor=none;fontColor=#000000;" parent="1" vertex="1">
          <mxGeometry x="-203.54999999999998" y="542" width="128" height="43" as="geometry" />
        </mxCell>
        <mxCell id="kS7yauVVDzb5seXYYpU2-12" value="&lt;div style=&quot;text-align: center;&quot;&gt;&lt;span style=&quot;font-size: 30px;&quot;&gt;&lt;b&gt;LSM6DS3&lt;/b&gt;&lt;/span&gt;&lt;/div&gt;" style="text;html=1;whiteSpace=wrap;labelBackgroundColor=none;fontColor=#000000;" parent="1" vertex="1">
          <mxGeometry x="-201" y="1043" width="188" height="43" as="geometry" />
        </mxCell>
        <mxCell id="kS7yauVVDzb5seXYYpU2-13" value="" style="shape=image;verticalLabelPosition=bottom;labelBackgroundColor=default;verticalAlign=top;imageAspect=0;image=data:image/jpeg,/9j/4AAQSkZJRgABAQAAAQABAAD/2wCEAAkGBxMSEhUSEhIWFhUXFRUVFRgYFRUVFhcVFxUWFhgYFhYYHSggGB0lGxUVITEhJSkrLi4uFx8zODMtNygtLisBCgoKDg0OGhAQGi0dHx0tLSstKy0tLSstLS0tKy0tLS0tLSsrLS0tLS0tLS0tLTc3LS0rNzctLSsrLSsrLSsrN//AABEIAMcA/QMBIgACEQEDEQH/xAAcAAABBQEBAQAAAAAAAAAAAAAAAQIFBgcEAwj/xABCEAABAwIBCAkBBgQFBAMAAAABAAIDBBEhBQYHEjFBUXETIjJhcoGRobHBM0JigtHwI0NS4RRzkqLxY7LC4hUWU//EABkBAQADAQEAAAAAAAAAAAAAAAABAgQDBf/EACMRAAMAAgMBAAMBAAMAAAAAAAABAgMRBBIxIRNBURQiMmH/2gAMAwEAAhEDEQA/ANxQhCAEIQgBCEIAQhCAEISFAKhIi6AVCS6S6AchNJXLPlOFgu+WNvN7R9VGwdiRcVLlWGVuvHKxzb2uHC1wvCoy/TM7U8Y5OB+FDpL9glEl1Qc4tIjYnBtM1stxi5xc0A8ALY4Ko1ek+sc4AOjY0j7jLn1cT8KO6fgfw2spkkrWi7iBzIHysBrs8amQnWqZiOAfqj0YAoaoysX3uC48S5zv+4oqbObyI+g6vOWki7dRHfgHax9Aoqp0hUbey57z+Fh+SsJfXHZgB3C3wvE1jjfE+qbor+T/AMNkq9KDB9nTu22672ge11KZkZ4GtfJG9jWOa0PZqkm7b2dt4G3qFgRqTx8j+qsWZ2WTT1UExODHar/8t/Ud6XDvyp9QnI2z6NCVMY66crnYVCEIAQhCAEJLpCUAt0XXLPXxM7cjG83AKKqs8aKPbUNPhu/4UbQJ+6Lqlz6R6Qdhsr+TQ0eriFD1elMjsU4He+X5DR9VHZFeyNMukLljNXpMq3dl0TPDGSfVxUPVZ6VUnbqZCOAIYMPCAQodkd0b9rJLrHKXOzKFQz+E+R1sCWNYBcbbm21ElNlKbtOcPHKQPQLhXJU/NHecTpbL9lLPmjhc5he5zmkhwawmxG0X2KBl0qQkXip5Dt7bgz2xKzPOmjmpns6RzXa97Ft7C2JFztJ4qAbMcbE7zdXi3a2c7Tl6N5p9I9OYw4sfr26zRawPAONrhR9XpRaDZkI/M/6NWfaPuilndFOwOJjLo749Zpxw5LRIqVjBZsbGjuY39FnzZ6h6NGLGqX0o2c2dE08nSP1mtIDdVrpGx4cBfE95VXFadY8DiL42PctEz5oDLTuIF3R9duA3bdiyq66ce+6OebF1LTm1I6eboGvDXOBNyLjDuVtjzT/rqXd4Yxrfc4rMsmVpgljlbhqPa7yxBB43B9ltzJA4B42OAcOFjiuHKTlnXAlrRUs4c14208j4jI6Ro1gXvJwBubNw3LN9a4GFj5LdJWggjisXy7RdBPJHuDiW+E3IU8TJt6Y5GNa2ceui6aGpC9eijD1+jrpCVNZsZtvrCcdVowLiPWyt9Po7gHbke7uvguF8iJ+HeMDozW/FdVA/HHYRitUpszKOP+VreLFetbm9C+F8ccTWuLSWEC3WbiMfKyz1y5/hd8Vls0d5VNRQxucbuZeJx46hsD5iytAWZ6JcpWMlOcCf4gHAizXj4K0xq1467Ts5taehUIQuhAIQhAVrPyukhpHPicWv1mAEYHbc28rrFazOSd568srjfG8jgBfktg0iS2iiad8uPINKwnKsGpK9veSPCT1fZcn/ANil+D3ZQJ3bcLk3x814vyi4CwPdhhh5Lgc/gmhyspOXXZ1vq3HC+9eZnPFc4S+anSRKx7PUP4pHOuvMpNdWLTOi+aMMpkOlpycHjpR4gAD7K/4rE8h1/QTxTD7jwXeE4OHfgttJviNhAcORFwvL5karZ6GCtoq+f2TjLTkjbG4PHkCCPQlZb5rdZ4tdpad4PmsTyjSmGV8ZFtVxA+VfhVv/AIleTP7H5LrTTzRzt2xvDsdmrezgbdxK28kGzm4tcNYcjiPlYJf+/wBVrmYOUenpACevDaN3e37pV+Zj+bHHr7om5og5pBGBBHO4WK5YojDPJEfuuw72nELcuiPD6LN9KFAGvjmBAJuxwvicLjD6rNxaavR1zpOSkj97Vqujqu6ak6Mm7oXFhH4e0zHbsNllQN1O5m5wtopnve1z2PYGua0gHWBOqRfDeVv5OPvJlw3pmvaiz3SZk3V6Odo3lj+W0LoqNJQ/l0oHe+Qn1DVX8v55TVUbonsjaw2NmtN8MRdxWLDgyTW9Gi8ktaK7rXTHd5wuL+G+J9E0OsSjpOC9Vr4YV8ezdci0EcEEbGW1dUG5LcdYXucd6dV5Wp48ZJ428bvHwCsLM7rAXdYbBrEgchfBNFhuHpZYHxN022a1nSRr9VntRM2Sl54Mbf0OxRM2kiNv2dM93DWeGi/IC6zc3KLKy4kr0h8in4W/JedD46j/ABETGtcHOfqXJbiOsw8QRvX0DkytbNEyVmLXsa8cnC9l8rU7zcbeWA9ytx0P5V16Z1M43dCbt/y3kkehuFohKfiM7pt/TQwhIClXUAhCEBQdJUvWgZ3SP9LD6rMM66W9nD+nHdZaFpEmvVMb/TDs8Tv/AFVXq4Q9hG0jH2XO/wCjrsp+Q825qvX6MgBlta+6+zDgrFT6OX268oHIY+69cyZxDVlhwEw1Tu6zQbLQHENvrODfE4N+VhzZrXhqxYo19KfBo+gHaLjhsuR54KSp80qVn8oHmu6py9Sx9upib3a4J9BtUbNnvRN2Sl54NYfqs7rLf9O3WEeecmb8T6Z7Y42tfa7SBjcbfZZK03x2LSavSNEOxTuPjc0fCzh8gLnECwc4uA3C5vZbeIrnfYzZur8FG36rWMz8vwuoo+mmYySO8bg9wBIbscBtN7rJQkvxstGbEsiOeO+psdTnhQx7Zi/wRvd6FZ3njlWGpn6WEO1dTVdrN1TrA4GxUG16Y/n+q5YuMoey15nS0Ouu/JWW56YkwyFmtbWsAb22YFRgO9AJWmpVfGcU2iXqsuVEnbnkPHr2v/pXBJI52JJPMk/K8Si6iccrxEu2x5NkAgrydxTWuXQoez3WTS5MeUgKhkgAgNSk2SAISe1JTukeGNHWcQ1veTuurLT5iVbtrWt5uxVZikLXBze00hzfENi3nJdZ08MczfvtBwx61gHD1Cx8nJUeGjDE16Z7T6OJT9pKByUrTaP4B2nOdxxsro/q9qze9xDR7qPqsuUsfbqYh3B4cf8AbdYXmyM09IRH0+aFI3+WL8ST6rz0ayGmrXwO+8HR/mYdZluYJTKnPmib997zu1GGx5EqsVudDZKoTwtcxw1T1iL67djjwwwXbC8m9s5ZVGj6HanKFzTy2KymZMLB2LZAPuyNwcPryIU0vSRkBCEKQZHnxLevl/CyJn+3W/8AJRbH3tdT+kqh6OpZOB1ZWarvGzZ/t+FV4nX5Kr+/CStZwkxTu1XFv3mG9jY7wed1BS1DndtzneJznfJVtzupA9jZAMQC04bhiCqzR5NkndqxtJIFyBw4lU1K9ITrfw5AbbAByT9ZWSnzHqXY2AHfuUtS6PXfflHkFzefHJ1WO2UWxRbuWnwZgwt7TnH97l6VuZlOI3arOvqnVNzcFU/2RvRb/PRlQKYSvSRtiQdoJHIg4poWyXtbRwaa+A02SOPqkvcpxdhZSVAFIHIQCg0OISJEBAPemAJCghALdKxM1U5AOLkhKaMUpKAfrKRpcvVMcfRRzPbGLnVabbdtjuUY0oYLlVqU/SVTXh0Szuebvc5x4uc53uSvINtuAXfT5v1D9kbjfuw5qWgzJq37WtHMlcavHJ162ytOcV6RyW2cdyutPo5f9+UDkP1UnT6P4B23Od7Kj5WPxFvwUyS0M5WLZJKZ5+0AkZ4mizh6W9FrgKwvJsAoMoM/pY9rr7LxyDVJ8r+y3Jq647VI51HX4PCVIlXUqVjSBk4zUb9XtRkSNPh7XtdZRTn9VvUjAQQRcG4PIrDa+jME8sJw1HuaPBe7D/p1VBKEnbrsIXFmtIKesbc2a/WjO7aMPdd0b1Xc4i6OQEcGvHG+0LPlhstNKTWy39/3SPFu1Yd5IAWMVWdla/B1S/yAb8BRs+UJH9p7neJzj9Vk/wAVNmj86SNsqcsU8d9eojFtvXB+FFVee1E3ZIX7eyDb3WRh2/8A59UY710XCX7K/wChnVluoY+eSSPBjjcA7Qd64XJSEhW+J6rSM1Vt7ESApCUXViB6ahBQClIEAJbIQKmuKWyCEAiAhKUJ0IUBCVAI04r0ABNj/wALycf7J1yoY8NszQyl/iKOJ+GswCJ9v6mXF+6+CmdX9/8AKxXIGdNRRiRsOoBIWl2s3WxG9tzgvarzwrZcHVDrcGNaweR2rzcnEqqbRsjOkvpshw22A4mw91w1mVaeMdeeIfnB9gsUqK6V3bke7xPcbrm1u72CmeF/WHyP4aLnTlullMZikDnt1mmwNtQ9/ctO0fZeFVTAEnpIrRvvtNh1X+Y97r5vjcRjjfcr/oqy06GtY1xAZMOjdz2sd6gjzWnHi/H4Zrydmb2lTWpy0FRFmmlCg1JYpwMJB0bz+JuLSfK48gtMVfz2yZ09JI0dpo128btx+LqGDJYyON1GZ1UYfEHjbGbeTl3xHj+8E6eLXa5p32VX5sNGeCEnYCT3Ymy7qXIsztkTj5FT2Q2NgrI3uALS7UdfZZ+APkbLU+iDcMMFky8hx4aMWLt6ZLTZm1TvuADvKk6TR9Ke3I1vIFaTdKGHh3cPlZXyrfho/DJQho8YBjM++7Btr+ioFZAY3vYdrXOaeYNr+i3Osq4mDryxt5vb8XWSZ69EalzoXte14DnFuwP2EfC0cXLbrVHHLjlL4VxCdZFl6OjIIClTg1JqoACEtkFAIEJ1krWIQMQQnFuKUhAeYTmBOjZc2AxUpT5CqH9mJ5v+H9VWrU+llLfhD2TmBWT/AOnVRaTqAW2gmxPJV19wSCMRge6yrOWa8FRSGEL1iiJODSfIleWstQ0aSRyUzmFjekidZxtcua7Fp9lXNk6Tstijv8ZQYMlTu7MTz+Uj5UlS5n1T/wCXq8ytfDBuATjwXn1zKNawSjMKfR7Ke3I0cgUtbkF1FJH1y4Ea7XAW6zHXI9lppadtv35qBzs6N1Of4jA9jmvbd7bm2BaBtVZz5KYeKdGo5PqBJGyRpuHNa4HuIBXSqDoty418RpS7rRguZjtjJxA8LjbzCvoXqy9pGJ/GOTXhOTSrAxLOKi6Cqmi2AODm+B41m/UeS443K5aVMnEPiqAMCDDIe/tR4/6h5qkRn9FUEXnCdQjgRrDmCPgrqm0i1Fg0MiBAAuQST3nvS5y05kpxbbG69/wuwICpDwVz/DL9JnI14WSqz3rH4dNbwtAUVPlqeQ9eaR3Nx+i4mMv3929ddPQSP7MbjyaVXpik6drZ4PdfEjHedpXmW33qdps1ap/ZiI54KSgzBqDe7mj97E/PjkPHbKfZIGrsrqMxSOjdtaSPRczgtCpUto4uWvRNVPEZVp0f5OgqJJI5m3IbrM78bEeW1aDT5Bp2bIW+l1lzcno9HfHh7GLGIjd57EwhavnrkZslM7UYAW2cLCxw2rLHK+HOshXJj6HTkbJ5nlbC02c+4aTsw4+qucGjvdJMdu4C4896pNDUGJ7ZGnrMcHjy3fK3KknbLGyQbHtDhwxG5ceVdT4dMMy/SlV+YUbYnljnmTVOrc4LOS0jA4fr3rfnhY1nZQ9DUvFrBx1x57Vz4uZt6ZbNiSW0Q8ZsbjaMRzGxbnkitE8EUw+8wE23EYH4WFArStF+Ubxvpv6T0jeTu0PIrry4dTtFMFaei7OZgeSxzPfJ3QVLgB1X2e3z2+62UlUzSPkzpIRKNsd/9J23WHj31r6acq7IywlTeaGcBopjKW67S0tc0G1/6TfuuoORqGhexUqlpnnqurL9UaSpT2IY2+IlxUXPn5Wu/mhngY0fKrIal1VyXHxr9Fnno7qrLc8nbme78xx9LLjwJuceePum6qcxdFEr9FHlbX0s+ZuXTTVMMu5rrO743ENf8g+S+j2vBAO0HEL5VoiARfZjv8iF9CaPMrGoomX7cZ6J9/wgap82kImkVl7LWkslQrlyGzsyd09LLGO1q6zfE3rD3CxeE7Dv+OI5rf3LFM66HoKuaMCzSekb4Xi/yCPJQDjd1mObh1gRbmqvHk8MnjMguwSM1xuLb2KtMKi8tgNxO/Z++5ccu/0XhLZoMWRYGdmNvdgNhxC6xTtGwD0VOo8/oGQsa5j3Pa0A6oFjbZYrlqNJH9FO387vo1ec8ORvw2K4SL8UWuNnssuqNINUeyI28mkn1Kiq3Oqrk7VRJbgHao9ldcO2VedImdJFFqTMkGGuCDzGN1TLp1RM5xu5xcccSSTj3ledl6GGHE6ZkyV2fwlM36809RFKPuuFx+Eix8v0W3YGxbsIBHIi6wFn0/sthzFygZ6Rl+1GOjdybgCfJZeZj39O3Hr9E1LGHAi20ELFcuUZhmkZss428JxW46qzrSZQWLJhjfqut3Dqn5WbjX1s75p3JQmHFano0yj0lM6EnrQusP8ALdiLe6ywnvVlzGyoKeqa5xsx46N/LGziO4rfnx94MuK+tGu2VG0mZMvE2YDFjsbf0lWCfOulbseXeFpPuoHLudEc0b4mxOOs1zbnvH7N152OKm0a7pNaMyJU3mjlDoKqKTcTqO8LsPYrgGTnW2Hv3Yr3hoCO1gbDeF6taqdHnqutG5ubbu4X+ijcrSw9E9sksYDm2sXAE34DeszNTcfxJXHDZrOtYcFzyzwDvPHf781564zVGz866kLUQWe4NNwHENPEXXmyK/kpKSqj2hnDy70z/HmwAAFu5elKejBT22craV5+6fRercnO34Xx2odWvP3l49IXHjdW0ynSjrNABtcALcd6cyKIDtXOwLiPuErVOi34yRZPGNjd3H1W06IcaWV9ra0xsO5rWt+hWFwC5C+gNF8Z/wDjonHEvc9583FUc/S0ykXBCEK5YQrPNKuTcIakbWkwv8LzrNvycCPzLQyo3ODJ4qKeSE/eabdzhi0+oChgxWIheOXoNencR2m9Yct49E6InYQQdhHAg2PuuoAG4OwgjuxFsVHqDM5eT+/okCksp0mq9zbbDbZ6WXK2nJtgplop2PGyS3cuttE7h/wvWKjttI9dvep2V7EcUoapHoWC13cb4JSYhuJPMAIRtnCyMq0Zm5ZfSGQNZrteG3F7AEbCFDGrG5gB7gkZlF7b6h1cLYG2CpUdlpnSKpF7nzrqnDqsazn1iPVQGWa+edurNKHDbawFj5KBNY87XHivB8hO0lcJ4yT2d6ytrR1GkYMC/Zb+6c2WJvE/vYuAlJZaOpx0S4ywBsZ3Y7UyXLDzfYOSiygBQsclts95Kt5+8fVebpCUyyUNubDeuiSK6GhxSl3enSxkGx3cvleZUk7FQHJQkKECWQEoSEIBQ1OYU0JwQk94nWBPAE+i+lMzqboqGmZwhZfmRc/K+a4GXw49XlcgfVfU9BFqxMbwY0egAVSTpQhCEAmlOSFAY3nvk/oKx9uy/wDiN/Met6FRTBdX/Srk+8EdQ0YxPs7wPw/7tX1WfxH9VXwFdyzlD+IRYbdvlZRjq51rbOQSZQeTI48SVzkqykhyh3TOO0lBKanFWI66BAQUAoToUlNCW6QISKmlPAQ5ANAQAgJLoBwalISNS2UAQoCWyXUPBTsDS3cgpwYSbb130WRKiU2jgkdfZqxuPqSLKNjRHAJFdKPRplB+PQhvjeG/qpaj0PVTvtJ4I+QfKfTqhNgzUtRqlbPRaGoB9rVSv7mNZGPfWKnqTRlk1gsafpDxke59+Yvb2UbB89X3XXdSZHnl+zgkf4WOPvay+lqLN+li+zp4mco2/opFjAMALcsFOwfP+QMwa58sZfTuYzXYXF+qLNDrk2vfcF9AsCWyLKAKhCEAIQhAcOWKITwyQu2PY5vmRgfI2Kw4FzA4OFnN1mnm27St9IWO6R6HoKiZ4GErNdvc7Y4D0VWSjLpjiea8yV6y4kleRCuiBdVKgBejWdxTYPKyAvRsRJsBc8Bj7BStJm1Vy/Z0s7u8ROA9XWHumwQ+qnBquVFo0yi+xNOIwf8A9JWAjmGk+ysFDogmP2tRE0fga559XWCbJMu1U4RHgtsodEtK3GSaV55tYPQBTtHmBk+O1qZrvGXP+So2R8PnVsdza4upGkzeqZfs6eV27CN+3dtFvML6UpskQR9iGNvJjR9F2BqbB89UejXKMmPQBg/6kjWewufZT1HoeqD9pUxMH4Q+Q++qFtFkWQGaUWh+nb9rUSv8IZGPgn3U5RaN8nR2P+H1zxe5z/Ymyt9kqaBHUmRaeIWjgjbyY0fRdzWW2YJ1kqASyLJUIAQhCAEIQgBCEIAQhCAEIQgG2VU0g5uPrILQhvStvqgnVDgdrdbdsuhCh+BGXUmi/KEhxjjjHF0rT7MuSpui0Oyn7WpY3uYxzvdxQhF4STtFojpG26SWWTu1gwf7RdTtFmBk+PEUzXEbC8l/yUqFIJynyZDH2Io2+FjR9F1BqEIVDVS2QhCRbIQhACEIQAhCEAIQhACEIQAhCEAIQhACEIQAhCEB/9k=;" parent="1" vertex="1">
          <mxGeometry x="-199.70000000000002" y="879" width="150" height="150" as="geometry" />
        </mxCell>
        <mxCell id="kS7yauVVDzb5seXYYpU2-14" value="" style="shape=image;verticalLabelPosition=bottom;labelBackgroundColor=default;verticalAlign=top;imageAspect=0;image=data:image/jpeg,/9j/4AAQSkZJRgABAQAAAQABAAD/2wCEAAkGBxMTEhUSEhIWFhUXFhgWGBcYFxsXGxYYFxcZGRcaFRgYHSggGBomHRUYIjEhJiktLi4uGB8zODMtNygtLisBCgoKDg0OGRAQGy0mICUtLS81OC8tLy8vLS0tLSstLS0tLTAvMC4tLS0tLS4tLS0tLS0tLS0tLS0tLS0tLS0tLf/AABEIAQsAvQMBIgACEQEDEQH/xAAcAAEAAwEBAQEBAAAAAAAAAAAABQYHBAMIAgH/xABDEAABAwIEAgcECAQFAwUAAAABAAIDBBEFEiExBkETIlFhcYGRBzKhsRRCUmJywdHwIzOSsjRTgqLhFUPxJHODwsP/xAAaAQEAAwEBAQAAAAAAAAAAAAAAAQIDBAUG/8QALREAAwACAAQEBQMFAAAAAAAAAAECAxEEEiExE0FRgRQiYaHwMsHRBRUjsfH/2gAMAwEAAhEDEQA/ANxREQBERAEREAREQBERAEREAREQBERAEREAREQBERAEREAREQBERAEREAREQBERAEREAREQBERAEREAREQBERAEREAREQBERAEREAREQBERAEREAREQBERAEREAREQBERAEREAREQBERAEREAREQBFGYvxBS0ovUTxx9gc7rHwaNT6KoYh7YcNj90zSn7kdvi8t0VlFPsiHSXc0JFksvtyp/q0kx8SwfJxX8Z7coOdJL5OZ+ZV/Bv0K88+praLMIfbZRH3qepHgIz/+ik4Pa5hrrXfKz8UZP9l1Dw2vIeJPqXxFWKX2g4ZJtWxD8ZLP7wFO0mJQy6xSxv8Awva75FUctd0WTTOpERQSEREAREQBERAEREARedRO1jS57g1o3JNgFAUvGlLI8MY4lrrgSW6hINiAfHfsuO1Q6S7kpNljRfwFf1SQFXuPsXNLRSyteGPtlYeYc7mL7kC58lYVlPt2fdlMwHUmQ27rNF/U281aFukitvSbMhrKsu6zruLt3OJub63PNRb5Bf3fUqTqqbkXDQcvBR76cdpXpKdI4Xab7nln+61ftrj2BfpkAPMqRosJDzbOR5XWsy32M7yRK6nHCy52AXW6jJbms0W31N/IW7wrDQcGOeLido8WfM59P/HamJcJTMvlljf4Zm39W2+Klw09FJ4jHS2n+3+yoyhoNr/BGxEG7Te3NvK+g8NT8V01WGyN0LPQg/DdcToyNwR6hVa0aTSrqmT2G8VYhBboquZo7C7OPCz7hX7hX2kYlK5sRjinc42Fx0ZPbcsFh/SskjiJ2I9P0UpS09VcGIFzhzjJa+w1OosTpfVZXEtdjWLpPubVS+1ymDjHVQyQuBsS20rARvtZ3+1XLB+JKSq/w9TFIfshwzDxadR6L5crsQubOz3tqJBqDzFzqbbX59y5Gu1DmuseRBsR+ixfDS+xqszXc+w0XzPgHtFxGlIHTmSMfVm/iAjsDicw9fJabw37YaWUhlU007zpm1fGT+K12+Y81z3hqTWcs0aWi8qedr2h7HBzSLhzTcEdoI3XqsjQjcaxUQMc4MdI5rS/I3U5Ru493xVDwP2kSSyB0jWtYSWmMbt/ETre2o5bqD4yxGtw/FPprusxwDcuuV0V/d+HqvPimgiLW4pQ2MMn86O9sjjYkHL7uuvcbdqwu2mazKLTxPxGXStkY1lRSRgieIDM/K5oJkaDuWg+7a9g7vVGxvDBQPZPTvMmHVBDmvZqYz908nD4gWOykaeqEzWztIzlvXP+aAdS4cnDZ/Zo4c170dWymD2yMzYdOSJojvSvNhnb93Ym22hGhC5VlbrV/n0/j/ptyaW5LhwZxLcNhmcDcAxSD3XtO1v05HQq7LA8Tw1+GyNa57n0MhL4JW9YRl+t+zXTMBuBcarUOD+IukAgmcOkAblIIIcC241G+moXXjvyZhU+aLYse9q8bpq+NgsAyG1zyLnBxsPIeq2FYrxjiIdXSkC5ziLwsLuPk0BdWPe9oxtJrTKjU4K0bvcfCw+d1GTYYy+7vX/hTLWvHSOedXONvAaBccu61WW33ZR4Il6SPClwphP1vX/hWvA+GYnn3nDvBH6KHoGaj9+qvnDkNtSrrLc9UylYcddGiRpOEGBoyyuHiAT+XYFG4twzILlswP4gbjz18FdqOTqXUVij1PxmZeZi/wCncM+vL92ZZi+Fztvo0/hI022vZQZgeDqw+hV7xd+q4KMXcLKfiq80Q+BhfpZD4RRQyOs9jez3ddefVsdO5aNgfCNPlc9mdl2mwLg8a3sSDrqO8bldeAUDH+9G0+IBVs/6ZGGFrW5QRbqm297/ADKjJxMUta0Z4+DyxXMq2vdGAcU8KyNe5wcx4F3X1aS0k8j3g81TKmjLCQ5pH77VtHF3DrgXOjlvfk4W7txpf02WaYnTysJzNOnPcfBdHNjpfKzKPiJf+Sfz2K4yQt2OnYv1045tt3j9F7SNB5Lz+jnlqqtM6VSLXwVxZU0Tr08oczd8Dycp7bD6p+8PO6+iOGscjrIGzxXAOjmndjhu0/vYhfKdNHyOh+IWt+zbiKOkbLHLnJPRvDgN7tde47Ra3kuXLG+p0Yq8jUeJMDjq4XQyDcdV32T2rFsFqpMGrJKeoZnppepI0i4LeT29u/ot+VY464UZXQkWAlaDkd2/dK47nfU6ZrRmWP4Q7D5Gz0xzUkxD43DXITtr2gaa7jdd9K8PZnjDb2yubu0X2br9Q3u1x21adCovhnHDDnwnEGHoXnI1x0MT76G55X9FHYhUTYdM+kmsGsAdFbrF3NuU8mONyQeduY147xqvz89jomtFpwqojjYaOZrn4fOSGuIJNHJcAtLj/wBvM4EE+7e3jXccoKrDJGwAgsLi+Oa1gG9jXk2A5kcjay/NRS1ktDLVwxujillIfG3bRti8A65bkjTnysAvWloMRxHoqB+Z8cIaekOjY779I7/uGwADRqExzetV3Iqp3tGgezjix9SJWODiyJgeZDm3JOgJGo0J11Wb19T1pZjrlDneLnm/yDR5rXG4PFhuGyRRcmHM8+897tC4/kOQACxfEgeijj5yvBPhv8rL1eHnS6nJkfU4cSr5GwNcbdI8i2nbrt4WUVU1c7XNJLet9UC+vepHFOtURs5MaXH8vkFxOb0lSByYPjv8yPRbzr0+pm9ktV1jomNLNCXWuRt3q34JT1Ya2WCpbUC4uwNadNdt/wAiquKoMexksYMJ94kXt5dxttqrBTRQRujfQyuMpOrWklpABO52N7aXN7ldPDxtJa+217+hjlrT7/fT9vU0XFsW6KmbIWWe5rbR9jragjsH6LOq2jqKgGaWbKwfWcco/wBIFtO9WzjhhywOebagOtyJsXfmonjaSns1ksjmgdZrWC4I2FwAdByXi381PfZH0XDtYsMci+a97ettJehR5Q+O7oZxK1vvDsHaQTsrHgxD8rhz5fNVl9ZDGbQsc5zurdx3B7lZ4HCKFz7AZWaAcidLDwJ+C1xLb0jj4x+dL+fc0rh6HQaHZWGc2aqH7OKaoMJeZSGkjLmBdta9rnTsv+itdXXHpTERplvfwFz5LXLhc05T3o4YyblPXcqPE8vfrr+ws/xB2pVy4lluSqNWOVEWIuoo2O3br2jQrkdg7hqw37jof+VJX1XZTNWk5KnsUvHNdyBp4buDXCx9CFunswwtn0Z8r2NJfIQLi/VboBr3krPIKFshFxqNQeYt8x3LY+DaToqOFh3y5j4uJP5q2XIqn6meHE4bXkTSIi5jpMl9rXBs1RM2eJheCA2zNCCLkk950F14cM+zKWd0cuI3a1gsI82aR4B0D3a2Hne2mi2FFTkW9luZ60eLKRgYIgxojDcoZYZcu1rbWX7iia0WaA0dgFh6BftFcqVj2hSf+lyfbdY+ABJ/JZNWRtuDYXAsD2eC0f2jz6xs7Gl3qbD5FZvWOWk9irIiqOpXBVVYjGbS99AeeoB9LrrqCoiviL5WBrc5b7w3ADjZpI5m5vbsapb6AtOA4nFJL0bhcXaBdjjmc7kW5dOW60jD6yjp3ZXvhiksDYgNOt7G4Hd2rLOBYrVTQ0sN3SF1jJdrGdTNbNlsSLC9zuraXSdPLIQ9sglsQ1zwx0UDWODGyNIB6ri5+Zumew5qHb0TpbLQMdpa0OiHW6oeWuFuZ2sT1ha/duqjjeFsFmfSDa+VrXZHkE8mEi415Ls4XjySyXhuIxkNQeo2MABzYmMe0OabSOu48iNbaKgV1TGaqZ4ZFL1X2cyMx9JY5nPiIJ/i9h5htws2k+5tGa4WpfQlqbCGxyZtyNr/ADtyUtWYZLMxrIxzu43A8BqVXeHI/wCLMS8ut0cYc7RxDWAm7e7MB5KxYJi07at7TH1GtYADLGxmYlzsxe7ZxaNB3G9lpjvw2qkyzN5d8zNb4doxFDHGPqtA87a/FcMhJMshP3R4bn/6r14SxJ80LXSRuaXNzA5RlI5WcDqde5f3H5LNPZZVWR9fqVc9voZ1xBLdx/f72VSq3Kw43Ncn96KtTlSSjybupGmCj491J0oQE7hUV9O2w9TZbRBHla1o5AD0FllnCVPmmiHa8H+kZlq6hhBERVJCIiAIiIDMePqi9S4fZa1vwv8AmqNWOUtxjjbemmeLu67h2a9aw/2281T6zGesAWgNLrXvfTKTf+3+pabKn7lOq6KWO2v70UHHiD3PAs3ZpcL62LcxLR2DRdFLijzG6S0ZAZms1xzamzQRy3UpoaNO4GoGlpIaAByGg115d6tUPCNFlsKdrRa3Uc9m4191w7FTeFeI2RQuIbmAhjluDYl0ryxjNbAbbk8lbKPiQNZJ9IY+F0TmNc09fMZdY+iLPfv2BRRKPKfCYoOkyF9pNXNfI6QX5nr31OxJ7AqDXYDCC/O1rw5+ZoLbCMBrWBrQDsA1XDEOI4XiUuzxuiaHPZIwtc1rvddbW4NtxfZVKTFoZyeila4jcC9x5EXULRJE4FhQizEsbnLn2LfsF2jb9lgFJYHw+7o5WCgPSSuaYy0sc2JrHMIa57nDdzLkcw7096FpLtloPDcWg8lFIgkeEYwIXOLckjnEyMyFgjd9lrT9UW3G+64+Jp7BWZ2jVR+KZ9SFSUGUHFpLkqDlUpiL7kqJeVoD9whS1I1V6irwZHsIsGuyg+Dcxv4WVmw9ua1tb2t57IC/8DU38dmnuwl/9ZsPgVoCrHB9NlkqHcmlkI/+Jtjb1VnVWEERFBIREQBeFdNkje/7LXH0F17qG4uny0kneA31Iv8AC6IGE4nQPkYW2sczn3J3JaWt+d1D4jhJdm1AB93usW2v/pjAVpr6pgvme0eJCgqqujP12+q15G/IpzJeZDuw97ies2wzZNDmGYEWJ+yL7KUwnDXnK0iMAPjJygi7WG9j26gfFecVVGT77fVWHBZIyf5jP6gFZY36DnXqS3DvDk0bJQxscrXzC8TiLPpw138Mlws0hzr3HYp4YPNAyJ4jJZFUmUU7X5zHG6PIA1x94hxLrDtU5w9EC0EEG/Z5dik6tpA2O3Ys6XUsmZVxlHLN0shjdGJuhpmB3vZRJne5zQTYG1gCVXYJCKiZ1RI3pIwGAgBjSxxBDvG+nctKxmTf0VNq4WuJzNB8R36fK6hInZw0NL9InnbJI5rIQ1rcrizKSzMXuI/ei0ThV9S4tp45o7xQxufOWZxK6S+QNGYWblFydzdVOhwGGeQOkYbmwdZxbmA2DrHUac1pGFYPld0kL+ic5rWOGUFrmsFm2B2cAbAqtEI66rG8pgY5ovK5zHEGwa5txp2gkKiYvjUc5lEZJEchjJOxI3ynmNCrLxhhExDX05AcwMDM31SXkyPPLY/BZ5R0fQQuZlLSZZCA7fKDlaT4ht/MqJ3sMjK9+pUa4rsrHaqOqr5HZRc5TYdptotAROGdZr3X98P9ZXtjb8A5XXhthficLBfKwMuOVrl5uOfVYqvhFOR0bCLHOwG/3GGQ/wC59lb+Bv8AE1c/2IpbeIZ0bfi8qoNk4QF6YP8A8xz5P6nG3wAU0uPB6fo4Io/sxsb6NAK7FBIREQBERAFQ/a5iAZTMjvq95Nhzawa/Fw8VfFBcYcONrYDGSGvBzRvtfKew87EaH/hWl6eyKW1o+bK6U8w1l9s7wD6Wuvx/0mQ63Z5En8l+uOeGKmknd07CM2x3a7va7YjTbcKCocSki0a7T7J1Hpy8l0+LTOdYYXkdFRJ0byw2JbvZTOAVAdd5jzNBtbMAb2+8LW1VTqZi97nndxJ9VauHLdCBcXu4kc97DTyVlntdiL4fHS6otuDcYQU5tLHI0n3drdpuc1iOSk3e0Kmkd1KiRosNMsgPkALcyqTBSdJUSFzA8R00pa0i4LyA1u4IvmkbbvC4G4CYKuaCXK8xWadLtJNibX7NR5Knx1O9PTM/7bjmdy2vc0DEsbzNvHVRu0DrZ2ucDr1XB+p5bKsnGpL9ZrT4XHyXM2Bo2Y0f6QvM0jOTQPw9X+2yv4svvKJ8G57W/ct/DvEsYcM7XDvFnLVsCxeCRoySC9tjofivnqOHKbtcR42cPjr8VO4fxHNELNDdgNCRe3aDcH1socYa9UylVxUPolS+/wCxt2NSjKba+ayzHZLkqLqOIAWX6SWOTwdY9vWjJHfqoSqxqTfOJBfnr8Rqj4bXWaTGPjab1khye9QV4sC4jizSes23hqP1XbSytd7pBWFQ13OybmuzJCmYLjuVr4LwbJFIBc9PPDGCd7dJ0knlYBVmlatM4Qh/wrf/AHpj8I2/JUZcviIiqSEREAREQBERAc9dRRzMMcrGvYd2uAIPkVk3H3smoo4JquF74eijdIY9HNdlF8ovq29rb81sKpHtlrOjwqcDeQsiHfmeL/AFXjfMkRXY+ZqhlgB3X9V5VdNJC7LIx0bxrZwLXW8DrZWDh7DfpGI00FtHTsaR91hBf8GlfVGKYZDOwsmiZI0g6PaHD47LfNWqM8a6Hz/wfQ3qGROdc56WN1wSSAfpE1jy0bbVVvE8dAqp5HNzGWRzzrYi7nEeO6lsN4mbTyyExyGUuqdQ6zQ9zOijIHPKCe/UKfHsanqoIqhlQxj3xtPRSNNgLdXrt5ka7c152HfibZ05P06KXHj0Lt8zfEX+S6GVsLtpW+tvmujEvZFikWogbKO2J4d8HWPwVXruHquH+bTTx2+3E9o9SLLuXU5yzgX2N/AhCwqlMaeTh6rrb9Ia0PBdlOlw7sU6ILJUQ52lpJsew2PkVCVOGydIyON7nuffK2wvcW5+Z9FytxiYfXPmAfyUlgNSZaiJ0ti0F19cgytaXOu4A2vtdZ5Hqdl5W3ojGVL+kylut7WGpB20ufzUkKd7etYi3MX08eYUnxLhDaYRyxtIkFPBPLm1/iVD3HblZpAsOxQD8blPMN8GhThzU1splwzssmF4w4EZuuO0b+Xat14Jc17szTdscEUY8XDO/wA7r51wmYyXJHWGodawfr7rgNPMa6L6E9lDQaLpsuXpZXut2ZTksDzALSLq2Xla2ujK4lcvTe0XRERYG4REQBERAEREAWe+22nldRRPiYX9HUxyOaGl1wA62YD6tyL+K0JFaa5WmQ1taME9iOASS1762RhDIQ6xIsDLLcWF+xpd4Zgt7X8DQNgv6pu+Z7ImdLRn1V7IqF04naZGnpOkczNma67szhrqAVoDW2Fhsv6izSSL7C/hF91/UUkEbW8P0kv82mhf+KNpPrZQdX7M8Lk3pGt/A58fwY4BW5FKbRGkZzUexfDHe6JmeEpP911l+J8OR0uIVNPTueWMDIQXEZi+cRhwFrf5ttl9LL5y48rpafFakxNY5rZ4pzmbezmZZNSCDlOVt/AahZ5qpzrZfGknstbOEG4pUYgzpnRxxywQghodf6Owty6kaA6rrp/YbSt96pld4NaP1Vi9k2HyR0XSyi0lRI+c/wCs3F/n4FXVTjbmSLSbKTh/svoI7XbJJbYOkIHbs23orjTU7Y2hjGhrWizWtFgAOQAXqiu22RoIiKAEREAREQBERAEREAREQBERAEREAREQBctXh0Uv82Jj/wATQ75hdSID8xsDQGgAACwA0AA2AX6REAREQBERAEREAREQBERAEREAREQBERAEREAREQBERAEREAREQBERAEREAREQBERAEREAREQBERAEREAREQBERAEREAREQBERAEREAREQBERAEREAREQBERAEREAREQBERAEREAREQBERAf/Z;clipPath=inset(11.42% 0.26% 12.55% 0%);aspect=fixed;" parent="1" vertex="1">
          <mxGeometry x="-210.6099999999998" y="635" width="143.92857142857144" height="155" as="geometry" />
        </mxCell>
        <mxCell id="kS7yauVVDzb5seXYYpU2-15" value="" style="shape=image;verticalLabelPosition=bottom;labelBackgroundColor=default;verticalAlign=top;imageAspect=0;image=data:image/jpeg,/9j/4AAQSkZJRgABAQEAYABgAAD/2wBDAAMCAgMCAgMDAwMEAwMEBQgFBQQEBQoHBwYIDAoMDAsKCwsNDhIQDQ4RDgsLEBYQERMUFRUVDA8XGBYUGBIUFRT/2wBDAQMEBAUEBQkFBQkUDQsNFBQUFBQUFBQUFBQUFBQUFBQUFBQUFBQUFBQUFBQUFBQUFBQUFBQUFBQUFBQUFBQUFBT/wAARCACdAPADASIAAhEBAxEB/8QAHwAAAQUBAQEBAQEAAAAAAAAAAAECAwQFBgcICQoL/8QAtRAAAgEDAwIEAwUFBAQAAAF9AQIDAAQRBRIhMUEGE1FhByJxFDKBkaEII0KxwRVS0fAkM2JyggkKFhcYGRolJicoKSo0NTY3ODk6Q0RFRkdISUpTVFVWV1hZWmNkZWZnaGlqc3R1dnd4eXqDhIWGh4iJipKTlJWWl5iZmqKjpKWmp6ipqrKztLW2t7i5usLDxMXGx8jJytLT1NXW19jZ2uHi4+Tl5ufo6erx8vP09fb3+Pn6/8QAHwEAAwEBAQEBAQEBAQAAAAAAAAECAwQFBgcICQoL/8QAtREAAgECBAQDBAcFBAQAAQJ3AAECAxEEBSExBhJBUQdhcRMiMoEIFEKRobHBCSMzUvAVYnLRChYkNOEl8RcYGRomJygpKjU2Nzg5OkNERUZHSElKU1RVVldYWVpjZGVmZ2hpanN0dXZ3eHl6goOEhYaHiImKkpOUlZaXmJmaoqOkpaanqKmqsrO0tba3uLm6wsPExcbHyMnK0tPU1dbX2Nna4uPk5ebn6Onq8vP09fb3+Pn6/9oADAMBAAIRAxEAPwD9U6KKKACiiigAooooAKKKKACiiigAooooAKKKzb7VbPTJ4Ibu7hgmupPKtoZZFQzv97auT8zfSgDSooooAKKKKACiiigAooooAKKKKACiiigAooooAKKKKACiiigAooooAKKKKACiimM9AD6K+fviz+3P8GPg/wCfBqXjC11bWYhzpGg/6bc7/wC42z93G3/XRlr4k+Ln/BW7xrrnn2nw48K6f4Us+c6lrH+m3v8AvLEu2ONv97zKAP1O1DUrTS7aa7vLyKytIv8AWTTOscaf7zN0r5T+MH/BTj4J/Cv7RZ6dq8vjjWYTt+y+HI/Nt93+1ctth/75Zq/I74nfGLx58YLjzvG3i/WvFf73zfJvLlvs0b/3o7ZdsMf/AAFa4N46APtP4xf8FZPix448+z8E6bp/w+03yv8AXRD+0b3/AHvNkVY1/wCAx/L/AHq+Rbn4ueNrrxtpfjS88Varq3ivS7lLmx1jUryS5kjdW3LtaRvlXd/D92sB46heOgD+jv4M/FDTvjN8K/C/jbSMCz1qyiuvJzzA7Y8yM+6tuX/gNdxX5lf8EdvjV9p0/wAXfCfUZM/ZZP7f0fzZGz5b7Y7mONW+6qv5cny/xTSV+mtABRRRQAUUUUAFFFFABRRRQAUUUUAFFFFABRRRQAUUUUAFFFfP/wC19+0le/s0/D/S9d0/QIddu9U1L+yYvOuGjjt38iabc21dzfLA3y/L/vUAfQFeTfFb9pr4afBf9z4r8X2Gn333/wCzYS1xe4/64x7mH+8w21+V/wATP20vjL8U/tEN14vl0jTJv+YboMf2KL/d8xf3x/4FI1eDeRQB+gPxS/4KyFbWeD4ceDCZfm/4mXimTEY/2vs8LfN/39X/AHa+M/i5+0x8Tfjh58Pi/wAX6hfaZN10ez/0ey/3fJj+Vv8Age6uEeOqzx1BZm+TULx1vaD4d1Lxdq8GkaFpt1rusS/6rTtNt2uLmT/a8uP5tv8AtV9L/Dv/AIJp/F/xdb/bPEn9l/D7Roj+9m124WW52c/MsMW5dvH/AC0kjoA+QXjqzoPhXWPGGofY9B0fUNdvYv8AWw6bZSXMkf8AtMsattWvt8+C/wBjT9n1km17xHqvxz16P92dO0nbJZB1+VmURtHDt/2ZZ5Kvx/tkfFn4heF9V8Lfs+fBqw8HeDbS2lilm07TvtH2dNnzM0n7u1hk2/wt5jf71WQfnt5dQvHV+GGH7PB5P+p8v91UM0dAHW/Af4r3nwF+M3hfx1aEj+xrxZLqIdZ7Zv3dzH/wKNm/4Ftr+iXTNRtNU0+2vLOWO4tLiJZYpouY3Rl3Kw9iK/mkeOv0y/YF/bu0LwR8F4PAnjSLVZ59AuHhsLu0iSQCwb5ohJukVsq3mRrtX7qx1EpcgH6cUV8wyf8ABQn4QWupT2c15qsEMW3N59gPlSfL/CFbzP8Ax2vTPAf7Svwy+JdwLTw74wsL+7kj83yJd0Euz12yKtLmiB6lRRRWgBRSUtABRRRQAUUUUAFFFFABRRRQAUUUUAFfHH/BVXw/Lqn7JV/q8MPnTeHtZsNVGf4P3vkMw/4DOw/3S1fY9YHjXwfpvxA8H634a1eET6Zq1lLY3MXqkiMrfo1AH4EWc0Op6fBeQ/6mWNJaHjqMeEdS+Ffjfxh8ONd41Pw3qMtt52P9Ym/5ZF/2W+Vv92RauvHUFma8dVrr/j3rVeOqF/H/AKPP/wBc3oA/SL43/FX/AIYU/Zq+HPhz4c6ZaW+v+JLJpZNYmgWT/VRRNPO3/PSZmnXbu+VV3fLtTbXJaf8AsGfGz9o42es/GT4pgabNGssVlDc/2hJ/e+WFPLtYW/2o91fXfxI/Z78L/tCfBHw74c8UQ3EJtbSC4sdQtH8u4s5vI2B1J+U/KxVlb5Wz06Y+HviZ8MvjL/wT5t4dc8IfFK1vvCc1xFFHpl6+Xk+fdtawk3Jt/haSBlf/AHfvVZB3H7T37Dvwt/Z7/ZN8Y67o+m3WreKrUafHFr2sXDSSx+Zf28b+XGu2OP5Xb7q969l/Yvs/7O/4J76GP+oVrMv/AH1dXbf+zVzn7YHxI/4Wp/wTjuPF/wBjNj/b0Wi3Uln2jd7+1Zk3d13bvmrzTw3+1/4G+C/7Cfh3wrpmsWuq+PLvQLiyj0izPmfY55mk/eXLL8se3zN21vmagD8zrOH/AIl8H/XNKHjq/wCTULx1JZmvHXe/ADxNoPhD4weHLvxVptrf+GZpPsN/Def6uOGT5fP3K3y+W22Td/dVq4546rTR1nUpxrRlGQRlyS5z3v442+naH8X/ABhpvhyL7DoGn6tcWNtCJGk8tI2aP5Wb7y7l/wDHq7D9mD4JTfHvWNcs5tel0KDRY7eTzobdbnzHkZlVWVmX5flavn7TdVm1O386abz73/ntNJX3V/wTm1LR9M8L+OPtmsafYand6jbxxWc0ixySIqs25V3bmX5mX/gNfN5nLEYPASdH4tEdWDp0q2K1LEf7I/xT0O4/4o/4kaX/AA+Uf9L06T5vu7mi8yvny8+PXxO8IeIL6zh8ba1BqdreyxXU1nqs/lyTLKyt95vmX/er9Orlv7D0+fWLyCXyNPjlvZf+maRxNJu/8d21+L/2ua6/fS/67/lrN/z0f+LdXk8N5hi8d7X2535xQoUeX2J9s/Cv9ub444nu7HR7r4jaNFsiuiukyXH2P5Wb70G1tzf7W77tep6d/wAFQ/7Lv4LLxT4EOkzSdfOvJLaT8I5Yv/Zq5X/gnzY/2b8HtVvB5v8AxMNall/c/wBxYI1/76+9/wB9V9F+PtSOmeBvEWo6j+/htdJvbmXzo18uPbBJJuZW+7/Cv8X/AMVyYvimrh8dLBxpf19xdHLI/V4z5jyXSf8AgqRZLPjV/Acwg+X99pupLL/460a/+hV7b8OP24PhZ8Q7VgdZm8OXva11iMRtIuF+dWRmTGW2/e3cV+Mvmf6P5PnefX2f+zJ+y54P+KnwOsfFWpWd1b+JtQubqOLUrO9m/dwqzRqvl7vL+8v3tu6vrcdmlLLaP1mt8J4+Gw9XET5D9JdJ+KngrXLeebTvFei38UP+tMGoxP5f+983y1f8P+NtA8Wp5mha9pWsDH/MOvI7gf8AjrV+bvxU/ZD0Hwh8PvFPirR/GGvifRdNlvorO8jhkikdV+WP7qsu5tv8TV13/BL6xm1Pxd4x1ibraabb2w/3Z5Wb/wBtq3y/MaWYQ56JeJw8sLPkmfonRRRXrnKFFFFABRRRQAUUUUAflD/wVs+Ef/CD/FXwd8ZNOgjGm6zt0TWTHH/y8xqzRSN/eZoAy/8AbstfLLx1+0P7WHwUh/aF+AXi/wAFHyhe3lt5thNL/wAs7yL95A3+yN6qrf7LNX4ffDnUJrjQTZ3kMkN7p8n2aWKX/WR7fu7lb/vn/gNAG08dVrmD7Vb+TWq8dVnjqCz6D8ff8FAfi/4u0/8As3R9StfBmmRRrbeTo9v/AKTsVdvzTSbmVv8Aai2181axfXmuahPealeXWranL/rby8uGuZJP96RvmarLx0Q6bean5/2Ozln8qPzZfJjaTy0/vNt+6tAGx4z+Lfjbxzo9jo+veJNQn0bT7aK2sNHhk8uyt4Y1VYlW2j2x/LtX5mXd8v3q4Z469g8B/BOz8TeF7HxJ4k8baf4E0bUNS/sjS5ryynvZLy5VVZvlh/1cK+Yu6Rm2/NXr/hT9lzwrr3wn8YeGryWPQvjL4b8T/wBiS6lNqDyWVw8m77JEys22OK5bdCsm3d5ix/3ttAHy94b+GfiTxfcaHDZ6bLBZa1qUWkWGpXkbW1lJeSfdg89l27v9mvV1/Zt+H1r4o/4QPXvjZaWHj/7T/Zvk2fh65k0mzvN3l/ZpruRl/i+Xcq7V/ir2LwRpd34k/ZXsfg1eWc2leLbq58Rajowl/d3NvrOlXFrOtuv92SSOe4X/AIDXG/GX4H6l+0tPofxg0GbRdB8M+NNFhufEevaxqMdlZaXqcf8Aot2rbm3NuaPcqqvzfN/eoA8/+Ovwk/sH4Q+Dtd/sK10PX/Dmo3XgXxjZ2cfH2+HdLbXZ/vNNCzN5n8WI6+eX6V9f/Eb9qDwpcfFj4w+f4bPxJ+H/AIqj0qOOzmvZdP8Atl5YLCsd6zKvmRq3lybtvzMvl7q8B+KHxQvPiXcaVD/YPhvwppmlebHYaP4b0pbKOPzGVmZm+aSVm2r8zM3/AAHc1WBwmmyfZrj/AK61tzeTdf66H/yHWC8dbCSfarfzv+W1RuY1NDYTXNS0zT54bPUtQghljaKWGzvZI/MRvvKyq3zL/DtrHSSmJJNRb/8AHxXJCCp7ESq857x8Jf2tvG3wX8LwaFo8Oi3+jRSS3Pk6lZtJJG8n3tskbK23/wCKrtviD+35rHxB+G/iLwrd+CdPsJtatmtpdSh1Fv3e5vm/dtH825fl+9/FXy7cz/6P+5qn++rypZVg61b23svfOyOMrwhycxpQx/6PX6C/s2/tLfCzwz8HvB3hvUfF8Wlapp9s/wBq/tK3kjj3szM22Tbtb7396vzuSf8A0eu81X4K/ELQ/wB9eeCfEEEP+t87+zpJI/m/2lVlrHOMDhsfShRxMuU0wdethp88I8x9yftRfGDwfqX7O/iqz8N+MNA13U9Q+xWUUOm6jBcS7GnWST5Vbdt2q3/fVdh/wSu0/Hw28Yaljd52pRW3mevlxbv/AGr+tfl3NazaZqHk3lnLYzf63yZo/Lk/75av1+/4Jt+H/wCxf2Z7G776pqV3df8AfLLD/wC0a6Mpy+ngKXJTkGMxM8TV55n1VRRRX0JyhRRRQAUUUUAFFFFABX4qft4fCr/hR/7Y17qVnCIPDPjmP+1osJsjSdn2zr/tN5/7z/duVr9q6+Pv+CnHwRX4sfs1X+s2cRbWfBkn9tw4T55LVV23cfrt8s+Z/vQrQB+Zbx1fs/Besan4X1zxJZ2fn6NoslvHf3nmL/o7zMyx7l3bvmZWWsfw9ff25o8E3/Lb/lr/AL9e1/sw6hZn4gXvgnWJvs+geOdOl8P3X/TOaT5rSf8A3lmVdv8A10aoLOW+Dvw2034mW/jfR/8ASv8AhLLXRZdS0HyZP3dxNbMsk8DL/EzR7tv+61e3eFvihplv4P8AAH/CIfHHT/hRpmk6daf2poP9jXMklxqa/wDHzPN5S/6VHI395tu3+Fa4Dwb8L/iP8BfEGl/EbWNHi8Nw+G71ZPJ1e9jtpL/a3lzwWsbN5ku5XkXdt2srfeqLVvi14J8M6x4j0Gz8B6L468Df2tcaloM2pRz2VzZ+Zt/d7otsjRfdXy2/urQBej+FHjbTPihpWpeD/EnhvxnPdWVx4u8OedEtvbahM0rRyra2E6+XHcxyfN5fy7fJVv4dq9L45+IWjeD7+DTPiFZWkHibxf4U1LTfiDF4cjhl8u98/wA7S7uSOJvL+2rt3N83/LTc38NfP3xO+IWpfFbWILzWIdPghtbZLGw0fTbf7NZafbLu2wQx/wAK/M395vmrjPJoA9T8WftTeNvEmn/Dm8l+y2PizwhczXUXiSI5udQmZYY1kmVl2s3lwxqzNu8zb81eNaldTan/AMfk3n/vHl/6ZxvI25mVfuru/wBmrjx1WeOgDNeOqzx1pPHU0Ol/aaAOeeOrlnBN9n/1Mvk/89q7DTdDhtf+WNWfElj/AMU/P/0y2f8AoVBEvhODmkp/lzVDJ/x8Cn/aPtVYyOWJMlTX/k/Z/wBzUPmVWeOb7RSkOJq+HdN/tzWLHTYf+Xq5itv+/jKv/s1ftHNJ9l88Q/8ALKPy/J8z/ZXb97+GvxT0TUrzTNYsdSs5vIvbW5S5im/55urKy/e/2lr6Z0f/AIKFfFPTP+Pyz0DVv3nm/vtOkjkk/wCBRSL/AOg18RxJlWLzOVKVG3un0eU4ulhoy5z1r/go/ff8UP8ADrTf+X261q4uYvJ/1kaR221l3L/DumWvsn9iPQ20H9lj4ewedJN59i98pl67LieSdf8Ax2UV+TXx+/aG1j9oS/8ADt3rGm2uhTaBb3Ecf2OSSSOTzGVmba33f9Wq1+2Pwv8ADsXhH4b+FdAh/wBVpWlWtjH9IoVj/wDZa9vh/B1cDgoUa3xa/mcmOrUq1fmgdXS0UV9McAUUUUAFFFFABRRRQAVVuLeC8tZYZolmjkGx45B972NWqKAPwr+J3wnm+Anxw8Y/D397/Zlrc+Zpc03/AC0tmXzIP9792yqzf3o2rNhkmtbiCaGbyJ4pElim/wCebr8ystfd3/BUT4P/AGrR/DfxT06HN9pMiaRqBHT7NIzNCzf7srMv/bxXwpHUFhr2sal4m1CfUtY1K61bU5f9beXlw1zJJ/vM3zVlPHVm/uodMt/OvJooIf8AntNJ5dcfqvxK0e1/c2fnX83/AEx/1f8A301AHQvHVC8nhtf9dNFBXE3njHWNS/1P+gQ/9Mf/AIpqhtrX7V++mqyDoZvEEP8Ayxh8+mJJNdVq+BvAGveOdY/s3w3o+oa7exfvZYdNt2k8tP70m3/Vr8v3mrpPh/8AC/xJ8Q/FH/CN+G9N/tbWfsz3Pk+Ysflov3mZmbav3l/76WsKs4UYc8wOYs7GtLzLPTP9dNXba9+zf8YND/13gPWv+3O3a5/9F7q8i1Kxm0y4nhvIZYJov3csM0flyRuv8LK3zbv96uWljcPW/gy5gnCcDYufGn/PnZ/9/v8A4msS81y8uv8AXTf9sf8A7Gqbyf8AfmrLxzVtzyMdSh/y80N/0xq+8n2Wqc0n2q4qfeAek9MeSrMMf+j+dVP/AJ70e6B7T+yj8F9H+OXxAvtB1i8u7GyhsnufOs5Fjk37lX+JW+X5mr6J1/8A4JtwN/yAPHksAl/5Y6xp/wDq3+9t3Lt/9Bryz9hPx14P+HvxA1y88U69a+GoZdJa2tZrz/VyOzr/ABbflb5VavvvSfGHhbxL5H9j+JNF1b94sv8AxLdRjk8xNvy7drbq/O88x+OwmJ/cy9w+vy/DYfEUPf8AiPy8174O3ng/48f8Kx1Kb7defbbKx+2WcbeXJ9p8vym/vL/rK/edVx9K/IK1jHjf/gpsIsi4htfFdlHH7fZIIun+75Df98tX6/DrivvsvqTrUITqfFyx/I+fxFOFOrLkJKKKK9M5gooooAKKKKACiiigAooooA5X4keBbD4meAdc8Lal/wAeOq2b2skuOU3Kdsi/7Sttb/gNfgn8bL7xJ8M/EH/CN/8AHhe2stxbXX7v9550bbW27v4a/oWr81P+CgH7C/jn40fHTQ9e+HOkR3sGtWUv9qz3lylvbWU0fkorMzfN+8Xb8qqzbo2b+9QB+W7yXmp3HnXk0s83/PaaTzK1dK0qa61CCzhhlnvbqTy4oYY/Mkkf+6qr8zNX6cfBj/gj/pmliyvPid4wm1acfvJdH8Nx/Zrbf/da5b95Iv8AurG1fb/wr/Z++HPwP08WvgnwhpegjHN1FEZLmT/rpcSFpH/4ExoA/Jj4Of8ABOX4y/Ezybu80KHwZpsuz/S/Em63l2fxbbZVaTd/syrH/vV9t/Cb/gl38MfA6wz+LrvUfHWpjbnz5GsrLeP4lhibd/wGSR6+06KAPMfH9ppHwg+BPir/AIRzSbHQ9N0rRbqS1stNt0t4o3WJtiqqjaPmxX56fsGWv2r4oeP9S8n/AJB+kxW3/f6X7v8AvfuVr7Q/b58cQ/Dz9lTxvq0sX2gYtbcQeZ5fmeZdQqV3fw/KWr8avDf7TXiTwLr39peENX1TwpNNG8V15PlyR3H/ADyVlZdrbfm/h/iryMzws8bhZUYG2Hn7GvGc/hP2ls5PsuoQQw/uP+Wn/APlVtrf722vyM/aN1z/AIS/44eP9Y87z/N166j/AOARytHF/wCOqtdPo/8AwUU+Kem3EE3/AAkmlX/7z/mJaMv95W+9Cq15Rf8A/E0uJ7yHUtPv/wB55kvk3sfmb2b5m8tm3f8AjtfMZFk+Ky2Up1uU9PM8XSxEY8h9J/sD/CXQfiBq/jm98SaPp+vWVpFb20UOpR+ZHHNJK3zKv/bP73+01fUN5+xr8FNduP8AkVPsE027/kG3tzH/ABf8s18zb/F/u18n/ss/tMaD+zlpuuab4j0LWp4dauftMWpab5cnyRptaHazfe3Mrbl/56f99fSOlft8fBoTTTf2xqFje/Z3jiivNHn8v+8qrtVl/wBYq/8AfVeNm9PNf7QlOjGXJ/dOzBfVZYX3+XmPzk8YabDpnijXLOz/AOPK1vZYrXzv7isyru2/xba9X/Z5/ZXvPj34P8R6lpuvRaTPotykQhvLdpI5Ny7v9Yv3W/2drf8Aj3y+QLHN9ng87/XfL5tfoT/wTz0mG3+A+qTQnzpr/W5fNhhk/eR7Ylj+ZV+7/er6nN8XWwGX88Pj0PGwVCliMVyS+E+efEP/AAT9+J2h6fPND/Yurf8ATGz1H95/wFZFX5q+aXg+y/8Afv8Azur9qPGl9N4Z8H+I9Yu/3Nnp+lXt9/q1+5HA0m35v9pd1fjBdR/6ib/pmlcXDuZYjHwl9ZOjM8NSw3LyFmw8OaxdafPqUOm6hPpkX+tvIbeSSOP5d21pNu37vzVC8EP/ADxr9I/2B4P7M/Z/sf8AVf6VqV7L++/ublX/AIF827+9XoPx38I+Ff8AhS/j68vPCuizzafot1cxTfYoI5fO8ptskcir8vzf+g1z1eIVHEyw3J9rlNo5a1RjWhI+P/8Agm54f/t39qbw7N+8/wCJVY3upS56f6ryV/8ASlf++a/Y2vy7/wCCUOjfavit4q1fysfZdB+y/wDfyeFl/wDRFfqJX30PgPDiFFFFalBRRRQAUUUUAFFFFABRRRQAUUUUAFFFFABRRRQB8H/8FfNS1Mfs4aLpGm2lzcRX+vxSXxghaTy4IYpZNzbfur5nl/er8aoZIf8AntFX9Qtch4o+EvgrxwP+Kk8IaBr5/wColpUFz/6MVqAP5u4YKuQwV+8Xir9gH9n3xdzefDDRbI/9QfzNO/8ASZo68p13/gkn8GdU50/U/F2g/wDXnqMUn/o+GRv/AB6gD8hba1rVtvO+0ed/y2i/e1+jHiL/AII8lZs+G/in5MP/ADx1bRvNk/7+RzL/AOg1594i/wCCU3xa0P8A5A+seFddh/6+J7aX/vlo2X/x6gD5Ajvprr/XQxed/wA9vLWOT/x3b8tENjNa6xPqVneXWk3ksaR+dZyNH93+6ytu+avetR/YT+O+hiYzfDi6ngj/AOW1neWVx5n+0qpNu/8AHa4fVPhD428M/wDIY8E+JdJEX/P5pVzH/wCPMu2s3BPcIfu/fgY9v448eGwvtOm8eeJJ9M1C2e2urO81Ga4juIWTayssjfdrHufDk37jyZov+uPzfu//AGWtKGP/AJY/8tv+eNaUMFRHDwh8BpUlOt8cj074LftleNfgv4XHhWbwfYa7o2nySyWs3mSW9z+8bzG3Mu5W+bd/DXZfEr9u3/hZnwv8ReD4PAeoaTqetW32b7ZNeLJHH+9jZm8varfd3L/vNXhcMFXIY68mWR4D6x9Z5PfOv69X9l7E+3/+CT+gfZfC/j7Vz/y2urSx/wC/SSP/AO1q++6+Yf8Agnv4N/4Rv9n+DUT/AK3W9RuL3/gC7bdf/RG7/gVfT1e6ebEKKKKCwooooAKKKKACiiigAooooAKKKKACiiigAooooAKKKKACiiigAooooAKKKKAMDxB4H8O+MLfydf0DS9di/wCeWpWcdwPydTXnOsfsf/BrXIfKn+Huk26/9Q2NrL/0Uy17LRQB8s6t/wAE6fhNqjH7JJ4g0cf887TUVk/9HJJXB69/wTKssZ0Lx5dWw/546np6XP8A49G0f/oNfcVFAHGfCXwSPhr8N/DnhYTfaDpVlHbSTBNgkfHzMB2y2a7OiigAooooAKKKKAP/2Q==;aspect=fixed;clipPath=inset(6.69% 12.08% 3.5% 8.33%);" parent="1" vertex="1">
          <mxGeometry x="-243.0099999999998" y="381" width="206.92" height="152.75" as="geometry" />
        </mxCell>
        <mxCell id="kS7yauVVDzb5seXYYpU2-16" value="" style="shape=image;verticalLabelPosition=bottom;labelBackgroundColor=default;verticalAlign=top;imageAspect=0;image=data:image/jpeg,/9j/4AAQSkZJRgABAQAAAQABAAD/2wCEAAkGBxAQEhUSERESFhARFRAREhIRERcQExUQFhIWFxUYExgYHSggGh4lGxYWIT0jJSkrLi8wFx8zODMsNygtLjcBCgoKDg0OGhAQFysdICItLS0tLS0tLS0tLS0tLS0tLSstLS0tNzctLS0tNy0tLS0tNzcrLS0rLTctKysrLS0tK//AABEIAOEA4QMBIgACEQEDEQH/xAAcAAEAAQUBAQAAAAAAAAAAAAAABAECAwUHBgj/xAA4EAACAQIEAwUFBwQDAQAAAAAAAQIDEQQSITEFQVEGEyJhgTJScZGxBxQjM0JiwUOh0fBy4fEk/8QAFwEBAQEBAAAAAAAAAAAAAAAAAAECA//EAB4RAQEAAwEAAgMAAAAAAAAAAAABAhExIUFREjJh/9oADAMBAAIRAxEAPwDuIAAAAAAAAAAAAAAAAAAAAAAAAAAAAAAAAAAAAAAAAAAAAAAAABQCpS5ouN9qcPhbxb7yqv6dPVp/ve0fXXyPA8a7RYrF3jKWSk0/wqd1FrT25by+nkZuUWY2utp32KnOfs4493UlgKsvC8zwcn7q1lQv1iruP7U1+k6MiylmgAFQAAAAAAAAAAAAAAAAAAAAAAAAAAAoyrOfcZ7X1Ks8RRw77v7tU7qo/wCo178b6KLakk1d+F6olulk29bxfj2HwulWfjtdU4+Ko1/x5LzdkeE4z2txFe8YPuafSDvNr90+XwVvizzmIr5d7uUntfNJyeure/PVkSpipN5VGeVxV3BPvacryUm4tWdmovfXMrJ3OdytdJjIlxSW3rblfXU1ksW6jVpOGVzUoZZVE55rKzhJNtZZeF9b8jLWlNPN7MoRefLacqkb2TjG+ivrmltd6PUxUsTFxzQqZY5oLLfSWeraU27eKMk7pxSJFSqWacU75aid4zg7ShUjK9OaV3llonZ36M612L7Q/faPjSWJotU68FtmtdTj+2a1XTVbxZxyC7rI8qyRjKPgi+8lTjHRzhZJZUr3u+dl4rG04fxGpg60MVSTk4LLUpp277DvWUNf1L2o35q20malZym3cARuHY2nXpwq0pKVOpFSjJc0/wCeRJOjmAAAAAAAAAAAAAAAAAAAAAAAAAAAcQ7UYOtg8ZOplcpxlVnlvZV8LUm5SjfrzXSUPM7eee7Z8B+90bwX49K8qb6+9Bvo/qkSrK5li8PTrQhUhL8OpBTpVFvZu6f/ACTumuTTTNdPNG/K9RQnNtxqN3jHxZV4VJRhbLqtHzZn4JXVKo8PUdqOIm3RzOyo4x7wd9FGpb0nbqSOJ4J+KUU+9S8KvZ5k76KXhU1qk2tDlfHbrXPEx1nJpOknOEsslOUIxbqJRqWnJW06O65otU+6atFQUIRi1XrJOKTfdxz3krbpZecdeRbPC1KlScoTmkoRhmqKpQbbzuKk1ZydNuT2s1USequYa+IdPw0k+8i1Ty1ZxTSeXu2oudlBykrvVqxUZcPHLQipKNOlKnFSquynKMqajBzja+duSbb0vfqSKdW0pRbeWKU7vVOD2nm0ildNZVtZ33IndZ7ypxa72NaM5uomlV7+93JO8lFxko2vo0tCbHCU09ILR3jdueVvVuOZu2qv/cUek7Ccf+51u4qNLCYmfgbelLFSlb0hUbW209f1tnV0fPnEcTTScJ+LMrOC3s1bV8vqda+zXi9TF4GEqss1WnKVGU+cstsspfucWrvm7s3jXPKPVAA0yAAAAAAAAAAAAAAAAAAAAAAAAEbG18kW+hJI+Mo54tGcuLj1xTtLkrVat42ztuaWl3deKPR31+Opn4ZjniKTjUknisPljU5OpS2p111ulll+5eZsu1vBnTk5xXM8p3s6U4V6SvUpZrQbsqlN/mUZvpJK1+Ts+RiTc06XytljqVR2yTytNuVtXJbOKurR0vq07O3mWTo3d5SlJJNKMlHKrpKWlru9ud92SK+MounGup2oVFmi56W1acZfuTVmjyHFe1V7xoK375LV7+zHl8X8jMWvQYzHUqCTqSUfditW0vdjz+h5Ti3aWpO6pLJGz2d5y66/p9PmWdmuEy4ji40qlRqVW/ilKzlLezb8r7dORvPtB7DVOFuNSPjw1W0VNf06tr5JX1s7Np/FdDevtm1i4T2RxcsG8crTo/mNR1tTa8Uld3k463XkzsP2U8LlQwWeW+In3yX7MsYxbXVqN/VHjPsS7SSjmwlVPu5yboyfKo1eUfg7fP4nW6EO78K9jaHkvd+C5G+Mb2lgAqAAAAAAAAAAAAAAAAAAAAAAAABRlQBqON8OVWDVjkvG+HujNprwvn0fU7fKNzyvazgaqwbSVzlfK6Y3c0+e+NQ/GqRWyadr6KThHM1yuzo32c9iOHcQwUnLN3/sVXG2aFTdSTav6baM8h2l4HUjOUo76Xi+dlbT0RL+zfG4nAYjvb/g1Eo1qb1co3uml1WprH0yjzvGcFieHYt0ZqUcRQmnCUb2kr3p1KeusZJX8tU9Uzv/AALF0uN8PdLFQ8U4RhiKeianvGcbbO6TT5NFe2vZ2nj6UcRRSliKcL0pxf5lGVpOF9td15rzZ43sziKuGqxqU9b6Sjspxa2f1v5F54zraFPgc8DXdL2ZU2nCUdHKN/BOPT+Gn0OpcC4p96p5Zq1aKi27LK3ynD1W3J+jLOLYCGNp06sV4optL9TT9qD801/YjcMw3dtK6UlrGXpz8mtP/ENrrcempyuvPmvMvIkK6tntbZTV75bf4v8AIlJljCoAKAAAAAAAAAAAAAAAAAAAAAAAABZUgmrMvBLB43tL2djNOUY6ni3wOSl7L+R2ScE9GQ58NpvkY/Guszny8z2Oxs6UVRn+Xe0W37Df8N/K5Nx/AqcZtwVlK8o22Ut5L+fVkjFcOVN3itHdNdUyVg5OcXTk9VZ05c8qtbM+bT+at1ZOl89iNw2r3W/s6Ka5LpP+H5W6Euth3menh0cXfnreNv7+rLalLmlqnaS8/Uvwk7/hy23pvnpvH4r6fAS7L9xbCeV5uitUju3HlJLqvo30RMpyUWo8mvBvaySur/3/APCO+btaUXZra65NeTFB/purO7pO18rtrH01a8tORqVmz5bAGKhVzeTTs15/97+plNsAAAAAAAAAAAAAAAAAAAAAAAAAAAAACypBNGrr0nB6O2t4tcnf6PY25ir0lJGMsfmNY5a8RnVzJTitnaouaVtduavf4EfE0+adk7NSXJ8mhSqulLXb9WnL3vT6fAkqla8GvA9YW5dUzPfWv1rCnmtVWk4JwqRvZNaN/K10+j8yteFv+L5rRp8mvUwNulO6T6Ne9C/92t16rmTbRet7wqWcbK6u1e+nJ7jpxShVc7O6UoO1SNt1bRr6r1RMi7mqlmpSuld7W6xvt8d2vlzNhSmt0/DKzT5a9DUrNjMADbIAAAAAAAAAAAAAAAAAAAAAAAAAAAAAiY3D5ldbrUw4OspLu5aNbctuXp/vM2DNZxCg4vPHT4boxfG57NJFalnT95GDAVrPu5c75fju19X8zJQqd4lNL8SPhkuVnZtLy2d/+y3H4a6zR3XT+CfJPqpFejmVuaIWDrZH3ctpPS+lpPl6/W/Uk4LE95HpOOkla2u+nk/92MPEcMqkbrXk15cxwn1WwhK/xRea7AYzOrP8yK1W2Zdf92ZPhK+pqVmxcADSAAAAAAAAAAAAAAAAAAAAAAAAAAAFs43Vi4AaSpmw9TMvZejXWP8Alb/+m0ptWuneMtY/BrQYvDqcbfL4muwFVxboT83F7+dv7/7oc9abvs2pi6bozVSC05paJrmn9fj6mzhUUkmtYy5mOKzRcJ7/AA0au0mQMHN0KndS9ibvB/u5r1+vxKnVvEaUqMlVgtr3Wys1qn5PT5InYWULZoXcajbfRS2d77bWsZe7bUoys0/Z65bc/Pc1NL/56ndzV6VSSyN2ahJ369b2/wBZLDsb1FTHSTSt02+HIyG5WQAFAAAAAAAAAAAAAAAAAAAAAAAAAAADX8VwedZo6TjaUX5p3RsChLNrLpr8Diu9jfRVYXUltaX+H/uxkx2EjWhbnrZrdMhcSoyozVemtFpViv1Q56dTZU68MqmmssrNPk27Jer0IvPYi8KxbnFwn+dT0knz6SXkzNjcKq0HGW/J9H5EbimEkmq1L8ynuvfhziydhcRGpCM47SV1180/NbBP6g8IxUmnRqNd9S085QsrT8+j/wCzZwlc1vF8HJ2q0tK1PVfujzjLyaJWAxarQjUjopbp7prRp+aaEKlAA0gAAAAAAAAAAABQCoAAAAAAAAAAAAAAALZRurPY09Ffdqndv8iq7037lTnF+T5G6MGMwsasHCS0fo0+TXmSxZV9GnlSXTQ1s192qZv6NV+JcoVG9JfB8/Qz8OxEtadT82na75Ti/Zkv58yXWpqcXGSupJpp9GQXI1lWP3eo6i/Jqtd6uUJ7Kp8Hon6PqZMBJ05dxN+yr0pe9SXJ+cdF8mTpxUk01dPRp80BWJcazB1FRfczfhV3RlJ6OF/Zu/1R2+FvMl4LFwrQU4O8W5JO1r2k0/oWVEgAFAAAAAAAAAAAAAAAAAAAAAAAAAAAAABDx2GbtOH5sPZe11zi/J/4MmGxCqRUl6p7p80/NGc1+Nbot1km4b1YJXdkvbiuq+hBIxmG7xK2k4PNCXuzS+j1T8mzV4jtFCE6VLTvp1IwnSbeaMW2sy01V7ehn7P8TliYznklGGdqm5QcM0LLxa7635GweFp5+8yR7y2XPZZsvS5F4xcR4fSxEHTqxzQdna9ndbNNaovwODp0IKnSiowjtFbIkAukAAUAAAAAAAAAAAAAAAAAAAAAAAAAAAAAAo0VAFEioAAAAAAAAAAAAAAAAAAAAAAAAAAAAAAAAAAAAAAAAAAAAAAAAAAAAf/Z;clipPath=inset(8.67% 12.67% 4.67% 13.56%);aspect=fixed;" parent="1" vertex="1">
          <mxGeometry x="-199.39" y="141" width="127.6923076923077" height="150" as="geometry" />
        </mxCell>
        <mxCell id="kS7yauVVDzb5seXYYpU2-17" value="" style="shape=image;verticalLabelPosition=bottom;labelBackgroundColor=default;verticalAlign=top;imageAspect=0;image=data:image/jpeg,/9j/4AAQSkZJRgABAQAAAQABAAD/2wCEAAkGBxITEhUTExMWFRUXFhUXFxgWFxcXFxcYFRoWFxcVFhcYHSggGBolGxYVITEhJSkrLi4uGB8zODMtNygtLisBCgoKDg0OFxAQGi4fHR0tKy0tKy0tLTcrLS8tLS0tLS0tLS0tLSstLS0tLS0rLS0tLS0tKystLSstLS0tLSsrK//AABEIAM0A9gMBIgACEQEDEQH/xAAcAAEAAgIDAQAAAAAAAAAAAAAABQYDBAECBwj/xAA+EAABAwIDBQQIBQQABwEAAAABAAIDBBEFITEGEkFRYSJxgZETMlKhscHR8AcjM0LhFGJykmNzgoOywvEW/8QAGgEBAQEBAQEBAAAAAAAAAAAAAAECBAUDBv/EACURAQACAgICAgICAwAAAAAAAAABAgMRBDESIUFRBTJhkRRCcf/aAAwDAQACEQMRAD8A9xREQEREBERAREQEREBEWKaoa0Xc4AdSgypdRZxUuyhY5/XRv+xy8lx/STP/AFJN0ezH83H5BXQ26rEIo/WeB01PkFqf100n6UW6Pak7I8Br7ls01BGz1Wi/M5u/2Oa2QFBHto5SO3M6/JgDQOmdyVC4rHWQEyMldIwZkHMjvGhHUK02XBaqK/ge1DZCGyWa7g7QHv5Kyqp4/s0DeSAAO1LODureR6LX2f2icz8uW9gbZ+s3v426cE0Loi6xvDgCDcHQhdlAREQEREBERAREQEREBERAREQEREBFiqJ2sF3GygJdoi94igbvOOh0A4k91kFiLwNVH1GMxg7rbvd7LBc+5YI8Je/OeUv/ALG9lnjbMqRp6ZjBZjQ0dBbz5oNEGpk5Qjr2n+QyHiVlhwqMG7ryO5vN/IaDyW8iAAiIgIiICIiAoTHsBbN2mWbINDwdbg76qbRBR8IxeSneY5AbA5tPxb92Ku1LUNkaHNNwVH4xhDJ22dk4eq4ajp1HRVejrJaSQtd3HPsuHPv6qovqLWoaxsrd5p7xxHetlRRERAREQEREBERAREQEREBEWvXy7rDzOQQVPE6t8s0rAeyBZvfz8c1FbO1PoKkFzeDmkcQT/wDFIVsBB3m6j3j68FhnibONQ2UaHnwsVr4ZXuKVr2hzTcFcqkYHjTonGOTIjLPQ24H6q6U87Xi48RxB5FZlp3RckLhAREQEREBERAREQcONgqVO4SbxcLhxJ7rm4t3CwVmx6fchdzd2R/1ZfC6qYciS4p6l9O4EG7eB6ey4K54ZiLJm3GR4jl9QqhkQQdDkQo+GtdBL2XZA5Hl/CqRL0xFoYViTZRbRwFyPmOi31GhERAREQEREBERAREQFGYy7IDvUmozGeCCII96jq6kI7bL34j5qQcuwuUEO9jJ2gHsyDR3TkfeucKxN8L9x+RGVzpbkebeRWxX0N+0z1vK/8rVk3Zm7r+y8aOOt+R6fffrtnpd6CtbKMsjxHzHMdVsledUVbJTv3X3FtDy6jm1XnDsRbKOTracD1HRZabaLkhcICIiAiLo+UDUoO6EqHxDaCKPIuF+A1J8Bmq/XbRTO9QCNvtSHPwY0/PwV0m0ptTU3cxgOm84/+Lf/AGUI0qNmxQXzcXu++A71mhw+qmANvRtPF2XjbiE0nbYnrWsBzUVTQvqH9kd7jkAO9SDqejp7ulf6Rw4eOtuRyGa1jtSZCGwxWbe3Z1Nhnw7PfmqkJamqTHUtIPqjdI0yGvu+CvrTdedw7xIe4WPLWw5X496vGDy70TemXlkpLUN1ERRRERAREQEREBERAUdiw07ipFRuK6juQQrsiska5kYuwag67t1pVtEHZj1vvVby5sghrtk/LlBuL2dxaTxWrHJJTODXX3dQR8WnmpmtoQ/MZOGh+q1I5B+lK27evxvw7wr2z0s2E4s2UC5z4Hn0twKkyF51PTSU5DmneYfqciOBU/h+0wLc7EjgTuu8zk5NNLIStSrxGOMXc4ADiTkqni+0jySA5sY5g77vDgPG6rr6svcN0OldwLrnyGgV0m1urNqr/pNLuvqt/wBjr4Aqv1uLvd+pLl7Mdx5u18rLq3A53i8rxE3r0/tGg710NbQU3H0z7d/Q5DTzVRjpo5X5QxWz1tr1JK3BgrG9qqnA6NN/foVE1G11VP2aaMtYALWGny8lhh2aqJjvVEp7gc/NSUSU+1FLTi1PGHuuO0cyToMz8LBR09ZiFVncsa61s7eXG2uqnqDZ+CK1mAnmcypRrANApsVii2UaAPSudI791zYHoOPPLjdTcNCxg7LQPAfJbhK6vKg12turPs2/8tw5O+QVep26m1lO7Lnsyf5/II1CbRERRERAREQERcEoOUUVjG0VNTD86VrTwbe7j3NGaomM/ii43bTRW/vk+IYD8Srp8MvJx4/2l6ZNM1oJcQANSTYeahZMVhn7UL2vDSWktNwDra/HULxPFcbqKg3mle/oTZo7mjJTGxOPCB/o3+o92vsuIAv3ZK6cuP8AIRfJFdah6eVzddGm+YXZZeiELgrldggxbyw1VOHaj76LLKLIzRB1w2mcey/NhvrxseOeWmqgdqsL/p2Ola30jNTukbzRzN7Zdbqy0zwD6wA6+7XLgorH8TbmBEHkggWBd4lo10JsL3t3ounmeH7V0bn/AJu+Be26Bdx6DhnprxVsj2ofukUkAjbfMuBvllc8yoSColB7Ho4hvXO5CG3PEXeALX4qyYZQgjefdxy6DjkBkPG2a0yhnUNXU5yykC+g49QDbhxUlh+ysLCC7tHjf4BTzWAaBZQFNsscUIbkBbu0XddrLkBQcBq5LVyAuxCDEVjLVnK66lAtYWUtst6j/wDmH4BREpyUvsr+m7/M/AKtJtERRRERAREQVPanbmGjcY9x8ktr2As0X0u8/K686xrb+tnuGvELD+2PW3V5z8rKa2/ga+pkDhwaRz9UaKgVEBYbHwPNWNPC5XJyzea71EMbnkm5JJOpOZPeVxdcItOAUjiWGugEBde8jd8gftzuG9+7bzWjERvN3tLi/dcX9ytO28bjIH2u3Kx4ZjLw+iky7uHji27T8LTsrjG/GGuPaA8/5VgMgXlWGVrmOBBsrDHtAfgVPT1KZdRqV2a5d2lQ+G4kHjVS4TTorbbrUtuFhpjcHvXatmswlc4IN6IOPG595UPl1mYbOIysCQbXIPA9c15niTJXSEOzHMEkEjjlYt5+qR8vZ6BosVB4hh8b3G7Ae8KxLSg4M19g5znEnmLgi+uoGmV7K40jbtBPLNdRhUbTdo3T0+mi2oI7BJlmXXdXdoXYhcEqIFcBLrpvIO5K6F66uK4Qc3XZi44LlqDpOVUcb2imoqxj4zcejG+w+q8bx15HkVYMQrWsLS82BIBJXnW2Fe2apc5pu0ANB52vf4rUQ5OZkmlPU+3uGze0MNZF6SI5jJzD6zDycPgeKlwvmzBsWmppRLC7dcOHBw9lw4he47H7Ww1zOz2JWjtxnUf3N9pvXzUmF43LjJGrepWNERR2iIiCrbW7PCcFw9YDIry+toi0uZIPvmF7wQq1tRs2ydpIFnDMEI4uVxIyx5V7eHVEBb1HArErLiOHOjJY9v8AKgammLc+HNWJeFas1nUsCuGz2MxyximqNbBrHnS2ga775eNPQhal9cGacU7+FsxbBHRkluY18OYI1HVRAeQVLbMbRAWhnOX7X3zH3zPjwKkMYwQO7TdeFsmu7vZd0WHq1mLx5VRmG4gWkG/eOmavOF4kHjXl815m4OY4g5EFS+GYiWlVqt5quGNVgDCAc7ju1UzghtCwf2A/FeeVdWS63DXpzV6wWUGGMj2beWSS+2PJ5SsFDoo+pdYuUlh3qqMrAN4qOhqFcXsubro5yJLklY3FC5dEZcrhCV1CDsl11LljfIBxsgzBy6OfYrQnxNgvnoM9PvzVaxnakNB3CB3Ek+HBa8WbXiGtt3iF3bjeGfd93URRYQJKN0zf1GPcSODoxa+XMG57rqLlmdKbnib+av2Exf09HI94sPRPGf8AcLAedvNHPbHF4ta308+WxQ1kkMjZI3Fj2m4I1/kdFhDclyAq8Ty1Pp7fsPtsysAjksyoAzbwfbVzPpwVwXzJE5wIc0kFuYIyII0IPAr13YXbsT7sFSQ2XRr9GydDyd8VmYevxeZ5arfv7+1/RcXRR6LlcELlEFf2j2fZO05Zry/FMNdESx4y9xXuChMfwNkzTlmjl5PFrljfy8IraMszGbfh3rVVyxfCnxEhwuNFW66h3M25t+H8KxLwcmK1J1LRVn2Z2kDPyKgkxnJrvZOgv9VWEK1pcOa2Odw9HxrBw8A3z/a/gR7L/qqiY3RuLXAggra2Y2mMP5U3bhOQJ1Z/H30VjxfChI0PYQR+x/Ag6NcfgVh61b1y13VWvTdFe9jpd6Gx4Ej5/NeevJa4ixBBsb81Z9i64tcWHQ5hGsXqz02gPZUZXDtFSOGOu26jasgvcOSO6emsVjeVkcsEzrIm/TG9y6F61pqgc7KNxDGo48r3KumZmITJkWCesY3Vw8wqZW7QPdk3IZ53/lRZqJpMmtLu648SbeZKumPP6XHENomN0IJVcqscklNmg+F1qQYcXus4kuv6kQ3yehN7D3qww7PSgXcWU7b8vSS9ctG8eCu4TVpQEsUz23dZrebjug+Zz713o9lDLbN8nPcFmj/uO7J8LqRq66gp3XzqJRxefSHyB3W+JUZiG2FTJk20Y4cXDuyDW+AU2+WTLix9zuVmo8KpKNu9KW34Em9u4/uN+QKrG020JqSGMBbC3gdXkaEjgBwHjrpCSOLnbz3F7ubiSfeiQ4ORzJvHjWNQ7AIAjV3a1XbgS2EYuyJhaWEkkm4Iz6G6jHkucSBa5JAHDO4AXdsI4lbDXNbovnFYiZmPl9sme9qVpPVenq34aYxPNE6Oc7xjDd137iDfJ3Mi2q5Wj+FYdaZ1iAdyxtrbevb3Iq9riWmcVfLt6GiIjrEREETjeDsmaQRmvMMYwp8LiHDs8D8ivZVGYxhTJmkEI5+Rx65Y/l4JXUdiS3TiOX8LRV12hwV8Djl2b6/VVqqpOIHePokWfn8uK2O0xLQ3VPbNbQOpzuPu6F2oOZbfl06KERXsxZbY53D0PFMIZMxssbgQR2Xjjya/4AqtUr3RSZggg6LBs/j8lK63rRO9Zp4X1I+/qLpLhsFU1kkbtdMxfuz17jmFHr4slc0br39Lls9Ub8Vwb5d2dgqNjW0JhqHHXpfLgPkrdhI9BCWOyPazIOeunPJeUbWxymV9wTe9i0Egghah98s28Y0vkGPwSN3xI0G2bd4XCgMb2rjb2WOueY0XnsGF1TzdsTh1d2R5ustygwLfdumVsj8gWQ3meL8wzJunEgKs1yXtHTdq9oXP0JOfI/ZWOKmmkO+/8tntvNh4cXHoFY8N2W9GAX7sLR+6Qh8neGjsM8SVxUbQ0MH6bTUSD97rPz6E9ho7gU2sxFY3edMOGYA5+ccJeOMs9mRjq1mpUpUU1LA29VOH/wDDb2I+eTWi7uHBVTFNq6qY+t6Mcmm7v9jp4AKEIubkknmTc+ZWZlz35tK/rG1sqdtQ0blJCGN523B7sz4quVuIzy/qSOI9kZN7rcfFa6AKOLJysl/l1a0DQLlZW07is8VOLEnNHP212NJ0C2I6bmbLIOTdVK4fszVTHJpaOZV23TFa/qsIohrRYea5hhfId1jS49AvQ8G/DlosZSX9NB5K64ds9DEAGtA7go7cf460/tOnlOFbEVMtt/sA8NT9Fd8G2ChjsXN3jzdn5cldY4WjQLIj0MfFxY+oatFQsjFmi3ci2kR0CIiAiIgIiINDFMNZM0hw1XlW0eAPgcbXLPgvZFp4jQMlaWuAKOfkceuWup7+3z/U03EeS01d9p9m3wuLmi7L+SqlRT8Rr8VH5/NhtjtqWms9HVyRHejcRzHA94WFdotVXxpaazuJ0ttLto+265j25asdcf6+fFV/FMVjkdvZl3EkFtyNL7rsxkMlKUFILXtqoXFKZrXmx8OSber/AJeWtImfaNgdBcGSHfGVwbvvmCfXcrD/APsJms3IYmxAc9O8NbYed1AELhXb5W52SY9emSsqZJTeWRz+QOg7mjILCAF2WRsOWZt8VHLNpt2wErlrCdFtsjaNAD1P0XMVM953Wgn/ABF/gixWZYGwjiVmiDeV1Y8K2JnlzcN0ddfJXbBtgIWWLhvHr92R14+Fkv3Gv+vM6TCp5TZjDY9Mla8J2AkdYyOy5BenUmFRsGTR4LeawDQI78fBx1/b2rGE7HwxaMF+ZVhho2t0C2ER2RWI9RGnAC5REUREQEREBERAREQEREBERBrV1G2RpBF15btVsw6El7B2eI5L1tYKulbI0hwuj458FctdS+fJqe+Y1WswZ2V/2o2VMTjJGOzxA+IVSlp75jUfeaPzubBbFbVkxRt3Yxfkq5iT7uyC35Kt4bu5Wt95KLkd0WYl9slovERDXEd11azrdbVPQzTGzGOd8PorVgv4fyvsZDujkFoxca9+oU9tybAFSuG7OVEvqstfi5eq4RsXDFnuC/M6qx09CxugR6GP8fH+8/083wn8OwbGU73QZBXXDdm4YgAGgeAU4AuUd1MVKfrDFHA1ugWVER9BERAREQEREBERAREQEREBERAREQEREBERBhqKdrwQV59tLsyY3F8Yu0+s0fJejrHLEHCxR8suGuWvjZ41T7N1E2QG63mdfJWbB/w+jbYyXeeunkr7HTtboFlCmnyxcPFj+Nz/ACjqLBo4wAGgW5LfZGBoF3RV1CIiAiIgIiICIiAiIgIiICIiAiIg/9k=;clipPath=inset(0% 0.41% 0.73% 0%);aspect=fixed;" parent="1" vertex="1">
          <mxGeometry x="-229.53999999999988" y="-103.00000000000011" width="181.78" height="150.99" as="geometry" />
        </mxCell>
        <mxCell id="kS7yauVVDzb5seXYYpU2-18" value="" style="shape=image;verticalLabelPosition=bottom;labelBackgroundColor=default;verticalAlign=top;imageAspect=0;image=data:image/jpeg,/9j/4AAQSkZJRgABAQEASABIAAD/2wBDAAMCAgMCAgMDAwMEAwMEBQgFBQQEBQoHBwYIDAoMDAsKCwsNDhIQDQ4RDgsLEBYQERMUFRUVDA8XGBYUGBIUFRT/2wBDAQMEBAUEBQkFBQkUDQsNFBQUFBQUFBQUFBQUFBQUFBQUFBQUFBQUFBQUFBQUFBQUFBQUFBQUFBQUFBQUFBQUFBT/wgARCAMgAyADASIAAhEBAxEB/8QAHAABAAEFAQEAAAAAAAAAAAAAAAMCBAUGBwEI/8QAGgEBAAMBAQEAAAAAAAAAAAAAAAECBAMFBv/aAAwDAQACEAMQAAAB+qQAAAAAAAAAAAAAAAAAAAAAAAAAAAAAAAAAAAAAAAAAAAAAAAAAAAAAAAAAAAAAAAAAAAAAAAAAAAAAAAAAAAAAAAAAAAAAAAAAAAAAAAAAAAAAAAAAAAAAAAAAAAAAAAAAAAAAAAAAAAAAAAAAAAAAAAAAAAAAAAAAAAAAAAAAAAAAAAAAAAAAAAAAAAAAAAAAAAAAAAAAAAAAAAAAAAAAAAAAAAAAAAAAAAAAAAAAAAAAAAAAAAAAAAAAAAAAAAAAAAAAAAAAAAAAAAAAAAAAAAAAAAAAAAAAAAAAAAAAAAAAAAAAAAAAAAAAAAAAAAAAAAAAAAAAAAAAAAAAAAAAAAAAAAAAAAAAAAAAAAAAAAAAAAAAAAAAAAAAAAAAAAAAAAAAAAAAAAAAAAAAAAAAAAAAAAAAAAAAAAAAAAAAAAAAAAAAAAAAAAAAAAAAAAAAAAAAAAAAAAAAAAAAAAAAAAAAACkqQUF0t64SvPZAAAAAAAAAAAAAAAAAAAAAAAAAAAAAAAAAAAAAAAAAAAC2LmDVdaq3fBanc1nI2lgiZ67X2UtaAymW1P1HQM7yuWXWWobTMTCwAAAAAAAAAAAAAAAAAAAAAAAAAAAAAAAAAAAAAAAYiHmlMVRJaXVutJFcwFcVcJLcQ+lM8PqPPbmBMF1FET5/ASHVLnR93vX0SAAAAAAAAAAAAAAAAAAAAAAAAAAAAAAAAAAAAAAj0/PaXRi0tvEx3HkaY7j2Mt7mW3KK5ISiaWE8uI6StXAVew+mS37mu12rugsAAAAAAAAAAAAAAAAAAAAAAAAAAAAAAAAAAAAAFBqeDqsec28V7aklFFRLQmIZPKiKtCn2eKMp9lgKntBXXVWVZTE5GY6HPicteAAAAAAAAAAAAAAAAAAAAAAAAAAAAAAAAAAAAAGOyOAhouLusXS2e9wd+XFFU5BHdRnsNEhNDHMRxT1FtPXIWt3J6izupcZJlLO4Ns2fSN3tASAAAAAAAAAAAAAAAAAAAAAAAAAAAAAAAAAAAAafuGh1nU7S9xdbI6JUT14yQztzrUpnp8TGZevC3SL1irkyMWOnlcxqySiKQhnsvE5zpPMehWrfiQAAAAAAAAAAAAAAAAAAAAAAAAAAAAAAAAAAApHNNo0+k43HZCyibOL2YigXBT7FGTV2/hcXFt4XiH2V9Njr4u6qKESqYT3xQZrZtXzJu0+p7DMXYsAAAAAAAAAAAAAAAAAAAAAAAAAAAAAAAAAAp1u7x1VjgYJK2xuPu7Is6JbZMV1aVFz5DWhLF4TeUD24pplJeWN+jLW1rOW81vKT0RSGVnsrs22nAbHDYbjXNjvASAAAAAAAAAAAAAAAAAAAAAAAAAAAAAAAAQzYWGI9msaTzrP69nk47GXmPIYvLot5ILoij9rmFVEhSp9hNJa0l3Rb3Ms1jvKpV1++wqqRGblsrWGZ3DBZ4t8vjOcdOfba/mTdtOHsrSdoz678R2AAAAAAAAAAAAAAAAAAAAAAAAAAAAAAa3smsVUWV7HSda1HpmnzOOxt1alpVXIn2OqNESqJEiWqXkF3BCSyvbSU0sF4TXcXhJ555CsmLyO02Yv8xbXUotO2/UqV0rI05Lzc2Hwm+4bdhtty47vPs5e7T4XNeb9D6LyAAAAAAAAAAAAAAAAAAAAAAAAAAAA1jZ9cqtJbdWa7uS0Toer9y1ROg1Q1FvHJQiC7hpJVcJRP76R10eld1bzTEtcNyTQSWZc3ee3iGv3OSoLOT2IYzI8yvTpc3L7rvk2zn9jiZwZTodrvuPZmZzp6ASAAAAAAAAAAAAAAAAAAAAAAAAAAAAYHPa5CG1u6qqMngrxMNebwkWsNK23Fw0rG7fZSwtGStER3NnWTUxRk1FUp7Pf5eY1DO75dGpbdZ+marqkK8Nb44yE3l3CLhHeuA6s2ser71fJt+i650fytOzbnb3Ob1AvIAAAAAAAAAAAAAAAAAAAAAAAAAAAHj3XFbfkWm22zz/p2PS77F6O2W+qbfS17e4y7K9e2SqXOMN1nAVtz22yWpxbLRa3Yp3BotpNOwXvCskdo95r0RMV/vslqa3msLik7FibXLQxuyeySmtPaJrX8+fQXzfqzYvKWO96vOynWsPuXk+w9OlgAAAAAAAAAAAAAAAAAAAAAAAAAAAHnuLRD8zXeqej5FEMkWjnuWd53vfm+nXJDBy7b/uHDb3l07nByPdInZLPExxOSx1vaHuP9iLK2ydKMdsFjfJ2S5x2ZEXtNotLmetFE9yh76qlTTVTMQfLnW+d7vP2Dp2F65h1XNRbsAAAAAAAAAAAAAAAAAAAAAAAAAAAA89tER/Nl1o3o+T5FXHtyx0yXPHRZ79v/ACHyfV2eCOqLQ469tJWlrdWFq311rdnE7zJzi3rbr0XKYYnrdPKKZjrtfJMijs+a571Cl7zMWt/DJKkrSkFdPo1+f5w0Z6ukWfSac9i2Tz3nqCZAAAAAAAAAAAAAAAAAAAAAAAAAAAeKERfPN5zLf5ftv49DDUUTEuz6f5x09D5rZsPoYrr3E7lPZbGa4xasNZ30HXni7HIWcsfBc28xTBcQHjypElzbVTGydY4fscT9E5Plm/8ADttCGaJtqaNRmNy0fj/OtWbYN2wfU7Zcz1Swy+L0gtIAAAAAAAAAAAAAAAAAAAAAAAAAAApRTw3I8U2+ct/fPT83yteRfHwdI0LNp8jjm78bK5h+g8m3hnN/rLiObToe7ahZac/WLTnGz5NOVtJoqXsbeSCSL2KXqjxF17BLatxkMfcGd3fRMhDt+jciwF67XqMOU2YodsvN9pW861hOieV6votcAAAAAAAAAAAAAAAAAAAAAAAAAAAeIcpu+B68EVtV56nl0++V2iDoOg7V53p7xz6e2x79Yr989nw6tw02anXfcBjrvLpq1bZ7Xrz57XuFr2pol1n8NS9U+Jp5dc75hPKW2Br1Sc7Fh/bVy8FlP05e2+Xq6UxuS6NkIpzLPXt/fjl+gWfVvC9rI3JPYAAAAAAAAAAAAAAAAAAAAAAAAAAAeQaDdcL7+fh4N/x+TnpVtstvbvr1V9jvc82uuKbtSP3uPOcW7Uaa6t2CL31Fr2fGXvHteW3lNb0WF1BflaWV/b9a2NtdW/WLSG7mlaMlbZusHt3VqzRZOK6pNG5at0Lh02rX/cXk1Yve7Pf8fbK73RJw3BaQAAAAAAAAAAAAAAAAAAAAAAAAAAR5qt78198bc+ab7z8+7xHWd68v3PnHBfWGhbq8J1fLY72PJo2jVdi49tq27h23+X62mzYTZPT8/qHIei2XC+h0W9/6vl+07TqXPrVbVQdeXlvX5etNvPResUMsd4gqm8iZ6I7qaLb3I1nLe4XYOVtuubTZvL9DKdZxOx4vQ9FrAAAAAAAAAAAAAAAAAAAAAAAAAAAPPfIc15n2nnuDlziLo9jr8242Hm2B206lznARb+dUdVOrj5575F7Xy4959KNk17zP32LOc39x7Yty1Xfr127mGYy2XTzHy3272PJwVl9E/OfHp7a0T+hjjou4ZqoezFM8MtZ9rJpd5/Db3mvnunYTqHh+9KJ6AAAAAAAAAAAAAAAAAAAAAAAAAAAAALC/Q0bWuvOLhFr2rUOVeTa903E9uPMIej4X0sup+5HH78dHntXXlSqpKfJEWjv7Onh3tK/fa9Mf2Xkmz49e547TaeGjWZXvv+D75cprBWimMpbQs3ai9izXfNlupY3pnz/uZzKeqagmQAAAAAAAAAAAAAAAAAAAAAAAAAAAAAAAKNa2hDk+nfRNvR8747s+lxXmOJ6B53z81p3bX92PF+1R7MvntVN6xqkxRHPQmz8uoJiP3P8Avn7MPXPLm7WEOzW3fhhFdfq+dL1HD9L8P1cp0i3uc3phMgAAAAAAAAAAAAAAAAAAAAAAAAAAAAAAAAAAAYPk2/6PwvZ4f6LtL8/nDE9f02sc+seiR6suhUbNi9uTE0TRbckddUk02mN9TeD7vz9P9Eezf5Rp+qfnanHmez23U/Q8WTqOH23zPo/R0sAAAAAAAAAAAAAAAAAAAAAAAAAAAAAAAAAAAA1HIfPZZ/QmG6BCvz3nBZecc+nufSHT+n0X58Bp2TM8Lc4xHTsE5c1sOnUaPP591/TsFpy92x/A7Xu6LpWO6LfNnd5xvQPE+gufTT2AAAAAAAAAAAAAAAAAAAAAAAAAAAAAAAAAAAAY654dRqvVsd1S8VzsXE4z5pq7bW2T3qOW1fOWbf8AM8Tt/wBCa5tsGNyXO5jWsvrXceNuO2Pa9Y48+XYfdcXz4630nB7z1Z7Nee69AWAAAAAAAAAAAAAAAAAAAAAAAAAAAAAAAAAAAKK8XVoEWb23nMl55T1iL5i2W4TletQ36Fhd/OydT7br/ZImWr2Ka435lyu/1vte4xy2oEqcNm0NI3GZEBaQAAAAAAAAAAAAAAAAAAAAAAAAAAAAAAAAAAAEE6Fhfg0Te9YrPMuxWeekeabMaNrln9A1m6yBaPOK7vw+LZnvllm4j0XgAAAAAAAAAAAAAAAAAAAAAAAAAAAAAAAAAAAAAAAAAAACjm3SsXScds1NdoY6/wCPGg9txXQ6zL6XgAAAAAAAAAAAAAAAAAAAAAAAAAAAAAAAAAAAAAAAAAAAAAAC31bcaKTaXxaAkAAAAAAAAAAAAAAAAAAAAAAAAAAAAAAAAAAAAAAAAAAAAAAAAAAAAAAAAAAAAAAAAAAAAAAAAAAAAAAAAAAAAAAAAAAAAAAAAAAAAAAAAAAAAAAAAAAAAAAAAAAAAAAAAAAAAAAAAAAAAAAAAAAAAAAAAAAAAAAAAAAAAAAAAAAAAAAAAAAAAAAAAAAAAAAAAAAAAAAAAAAAAAAAAAAAAAAAAAAAAAAAAAAAAAAAAAAAAAAAAAAAAAAAAAAAAAAAAAAAAAAAAAAAAAAAAAAAAAAAAAAAAAAAAAAAAAAAAAAAAAAAAAAAAAAAAAAAAAAAAAAAAAAAAAAAAAAAAAAAAAAAAAAAAAAAAAAAAAAAAAAAAAAAAAAAAAAAAAAAAAAAAAAAAAAAAAAAAAAAAAAAAAAAAAAAAAAAAAAAAAAAAAAAAAAAAAAAAAAAAAAAAAAAAAAAAAAAAAAAAAAAAAAAAAAAAAAAAAAAAAAAAAAAAAAAAAAAAAAAAAAAAAAAAAAAAAAAAAAAAAAAAAAB/8QAMhAAAgICAgIBAwQCAQMEAwAAAQIDBAAFERIGEyEUIjEQI1BgFTJBICQzBxYlQjSgsP/aAAgBAQABBQL/APef54wyoD748E8ZwOrf1ySVIhJtolZ98/V9pM5a2zyF5ABKTIJmYLJzibGaNY9vKr191FLkU6Tf1aWZYhb27dZLEk8ny0B7e4SsEI4zlQxj5jIMljszR8Dv/wDX7vbFcbKm2BWNxIv9St3hBlm4Wxm+9m4T1cSdh0dFMnLIRykahTIF7J/tI3b0Hqr9OEJPcSHpSuNC0UqzJ/UL9gwwyy9pFblOWEo/07cv/svb7gv7akCQjpE0p5C9wP8AycdV+0ExftDkPH8Lr7Jhf+ns3UTyGTJh+2e3uHzFwxmK81yGeft/25YezjkAH3qOIO47KjFO/EnPIfjPWTn5aMFDQn9sH9OvydIpJO7sOw4BPXnOvC9fvKftcH2/PoJAfjmIDibj9okdyn7Rfq4Pz7FKmMdoT6V1cggl/p2zftKQfYudfsKr3A+PjOnGfhen39uIwAZCvaP59/b9klQ/U9OW9nxwvxkq9RVbpkTB4/6Yx4FuXtiSJ9SvHuABP/1Vfkj444cKPWR8/gl/gccn/wAPyZwx9Q4MwAeNSGlRFWF2/chJRdfIJK/9MvP0rWCGP1JRFlBtoCcVPYhP29eG/K8fu8ftEn3fHrY5+H7L6/xY+fT1/fY8RsZXsQEKISEj1kn3/wBM2z9YbB5z3FSk3WOOXoRJyrE+rr9/UKSnEJHSXjtF2/fCll+WIgcAKyKEEee1GZkl9LJX7Oz9gW5oycWf6Zun++UZKvfOfZL7OhLPADOnqB/cjl5wunT2Fp16un+uHquNwuNMjSDl8BnJJBj4jZrJkhAISOL7BFJ1Knkf0vat2uP2IHPJfogHJjf5+esbImCY8C1KM9j8fUM2Gcq/t64PsYfCEL2EcTlWsPEJo2KLLDCgV5QwYRvlNu9b+l3GD2ZvnG6yZ8MHHaGVTKeVlz2GYtJICeoz4ZvbGqJ8yiQ+sllyFpCwf3QzuHzhUkdJFwemxNY7tgZjJFlK16hHIsq/0gnjJ7hmJ+5mPLOWC8lWXhZwyjPmPHPTEVFZGAHz09zvMpBHabr0PMRftD2EkJ9eKIiUZkE0iBW7V8jHqxPnK55KuYWhnEy/0ezY+pazIIlPzkv7mfnJOHyw/bGYrhLSYGzp2zsZs+5gp6526B+qJJ6yzhFzhYVMbNFJJ3LtG7GVwV4TFIjEXwbExgqjh1RjG8UolT+i3p8C9RsbHO8Y/bMV7S/ckp7pL3dR8zxhBF2aI9fXh4Y8jt/rh+A3bC4Y94Wyq8QmR16zu+d+z1hIFi9U0ilmng6qtlfbT0Fgz6ojKsvql/okj+tUBd5TwL7ceVkjo7cBv9OB7Zx1JYdnViP9nQg4nZgVaZWPsyU9hIHYkztILMiZx2Vpfa6P9ip0VF7vPIvZkIEfOWZfTT0ytBrMIyO9EMB5H9C2L/Z/xP8A6+Rc1rUh+2YZIUSOVjFLErLiqOSVxifU4KsSqkARnrwCVZD6gevCoOcWaRM9DJG5Vm9ZlHsSfO00cXKgRqOu04ni4HsGNnln7aVdxZrmr5jOmVvKqk2Q3IbH9Av/AHWMlHMex1y7TWaq4bFRwezFxkSntH6BFGwlA79e4GKixBeML/HC+wOPUX4n+OnRTJF96p1YAMrRcnEfqYY2Jib2Z2VDrl90tNO7D8NnkcInpxa+LF10RyXVcYzyVpK3k1ytlLzEyNFIJU/nLv8A+RnXtGi5uNYa03tSzDL90XpWzhldnkjGE/AQc9yy8yBkSZ8/eIIlx/byOc68xs/3DoqAN0mIbJwVxo47Epk7vBWOzYj3unEUQ+AxzePxFG4GLIM7A5soRLXKcnTUumas/wDbfzlsczA9hD/5COjBew2mkevN7hKGjMkUAw/aPtZ+XaMOQ3pIj5jaR40VGReQArrGy4oxTJGisO/HU8MuRqGxp4mjrUJtsFqrHEsQiAX7j+CeBLrF2kkfi9JQfHKRy3468Yv2usOvp/USVoS7RRiKP+ctfbYZejnGX6iJJDG3xJmw0kNqTYGavYmKjEdmxkYoW6t6oxivGc5RV/aGfDklXwdMCKqwoe7K8eLxxwEwdrs1Hx4ceoBTjL6lznnP9jutpPV2EXm15AfObZFzyS7eytGbEtOqFSnRCn+dtj/vBH7VB5yCb6d5a4dfuiz35MFdLGlq2Xt156b+yNcVoy6Td8MnVXZ2d2bJHLHt2z6jnPgso9omaRcgqyXcr6JRkMax53C4oabD66qFzM3fuVHbOOM8jfrsc4xBydZU9Ka+p7D/AD16RfrWx4/eoOV7BgJRJ1nplccsmTJ3z96BpnSQ/T1ek9eSRglntFFbXES3GqRXFHotqkdWzJLFqGlyto4I2iqV4SZBkllEyOd5zBT4ye2kGSzfJmawYIe6n9PI2/8AkE+42FhTNdVzWwGeSGIQx/zu+3kemraXZvNtOc5MbMi2sXlWSPqRMDk1NZBY12TwyxY8vGFopAYYsMK8mDDAyhK5yH1pgnTPqguNs44x/nFZo6u1uGvoSgSeGtk95mz3E4kZmeKmsIc4f08g+dr+Mp1va9Wt3GupfSxfzu53EWnrbDYSXrFGz6LNDb/ttt1GJuk9kVyK2hjkgyOws6heMMvUMsUuWtWkguamSLJhPGXsTKW2Egx9u8Wf+4JBh8hsZW2FibKyTzZQ8XlfKtKtQSW+iZY2CktZkmKxgYlNpFjZUHbrh+f0GbuT2biGP2NTq9c01DqP53abKHV1drtJdnZ7c42a213iEhxjkFqSuaHkXUpcrW86SDPrMd1fGlK41psl9EmS66jNj+N6+XH8M1jY3hGuOR+Ia1Gh1WtqxxWliz62WTFgnlyWp68Wo8papHXxJfhYznP6H9JZlrQxsbEtGr0Go1vtYDgfzl+9Drq+53Eu3ts/OH5B/GosdcU/GNiHhpLhhFbyFkyr5F9jX6srNNA2FWIeKxje9T75Bn1RBNtsWWdsjS4xRJMjurGrbir2XZoML3LeRUEhzjjOP+nzfaiCpqKnOa6i8j14Frxfzlu1HSg329k3NpvnPznxn/GsrWZJhHJWb8Bsb7c+WZzxjSEZHs5oc/z5xNnVlz/IQI62rPH+S2TE3N1wlnc56ttNkektNkOlORaqFciqxxiJAMUch8P/AE7jbRaanGs24vU64ZtRR+mi/nJ50rReRb99xYb5z84fn9KGtn2tq5Xi8Y1d/wApeS9BOthTjfOHHx8ONhOHPYRnbg+9xjSE4krDIJpM1c44qsvRMQ/KHHw/oP02e0g1NXYbGx5Bf1lDomioez+dllSGPyTyRtvKzc5zzh+79CeM0vkh0abXyaLYJ5Xfg2M+r28mveCzHZgWMzGX7Gb5xxjY+E/p/wAHBnGD8RtlWz681d4SCJ+VjxMfD+u+8sqaVLuys7yzqKHrWhQ98sUSwx/zbMFHlPkf+RkZucPBz85+M/Odx2L9saJgXqGaOWt1NHYvr319uG1UsRIseSROqPjYRzn/AC36fjPz+gPGISMp3PS2v3I4q3lkyN8Y85JKiDYeVUaC7nzq1dxFew+o1/dqlWTtrqQowfzZPGeV+TfUl25/XjgfnP8AchVXPaoySTKaSW599oJ6cLw9WgsS0JK2+r2cfsF79gTjDGP/AEE4ufj9EfAcgnZM112TslmSOHZ+VlTf8imlLzSSmKAuaFB5mpVFC6ej6V/nPLfJuMc4c5P6UYPrbuy8chhqhegkbuyoBkg+7QeMQR62XVSfSbfTmKWSJ6+EKcgsTVTBuY3CyxTJKhjxypw84cIwEZzz+g5xYw2Rpw0M0HU+RSRLZ8jedZrMtrPXkFcnNfSGUYOM0+sDv/OeVeS/Sh25w5+BxxkjcZ4lrDIdPQEu58j1b6q5F/v/ALZx3Gq8mvaqH/3XcYPM8ss0Uc62dSDktF48sK4qc5Haniw7GUldjXYizTMXvqHO9XiV6yZ7quNcgBlvw4b5MbW7MqerrkUHbPRkdQnEjCmjB1XWUWlkhiWCP+b8p8kGvWRyTh/DHg8469s03kLapF36RXd7vX30qp1wfcf9sjJLIe+K5Knr1ZXGSPjCIxvSiyaiUbo658HBD3z1fPqDZ6ic9YbPX8rF3KxewxVwRBVaxNW8fEUU+oSusiLENfUMj1afTNdT+mi/m/JPIhq45naR/RMQ1aTGR1Hs/Tnn9GqBwyfHycPzg+7PziN2K8NnYnOwDMWEbouOjrhkw9TjQqc9HB4dMVwVAXqyEDp1xl4Edfkzv7W09JI8hQVkuznEiNuanW6jS0O3855Bvl1MSxS7KdaUdYT5IRnIyzD8L8Yfgxg81Ja1GLf1GqX+wOfnCvOfk8ghX9mFg2EkjkAtz15CFuyxui40DLndhg+cnaGvWtQRqI1PQdolij9bWJvRHSg4yMiBBZNt52e09Or1yhrvrJVAUfzW93Uenr2bUlqbWxCOrZk4xYJrhPje0cWdfaoE8enGbrmkrrHY3NpDPsfRtNfbgSPNXXFq3PpddLEy/PzzyDgbvnIc/wC2E8k8nP8Anj7TxzxwpQOo9seKD2fqSqr3E3oEKdmryfSrHK1ll/8AFFCuU4HmypWSpB/NbbaR6mrsL8t+wGOa2x7q+s8cXhEWNc8yi76exN+2BxnT5GwR4Xs92u3lpafksdJB7LcMv0+28q1oqvG/zFBLZlt+MWIYvk4T3x5ByXVmc85zyWHb9Pu5UdgRnOcdUA9joAMZmleqoiMJ5ihp9U1Gv+ki/m/I+tmzY1CnJKEkeRu0L0vNbVdB59Fxa/8AUCQjZby5tDnIz7gGI4aLOHbHXhdVL6ctWy13ZblJdcvxmg9j3oL0k13b0n11r1ds4RckhaGL2A4QuFThJzsGzgnOOTx8r/3TovGF/mMcZTfuaVbk6nXh5P5zc602MfjkxLxNQV8m1WTV5IsLcZ2/T5GfGfOcDn5A/GFcfucVDy6D2aWX6JY7n/yfktqC1RFjjPGKn1GzC1djPfqNSsjsAsnxyDjRjOhGdjhyNSmSMSY+QSzSvrKIiSjQFqVEEafztinDaFjxpcsa23VzkEyRcizQSTJtYy48DoeSM5Bzjk4M/GD8/jOOM45z65/T9Q0bSSSWmKct4wscFDX3Sm083gjkyM/HxnTPuGBs+Gz010yQBSByVGaip2elD0yjTFOH+g2tZXuZY8YdDaqT1M6B8avzljXqcloPHhTqexz4bOpz8j84q9m4wHqOvJ/C/wCjjaCOOHYcT7PavdRF64o+en6FMKYHOHs5Vco1DZlp0zxpKRA/ohHOW/H6dvLXi1mHJ0es4hWXJaS5NqzklR0w9gO3GfD5wc/2Y/LH7s45PPOdAc6DOBh+WEMjYK2fS85JWliznP8An85FGZG11EQx6rXCy/8ASJYUmW54lTsZZ8Wv187NCSizZPRGSUsMJXPkZzzhXsDzh4OH7sI5xlxhlar6lfPzifGRORlymCgBGLHydVQ9S0qZmeGFa8X9L21eOena10LStqb6JLF1MlEMstDnHoMGaBkyAI0j9ew+3DnHGVU7zyJ1FfWWdgYfAtlKH/8AT/YILWmt6xoUHrAzVa73tWrgZr6Ypxf0zebqtUev22ewijEUdmhBaG00UUEv0rAyRqT9F7Mm1o5k1zJjRMv6w/tvYt/FSrHTg/SRVdPIvo6s9GibUtausK6iiF/pvkO9j0lSjUsb3Y6imsKfpuNjFLb8Xi+oe1palsWfFpYcnSWFwkUwNFcn1akyatxhhaPIZPXlHzrhV8y1zCx5zTjG08ws3QgazJraArJUqfUTf0zb7aHT05ZZ/Idjp9QkEKr1XPL/ACQaWrodbLtJ9ZVWrWwnqL1juKmhgvQT+M2a+PG0OekFmrAiXVRtk2ukTGVkLc4innS6/jK8bd4IRBH/AEu7cjoVtpsLPkGy0mkFWOKIQpm93UWkpRRWfI9notTHXg/TzbyD/HVtHHZ3hgiEMWXgn0z9A3+LmMckLKXjx4FfJtQj5T1RE1eH1x0KvqT+lyyrAnkN19y2i0P02QQrAmX70Wuq7S/a8n23j2kSnCqiNc3m4j0tKCtZ8h2el1y1If08u3Ka6DWyNt7SJ0SavHOLXj6SZb19ikwZTkf51dZrD/0sngby891tXrfvggEC5LIsSeUb6be3/GfHRQjhiEKZctx0q+02ljyjbePaJaEYHAzZbCLWU5PqfItvotYlGL/os6mrbyPxlIp0QRr/AEu6/CzV1eStX9Q/TzTyJrR8X8eMArVhXXCeM8t3v+Yk8V8dFFYohEmO4RfJ9+d1e8Z0f0USKEX+pSxCURVEiP6eSXZ0i1mmiaapX9S/p5z5L6l8S0HYVa/oX9POt63q8S0hyrB6I/6vYUwvTq/r5Ft2oVtPoG2VylV6D9PJdz/iqen1z7q1RqhB/WyeBPq/qZaFQBf0u3I6Nay1zyHa6fVpVh/rrUAXChR+nkFqW/Pp9aYEjQRr/YJl7RheuVoPSv8AYuo5/wD4BX//xAAsEQABBAAEBQQCAgMAAAAAAAABAAIDEQQSITEQEyJBUCAyQGFCUTCQUmBx/9oACAEDAQE/Af7NB/uTyWtsIYxmztE2Vj/afBD+YixRRii/SnwbazR6FYaSVzsoPj3uyi1zo+6nxNjJGN1hYOU378fNqxVpaw8P5O+eTW6ExfJ9Kx6LVLKVXAj1TmmKJnMd9IafPmmzmghoozmahwvjZ/hnOZwYFGwMFD588+bpahomNz6KOHI30WVmKzrOs6u/TLIGBRM/I7/PxE99LVVLdRFzDaOJCbLa7esFA8LpSThuyiaZHZ3/AD55/wAWoBBpeaCdEYd0R3cVBC12qkY1uoTJC1Bwdt67TpKTpEyMyHVNFCvnTz10t3W6JWELO6lcyk8gnRRyOZsubn0Kc0HZdTUJqQnXPXOC54RnXM7lU53UULc6go2ZR86eejkZuo8GTq8o4RoGiliyGk0E6BPw7mtu+AQPEn9rTsVbh9rJ02iaKbqU3rd9J7gRTVBDlFn52InEQobrB1zCXLVPcWttTSiSlhms3KcRlWQPcp4Lb0qiDlTmubvwoquGc7LunaDKEOnRRNvVD5z4mP8Acn4KjcZXMxEehRnkeNUFa5r9rUM2Q9Sfim1oomCQ5lMzME2NzjSkw+Xuqc1WO4X/ABe0ICtVE0yOTW0PA0nQscnYX/FOjc3dbcWSmPZOxDnBYd7TupXtpPPVorK6Sn5K0XuNBQxZG+FIHdOga5Pwx7IscON0i4uUcGllcpv6UuHoWFaw0NdTvDgacCwFOw7SnYcjZFpG6BopvULXLCmcImElYOIyuznZDxJOlcCEWNdupMID7U0YjD7ahHHSfpVJi30dlGwMblHiduARN8HBUjEx+4UcLY/b4sC0eG3jAj6AO6v+nT//xAAvEQACAQIFAgUCBgMAAAAAAAABAgADEQQSEyExEFAgIjJAQRQwBSNRYGGQQnBx/9oACAECAQE/Af6C7+K8v+2z9of6LP3B2Y/dv2S/7BQZmtGoMOIVI57AfYMxUXEOIxH6mYbGsWCVN5X00TMRAb++PsFXMbTQaLhFU53+JVc4h/47fR9UvvMXVzHTWKuUe+G80bJ/MIlum0tLy83m83lunPWgLtK9XTWw5gHyff0qWXczmVFynoR4Ly/2KX5a5zCxqHMff0KNvM0MY5RcypWztx0HTKJkE05pzJCLeGlTzm/xKr5zZePf0aP+R61AHW0GFtxHo2m94PERLW606Bb1TEPkGkkAt76hRv5j0YhRcxKwq8TniV6xTaUqzNs0aiGhRl58dotEkxaYEq1dMbQX5PvqNHNueuLzkeWUkcHYRdhHpq/M0wvEVmE2aGiDDh59PPpzPp4KE0wJnVdhGYKtzGbO1/fIoAztxKn4mBtTEpY925lKrqC8JA5iYlWbLP8AnQiCCCXm0FUFsstDH8otFXe5leqXOUcQC3vaVPOZ+II2nZJTwwA3iUVvaUaWncTEl7WEVTM5ppuZh8QQfNLjmKyv6TLeDKsO0H6xh8yu9vKIBb3zPWpPdTExxO1QRNGpwZTooOlhNNebStR1BtFwhHMrvkXLKDFTGdUXNKGJD7EQEGWlzD5peVnCJvOdz2A0lM0ivESvVp/MTGg+qLVVuJfq9JanMWgqzEq3xKSOGEXYb9UD5t4SFFzKlQ1Wv2TIJYjiJiHWJi1PMDhuOtrwACVcVY2Wa9SUcZc5W6YqvnORYOzNfNCsuy8RcU68xMUrcwMCNo3pnHMzTT1GFpicRpjIvMUW37Pe/QL5ry0tm4l6icRMc6+qa1GrFoKfmVCmHS4i3qHOezE+ICGBM3Mah+kD1qXE1XxB80At2U7RRffxkwC3UADtBg8BMA7cRBCbQb9xIv8A0Jf/xABIEAABAwIDBQQFCQUHBAIDAAABAAIRAxIhIjETMkFRYQQQcYEjQlJikRQzUGByobHB0SAkQ4KSMFOissLh8AU00vFj4nOgsP/aAAgBAQAGPwL/APegguHxW+34rfb8Vg4H6uS90BWNzOIkJrmtZbMROJ/51TmGtrma5vH3QOK2hd7tTAkUz+qcHEzRxF40HU6H/dNbDgKubZ1DBnmeQnkrgZcMpIdjU/QIhr5pu3XU2n+lnDzV0uFpteIwHQcz4Kxxxi7ORp1TZwu0hZXT9VsxThS4f88kwybKg1iZ8P1KhuAY72Bb/wDc+CqMAe7aNmND4uPqjoqVQOfrbcIF3Ro/NV6e7s8WnaSKfhxlU3kMhwzAukeLjoT4p1AZiDcGuZv9TPDjgh87bWEGG4u6c2hXTmYbdo1+vRsdeahuyZTcMHQSKfhwLkLm27MzsywQ33jPHw5qCH+kxtc6C7q7iBKm+92l12L/AAHAIS4PaeM/nxUtMj6pkNxePuQqEyZ5hVJdIiQJLh5DUlXuIy4ON5/xP/JOZhiMtjcT9hunmqb8hFIw6JtHnrK7RSDTfUFwwxf+UKhW19W5lLAfZbr5qo0yzZ44kAN8Txd4qXOEPbiypU3/ALXBObg94xGUy8eB0bxQfmiqLS5jMfBvEIzLDTOrXxZ0EalD5trXYm8y1p5ngXSjSDSHNN1hZr7zp/BCb3bUYxg535tanekxaYuD/ub58SgQZneF8/FXN+qJs3k0jjjgMU/EBhIzXC34+sVS3y6BukXRp4AeCdLsGHBwflbww4k+Kp7wuGLbxLuGbh8E4Tu7rg7d4Q0ahU3YFrsHAvwPDMdD4KozeqzcBaZ8h6oVGqYxEXNYTHhxPiU9pyWOk4iB48yml82vGdlSpE/a4QrCA5w0ymXeAOjVSqCcRbcxn+Xj5p7d3Zn2hDf1KuNtj8Xh7pE83cPJOpgXOmdwy/qZ0bxwTKpvLnCLmMzfyDUJ7HQ0Nxi4Ws/UppdIa/Agxr5fVAlVZ1uBjosQT0iZIPLVycc2hEgi4fzep4LKIZOENFh/8vJTnuI1DRf5ewPFEQLbtLRZ/wDcr15e3H2/1YFM6O3g4AeXteagkEVBmDn4Y8/0CLdaoxxBuj/SFTfBzCJZT08OPmU8HCx0xIgHThvFNc/BhGe5+H83DyT2kYjES2CR56NVJ+IuFohoB/lnTxTmTBYcIdMeHElB+Ut9fVw/mI18E9ls8RkxPno0KlU1gwDYP8IVRuIMSMsu+PMocOn1PjiU8HMSCLcHY+H5J4jG7HDnzJ/BqpXN8JZpzw18yn4Y8TAn47qbazQ/3cD9Sntg3EYEME/oEyGggH2cP1Pkqgxlw1AF3x9UJhBgA5YgD+Xn4otwtfwc+RJ58z4IiJqN9oGY6+yPBMdmlzdWMxHhxARxtLDwdoekanqU17rbDvYkiep0cVVYRFuaHNj+rh5KlUJc0ERjAcfLgE9ns7kOJ8mjXzQqGwxg/EkfzHinM4v0tp5n+HABMdDTY60hgLQPE+CdTwEOti76nxw00lW5uOBgYeHAfirfWtlrbMcPZZoPFHAYYaH8dfIIYCHaZPwH/kjLcRj1+Og/lTTAtOpLT/7Pmni2XfZx/wDEJjiAeG5/wlVQNTriAfM8B0THB0cBED4DTzKjCx3AyRP+orTMw8R+P6BaOc97egd+rQpuuc0w2Hf5Y/EptV2zDXetiWg/6iqjCC2DfBbHm86Kk70ouEEaOd5cAqtOQAz1g+Qzw4yqbyJuyuG0zO89NFXoukgaNbmaI/5ovVYIBhokD/ZNcOP1NKcetx5DxQE0m3C6InTi79E5oi3G5u0nzf8AoF7wgtFubyb6virxGGpaT97tfJWgCDu+jw8m6fFaYjXXDz/RNgZXe5+XHzTxGmpMfedPgqLuPDL+A/NVscNTj+J18k2pcRGG9B/QBFo3XblrT/hGh8UMsWndtkD46nwTxnJeMcYPnxaFfJLgYD7/ALm/7prvRtDuE5R+TyqlK33rLcx+0OAXZ617bTlvjAdGnh5rtNJxAjNa7An7X6pjnz2Yvo48Zjmm608MWt9Xw6FagxxH1Nf8Fi2RNuY4Jp2ocWvg2Mxqu/SSg3a0XO3miyAD6zpTmw4Mc0y17pnq88PBXh10HKZk/wAo1CFQxb6xDjHm4a+CsiPZFn+UaLBuI1w08/0QwxIw9Hj5D9U7hjjpHmeKpmHXxphI8BwT5cIBmbsAfLUpjjLZGM1MT4nSFs8tvq4H/A381OQ7I5sCWt+0dUcXTVGBiH1PA8kcTNM+q0Q3+XirTJp1RlHtHx4Ih1R21aSLiN3x5p2zbTrvsx90/omHsxL7aZLqNQ8OQ8EwMfLAIaeMRonNuk9Rj9TWjmUcQ2RF7uH/AAK4VdmCyNz5tolMBe1vZ6RtdIzPa0Y/eqs0dm0w95PrOOjfBVHF+1Iy1X0xa4u9kdFZix7OeXZTy5lU8Dc7F1O61x6v/RVG3MhvrN0/lb+aaYaCNRJMfadqPBYwLxlhuJ+yNCnNy5DmZGVv2v8AZMfcRtMGutxP2eSqMgiwyWxgPH2lSf6UNf0xdw09UJ9OHAsxGORngeapPO1HB5O877Q5Kox4dOBbTGg+yVS2df03N3HoVVNMsqdn1udq6NWq0h/ZBFjffB0JPiEGVMtW0CnWYTAnnCddlfOfx0DgmzgdLTw+prBwAkpwcbXHXi5EP2oY9wuw9bDBZ4qVakM2ZEWSZ/BCrVz1W3VrBpyaiKjgBSGUM41HJgazbNoa3HeerH2mmBfUuwK2jnCYwdGamExpfNNxlpaIuPvIekLasCTGB6NRAD7eFH2equvqZd6vxHQhHK5reFEnKeqptudcP4k5mdE/gwbzQd7qmxUNx+Z49Y6ppaQX1CQSfUPFODm2UXOgv43rI75PUEPZRJtDCNZRbXZthUJZtYh7+OVF1MfKOyiXmif4fGTKYGv2vCnU9rm1DHd5oH6mHkOStEk8LMBKBazMdwbQYOxkp7WPtGYvqVRxAA1WzpNNGneKZqcw0Kk9jdsZd2hz5+Cp7R4hrTWMe14KncXGfSOqt+6UbGNpVapy44QpbTaAzDZRqdfNGmXjZ7zpGnHFNc6pa84UnDFP9Ngwem/9prw4y7Ck2MQi27rXM/mg6y5gPoWj1/JVv7wibo3CqVla1lZtx4E1FSJtud6bMMKVuqF9M7Oo/aw3VzTxPGFtOy19qwABwA4gwQGoMpD5P2hpt2JOUgcz5pzyLLvnWu4H2mrE+cKmen1MquMYlZoHV/6ItlgD8TlIjTD71TLwWUnEW0wbgc0ouqYONPKylzef0TxgGOe2jhg6BqnxNUmpwwcAE57LRebRUif6gnOECMgp8P5SrXVC6lRxunFh5JoMbepi7i1wV9r7ZtDeLOqFICXME3+30Qq7GLzaWf3aeHMnYjMY+dEKjSm1+/TcW4Mb1VQNAtrVPRtBzPcPyXbHwWvDQA4YtYRqB8ETQfFthYwujewcXJ1O3aTPZxcIc+MR5IvZU+T1CcC7TERa1bDtLBtIwc3gSNXR4IudnqCSKrpte3kFgS5o0UatUg/UotYYZz5p2pnkjbvTowTj4pp9IWk5Q4XS7FOLBNaN6mYty8vNZYqvbUl1TQ5Wpt7trVbTvtdrc5QGAiiyIdvg9Fc6sTsmztD19pqDLNGbQ0xz90qk4zzdUw/pcqjNmW3GXU7vmxzCDmWl7m20HThUHIpskfJgc/Nr/wDn4J5dVbtxhVE6s5hejqtJYy7s4mJambN8taDUYQ/edxComXNwPaC60ODfdCoyynZd8rsOFreqYx4cJL3G7G+d0nohUp1dpDW1JGN7tIjgnCu0M2fo9swSGwZgBGifT9l12czbjq4+eipy9pYY2HaOUDQDksRaeIdw5/ioOEqQuvEfUixnzY480BxcbUdPNeOhdlbKmmIe7Sx+LNcU+ncCMbi/K+cJgp/8Om1tX51uvDUJzGN9E4sa1z87PimtqOlr6sbN7/8AKQg8TO0zPsgge8tmGYF+02d2jebEbXNntGLXxlc0cD1UhxZtMjSRjR8eiZIdb83sxw98KcXmk7T+/wCqqAFzrDcHe37irWue24XtPsc2J5pPLcgewOb83zCrWFhsa00rjEA6kp4pl5bI7KwEzIPEp91IVNpa3LlL9mcfJTJzOqaYOcNWtb0XpPSYxc3Vpc3RnMp7+ynaUh6R9Kpo3Q5p1Ke5l76bstRjsX8cQOSEmT7RMk8kaoHzefDxxQIVwUj6jbJup1PId3YqE/wqtWPgB+JX/Cs0Cd6czgVV2mXL6UupwBh0Ti+Wdlki18ua7MMU90OYAwhjKTgZzclLYYx9b1cjhA+9NNtoxvMQ2ebuRQvNr6TNm4nM5k8/aarYIs9Ha3/M0o4h7idjEwKg/IpthBIfsqTjxHFrk3ZCLallCfV5gpwptsG1toyPm38fJPspw3bQzLu1eKfbSadpUyYfxBqi7ZA3VNqzNvkb3kqLs7m7UuxxvHA+AWJDjs3VDORz3g4eSFKcB6ECN4vGMdEJGR5YzLiCAItaeAnimOow5sNkDEcRazy4pmx/da465G6iG+0VgDS7b7PrVZgmccPBNDIa32d63mFXYTvMcPuXYHu1dQb+HdbwP1FLjwRqO1Pd2N3PsdT/ADBf8lcSBrs8B0xKeXzDIDrHXF7ltXb8Otp0crt72YXp3Md2p4yNewiBdxRdUzNJffJua0+PBQ50PsFJzt4jr7wQBBhx4Hdt4t5tQJZN4NY2c/ab+iAtkupXZcL3c28nJ/ruqUow/i8yPeCqQ4OD6QtM/OMGp8Qq01JDmt9bWn7fiqrTVAuc2m512jfVetSxxeSYO4W/qr3UzbG1i2crsCxOpWNvj5PAymdQ0LMHbKrVbJ3g5oG6OiBggxcdiZBddAYP1VjfSCNn6ExIa6SB05lF1GpZVzQW5Zh2AHupre0sbTtcWiuxugDtGt/NbKru8KjDocQL3QubjrZlHQ+ar1cbWsJX/TmnCKLZ8+9rH1GtfGh+ojWc+4r/AKT20brXOov8Hf7hDjxjosYJ4X4TyypsweFEOGzu0kypfFTtDpsFcTGb2lsqRftHGX1mvuDc2i0LRBZUO66Cd6NCgwiHCY44t0cP0TrW25GvFo3XHUjpzVQYgBwqC3CBxe3p0RzS0P8AlEN5cHt/NCTmY6XFg9rR4TGyWOxpyBuO9vwKJtc3Jdb7Mat80XOusubOX1DoPIrfaauOrYmoOPhCyObZgAbvVdq74oPqXANF5LhdFuHxKimRkp7GaLsWzjaBz5p8tb62DDaYAwYPzKNOZvmlmwm4XGD7IWdpAq46YOFsAdGymGflVF+DSMXOFmjTwCL2BlTs05qZiymTHXF2KbHpG25HuMBzP/ab2NjhtO0nZwDjE5j8EGt0bAHcV2ap1LV6Os9vRRVa2p9yh80j1Xo6jXeB+oAHLuPiq3ZCbbxld7J4FRUhnaabrKjfZeFAkO93F3x4L0Vxc4YQb7BhwTmUC5jiXX1ackA3clgWM7Ld6V7xa5zpTNB/8U4NZ58VDrr7QZ0Mg/jCvnK0ntAs9g8W/mEBMbPLLBpd67eiaxwtEFht9SPXHQq+A1+FUY4B+keBUCkLQ80w08jvtRBa3GnvdJ9GVOzbhUmLuMZ/gsLxFOJDuRwP8wRacA58Q5vMS0eATYdvRma6N7echUbVh49JbUEOE5f6igx8hsspuETAGrQfHUptvuyGHAuLiIj2QFi0VqWGmUuawxP2VPZKjnl8Xs0c/EzI0DUK9G1lVg3f4emjBGOibGAnLfvNcEe3vDwANlQa/wC935eSuPDuKpg4el/IrQlbpHgV6N3kVGLHKBWuHJ+Ka2rRmeLEHN0P067y7ndO53/UOzNcSfnqbePUcuvRXtLXUj627T/3Rhoh2apLbMOEHgnsNooNnaOfDX72CpuNzTuspvMi32zCwN7sWguOLuQKDxJDfSt58vitmZ3tlhx43t68wroAcWmrhjDm+sOnRZQGQ9hHENLt4fZKay0wNo1rDGnsePEInaf3cvw/r/JHBwtD5byx3fLVYy+HY5dYGPxCaLabnZAJEZtW/cjspttfaWPnKTIPnojdTDsTFOo2OEtE9Fg97BjD4vbhmu+OiLGA6WW03Yi7Nb4lVHEA75E5ZwyjwH5KpBD2yfnMWmIdcTynQJwk0K5kxUMXYgyXcPBU9q+yuDkrOEXRgABP3qox11Ck0WdpDcW1OO8g1ohowAHBW99Ee9P7DncWYz3Cq4eC8/p2p3W8+7BGv2RlzXfOU2tlzerEboy41M9+PJwVzmnZiLKUXX6wnVKhJcTrO8fLhwWhENuBOGLeaDYlhfYQdbYu15ysJvdTLpDcbxx8Y1CL7gxoeyrcPVBGLvsk8FYXC619Gwu462/DRXmsLS5lS7jbo1/jzUFzSbS1wDThDs4/MIxVY51zueJjD4tXo3NOItz64ZEwB7jpBEHCLp/JC2y7LAeLfeA8gtKmyjXfy3TPi5brL5xsNuN1unINK3t0z6QQ72NeZTZEtETabm5QW/CULXWuy4jq3EuH3AJw7UA24B20OgLm61B5adVUY509hOlc4Pd0HIJtGk2yk3CAoG8h37JzyyxoMhYh7/FywY5vg5F3Zn3/APxv/VGl/EOBHJXO3BqsBhomt5D6defBygaahSEKg81B7m1pNOq03Nc05Z6hW9pYaLzlpmnjTDeJ8UwW7Nk7MRgI6fBBwHsu046u+7grLhiLAS/28W/+0ahf6+1w1y4H+ZBtwnGnLRhjm/pcmuteWktdHGDhHi1YNc5zRgJ1g/g78U4Q/wBZoN/mD+RUW1GSSOGWR+WibFzZOUFmhIw+BlNcy06Fo04S381vPtAx9aQP1uhb7L2nEtdbi0Q4+QTWVWOIyttfj6u7PjirgXNls3UzPq3Ex4heo9o1Ay6ZyPALYtZUdXYA7M3dJdN3jGi/en7emHBzKTvVjuhuqudqsVPdV2FU04gYdFm2VXyWFGiPiofXhvsswCDRxQptwCvOnAfTzetM/irPWbu93uHUKW495BaHs9l2iqvbUdSc8bj8zPJOeWh0na3Uxq7Q/dii3aNMSOFuTEfynirCHuktZriQ4T8R+Ca7ZNuwfrhibT5EI2sENDgDbiLTlPiE+KQEX4NbOETHxxCIdSaNS6G65c35FHasp8n5SPVz/dBWLbSRiWO0NuP5FOJBZgXEHGNP9woAAJNuV0R6v3CEQ90XDSqzmbYnxEovZ6S6fmnay78yD5JjhQdaSc7xZGbl4fivTPdUGOXh/wAiFlEd2GA5q4q52C938VJ07qreBWuPVafDuHtuQkZRr9P9nZIvh2CuGoW0Zv8ArN7o1Z+CuCwWZSz4IlmVDa9mZUjiW4hFoupiyzA6cQfJPsr04ddlLI3hj+qnaNJuu1iclv3pttSYtxv5N/4PBNIuNtuE8mn/ANeCa0CoWizl6rf94VjmMfug3OaJy4/l8Fc4UmcS2+eR4dU3aVg5s8KeonGfHD4Kb67ydZfAOMqWUmNJ4huK/VaqKYU1MSrRmdyCvrOx4BQMGqTlpfj4LSBwHLuqc5XAdSmCg/aYZ3Hmto7ylANmUGN4fTxdg6u7cp81tq773k4nuvbqrmZavLmrHiCppOjoragsPfhiFmatFICweQp2iwIPksStACtVrKzPDfEq2k19Z/JgWFL5Ozm9XdprXu+5RTbct60cmqGDzQmXdV6QeDApPw763jp3Y6IYYclm+cOvTp9PGpUxcdxnFxT69Z0vd9yDji04YIX/ABWizYD2wgKkO5PClnpWdNVHHkVkdb0Oizs8wsCCipatdO7fAXzjT3cFv6DghFzkDUAaPeUNDQeawK4vKgacljnd7LUDUinT5KKI/ncuv7HaD7ygBBg+KFZ2nqD8/p51aqcOA5lPr1jidG+yOSmfJEximme+WOt6c1n9GfuQLwA722r0b21W8nao3BzPFcHdVlefNYwVnprEFvgVv1PiF85V+Kx7Q/BZu0VC0ergrGh7hddiUBTp2+K37VuvP3Bekc1h5aleipu+05fvNcAn1Qo7PRDB7b1NRxqO5n9mpWdpTaXJ9V2rjKn1iocMg3/Hl9POr13WsajVfLWDcp+yFOLUcLl+Sg8MI/ZBpuWeW9QuFQLMw0zzGChvao6OWWrSf5r5v4L5hyxpVP6VjSqf0r5ir/SsvY6nwQns0Dq5ZqTGkYmX8EDtuy0wdCDKh3a31TypNX7v2In3qih1TZtPClgpjNx/bb2CmfS1sX9GLau04JhbF7tBy6prG8Pv+nX1qzrWNxJKuxbRbuU+XUrFcwpdlUlwKBoUXVbd6AtlVaWGJb1H7XJb0jkVmotP3ITdSPiiG9tNM+amn2/D7ahnbgfNqj5ZH9Kg9qB8SFm7eQOhUP7W8+aN1d5nXMhMFQGrAIftur1cToxntFVK9c3OeZefyQEQwK9wzu4ch9OuqVHBjG4klQ0lvZm7jOfUrHRa4clmEQi6ZamUaTTcdXcGhUtmzaEGLeJTadek2n2UDJGJafFSP7LAldVvn4rElakea33fFNuc4+JQj+xd2iu6GjQcXHkFtX4DSnT9gKxvDElXuHom/wCI/TrnvNrG4klbOll7I04D2+pXMLA2wsRgp7u0NFDaF8QXHRUn32VGYkJtWjSFLLDmgQCVa7NS5IVKbg4FQ0SUR/aShion+wLbtt2jhTH5rb9pfPstGjfBXEZz9yFFmHtu5BNYwWtaIA+nCToEez9nd+6t4+3/ALLmoGC4FvdjFqkE+AW6tO8Yk0+LJW0Y428ajPV6OCva68c+5rnNIa7dMa/2Md/IJon9iXOAHVHPtHD2dE6nQ9FT91S4z1V5GUaLBsnQDmVbNzzi93M/Trux9ld6EfOPHr9O61DRwXJThYunJc+7RMo0hL3cFTqOdtQ7Wz1ViEKnZ3uYdJHFW1x8lq+3T3T4hXxcz+8p4haz/a4TKaBK2hdHVFjKpefdR9IT0lS4krxQAabJguXJjNVt3jO7dHsj6df2LsrulWoPwCw7oB7qPZ2mDUdb4Ko2k8bemZhx3h3Q3RaSVgFSqjfewOvb4Kq11U1XzoeSsbmIUFp81yU0arm/ZKHyqiZ/vaWCupdppu9yplcvSU3MKyu7sFqp/YPRRe0D3ihndVcPUpsP4pxaOzUOGY3O+AXpHVe0Hk42s+AUOIa32GCB3T8ApchTE2k7quI9E08fWd9Ou7H2V3pjg949X/ddVHFQD8e+p2mJIwaF2ulWaIqtiDwTqXqDR3Md0ukQpC2LSH0vZeNPBYNpsPMCUalR1znayFmCNo7qJjJp58e70dVw80No1lQdWrNRcPsOU3VGu5Wyj6c+dNT8pE/YKw7S13g1D0/+BEXVD1AhZKb3fbf+iAbRpU+sT+Kh9Z9vszh3hGRgFggSmNiHux+w1NYzBrfpw9m7O795Orh6n+697mVosDj1W7ieXd1TmFstK+UbUh08kyWBrWac0efFagsWOUBTOVSZaArt5vJD1J4KRiOizD4ottgnqt0+LSoaZHNRw7oaoiVAK6c1gdFpgsFEC3mnVD82371HxTXVMzjgxnM/otJdzQLdCNEHOxCDjw4KXD0jt76cNGiQe0kf0dSnOJLnHEko4GFp964hY/FaLmuYTn7PKNTwCiIUA4LQgBcC1YiAFrLOUKXZYVxzjhCuJhx4I3Zyh6pK1mFmXJaI2ldFi3DmrWuhARKsbgTyQaMTo5bFugxc4JtKnut0CDidMSUa3aJkttDfY5DxQuBynP091TCbCFd/zbfmx/q+nLGZu0u3W8upRJdc4mXOKwEn2j3cFGn4K4Nt6d2nwTabcS4qjRstv1aNCq8syONzY4eHfGi91YgthCDLApdlARcc3QK85UScx4Qrjg5yM5zyQ9UlYFZgvZTbmOqvfoGmGpr6VzQ7Rr9UZx8VO/U6IYNL6gMTitg04/xD+Sl28U0QJ15QmvktGlAdeLlbdLW8eawCtPzbd93+lADAfTcnNWduMT61R1z3HEpnvYnuihRqVT7rV/2b/MhD5RQfSn2hgjPDv29TEBUS12iN0bQbpTvSZ7osVOm9xbTJxKFGnF7WSHN3j4ohDSFiC0Bb0sVxloCnVo0V7sviiXQeS2hkdFjiVdzRwkLS1Q1+CBqOlTEdAhVdj0KJ/iu06K4rakAn1WrOfRjF5RYwy5wmR/DYmhmnAplNjZc45eg4ptJmg+/6bdWfidGt9op9eq65zvu7mMG+3CEKvaxe/wDu+AUNAaOQ7p9mo0qwfHunVNZOwcMMOKtfm94KjYc9XgpOJKDjoFs9Rur5TTGR28sTMptKk3audgG8SmEG50XOYMIUSLeqGrQFiRbyQ1wWiB0XMKeSM7qnRdFOkK86KV4IfhyTWxLeI9pGlbqZc/iU1/4K9/zz9enT6c2bhIYNFlNq0kdFLSWuHEINqtbXHM6r/tXT9tEUOztafeMr09YkezwC5qTgVzKzLKULsYWCDwdNQtreJmU+i83vcMAhKFRo3OSNJ7y4OCfTjKTIKzOhQMUx7qRa06OI1UYLksFzXFq0lqhdE1mhiGkd3RdVYB0jgmt4oVzjSZ831PtfTu2pNl41A4otOBHArVYtnqFkd5FYt8+7FSuanRc1doTzU6rHisDC1UuUcE8uEXLaJpwvA4IGEyo9gfRZi5pCrUdlMMwa7RVKLhFhhTw/YwKxXILVdeKn4Iudi8qTvalCkBAG+4ckGtEAYAfT0VabX+IX7vVLPdfiFLqNw9pmPfNqy4rER3zKzKcQpcPgp5q5wxU8Suq2bhIGhQIJw4LHAckR1TydTii9xyodoZvcUR5rH9iF6SqQ6Jho0WBkd4qOE8gty5xwAVvrHFx6/UL0lIXe0MCi7s1afdejt6Lme9wWuCwiOqwFq5hcu+VmCunDkswUz5I3BXKXCEH8F6LzYryPihS9Ua9V1UkYqef7EEA+I7sEB6o1QiGhuModoqjMdwchz+ouKJ2eyd7VPBXdnqCqORwKtr03UX9QvVPnCPFYArRWzhy7+izDALKcg4KSIAXuo4YBYd+XFY4Bb2CwcFJGHMfsBrdU0aFBzh6Fmvvn6klr2h7TwcJU0ruzP9zT4Ilrm9pb01Vlam9rhzUMGPRYtkrDvxWCjgoHBQMRxVowXRQFcdT+x+SNSmNN4d3VXuGcplNupFx90JrGCGt+pj72gmMCUBRyOKut2rOYxUPbaVMt8u7BaICo+xvMCUQDI5rDvb1KhW0KLqp90KXbKl0c5ZalB/mQv3ns7qY9vVvxVSdLe7aO3Qt24nADmo1ed4/U1vZqjs5zEckzY/NtOL01g0Ahekph3XigKbouEogZoQwg93JYLEd4PJUCG3XuAPRMpUhDGiO8h4BbxlVaXY8A7XkPBWxhxTWAQF8ocNdwchz+pt29XfhTp8051R5LybqrzwQsbbTZg3r31s0ilkwPFPqES26RKzUgDzbgi7s1a8ey9HaU7YOK1AK4LdjwWXMsWwuBHIpre0UdOLVi5w8l6NrnnqixnomcggNXFCBjxQkZG736fU11esfst4uPJXgnbP8Ag0IUqW4N+pxcVA7jSpH98qjL7o5q55dsWmXu5poDbfd7ieCc8RG9CvcLCRg5qmi8Vh8Cra1Isd1WGCxasMpWGYLER37QjEoMAzFBo+pj69Z1rGppLTiYpUuQVmtV3zlRBrcAO41X4vODGe0UXuzPeZe48ExoHo2/4j3/ACSif3mrr7rUDVMdnZh9romsHAd1Q1ACGtJxTGDXAQr2NkdFBEHuxCy5ShfoEFe4Zz931Mc95taNShEik05G81c/N2l+p5BWt7n16zrWNWhM4MZ7IWzbr670AMAO51Z2L9GM9op17rqjzc9/IJrWtimzd/Xvp0Jl9U4geym2S5jXA3IN5KKjA5TSeWHkdFnpkt9puPdgtq/5pu6OZ+puzp4UG/em1HCT6jfzXXie5z3m1rcSStlQn5Ow5G+11UkT2h+8eSDR3PrVXW02CSVlBxNtKnyCFMYk41H8++p2iqYa37ypdmq1fgwJrGDIzQ8zz/Zl9IXe03Aq4VnbP2CEGgQB9TGt9oocRMnqpO93/I+yn0PrkesU3tFZs1jut5Lm46nuxWwov/daZwj+IVtHN/eqmvuBBo7iTgBiSraJJ7PTdbTA9Y81m/7moJeeQ5IAfVOCpGJ79hQpuN288BCu9kDg3qpO9+Hef+n9mdDjhVeOHRN7b2gTPzTD+K9497uwdmd/+Zw/BN7bXbj/AAmfmveOv1YqkgvnEIVHiOQ7zToR8peMvTqjW7RJosOJPrFBxEchy7yKWbtNTBjfzRNWTQaZquPE8kHxGGUcvq78p2pkn1kBEU26DvfWqGGtRIkOfoODWptJg9GzjzP1emcOSgd9ljhSbuiNeqAj0zt48kGj6wuA1IQ1nkup1+scxj//AAC//8QAKhABAAICAgIBAwUBAQEBAQAAAQARITFBUWFxgZGhwRBgsdHwUOHxoLD/2gAIAQEAAT8h/wD3PXEC1o8ynG9RjvFGgb4z7ID+3HZC7YNs3AAkbfiz7Y8G8wYDs986XXkdxoGkwfnTlk4hGFRiGu9xWQx4Rag6Fbr7wKtqHCtuiXoyedkxK2e532Hhwyzg8ho3FjncekZlTQAR6ervHiC0V0K3u04xBsXD9rWYTkO5gKO+1rtrT3NZEF6w76z8scMLjKBea1Zj5SzqdaOzZsNuCZHrjdlNGt4Zj0ECsLxB14vJbHFxCYOk/QoHEEzmqYdel8BczYLRjDpwcfWfklm9bsjNRdV2AbOA3vW3jcpc5ujH9VxpQUtNcU7fxNQuI5B70PjB2ZSBGNA3PXZB5G5P2mdWzHJUGjFpTrkuw9sLBJtzG77lsauUmVZU4eDRTVyKNL3FaDFcDNAztlO8WDy6dlMVkCYXINCrOXTww1MlNDY+FtuUYwTC4dXzifBWBtgw1biFq630AKg0ifcTfBPBzUvwQzWMk4jat7nUDojbfaaLSUOx6FSfPnGoDqklPg0ZaPMSwx4pxGjQwfMsVHaYM0mHgUTsIqH5Vq70ENJjSdP7Rq5bx6nNxBNBKs5+XEO04Ha61PgSrhv0BymWn3S2UGKq3bbHqgolwWch1kW3g4BnMw1YyWrk+HC2biDGraTZ2v1QGziAs8KufOOoZSwTD5OZeaMTMzKnp7RjxvLMC3KQ0r00oEhJnBq/PzLDohzZOcTwWvJV7llXfPVujXjJtYthqKU1jDlnw1F1EMwHRztFkIkDCsAVSJiDN5yzKzC/dLaxFbNwxNJLDVEDYP7PJ3RmFnaP/wCn8wqFjdefFs3m6IXfSJpbZfB5GppZDg2ciHONbt+IJg+g+qYBM1LS/awoSoqvUaFEr5GOZZGAesoYo6XFjVzFyju3Li55dRv16hN3353MoXQrHlXptB3LbVwKcQv3JtjxUYyHWZl4FQRLk6U5dObDdBD0LAXhkKzkymUgjKaahh4uWqKmirHXYPhxFCN7sQ82s7rGCW1FQVUfPbZatszA1sNxyngzWGarYNuD/Y/Z7idvGWpeTkwIb12+3uBXmi/g8DfsmxVAhfCl/ngllkwstLvVjdZNStMTsBXzdXWAhXsgBOKNfBdNQbaJgb9lZt6tUuouvQUdX8LJqDop3seBVN7VLC0FtDkvys0pUJstEF83zyV4TC2HqhVTXHlvM5mYlVJhPgqO4W5Yx8CvgY1EuZVwWO03TmniLvOYJqhYqdjeYjateVB3tMYiigvCI6acpMUnEqHVf/rw1w1BN9mQL5EbsxhIgTTVkHJfn9njzxqezUz8tYwVvDPfzGVOuZRW5uD2iE8SVSA7Lf0WEZd2ZU30bzyMssxyWE05u/st4lJdsAEeHy+lQSNbqSCvw9UhEt8GmVfAt/pSpcGQsmg2V/YanBg5WDfQO6GJO3EssjTi/O9yxxbCXp7L9zbLzqBukJr6H6yyNqndxsDHJiI5haHtGrc5K1MYC4b+Qd0c1G0mAlG0g9RydxszJxSjCfSWiRVYvsWrwrgqpjcHCEeklV6S1fiA+5syc3m1XxQylBAa/Ztm6LjOnALGuRV43XjzBYuza/K4A12iQatrdJy5YOxWpVPRX09poYjpyWPsvygfJktyO54adwl5qZAqeW4L4cbgHZbr8vYzsYslPJoeSkIwWmFfqufdmLXx5J2dWXpZxEVJC3V3lD5RcBKKFCLfLkguCqtHjL24gXc0iwmiDq/IxXUXoo1FHo1nkaINTGlsd9iM+6uRV9p7MQd63iuxyFzAMBjPoe/dZvr5fGr/AOhdkKMgAV2e3NH2IIq60V9uP2bZ+z7oQQvEobwHedvhli1AW+xXElm6tdI29rwRVKhGBs3RzFlQZFNZVFh95gOCjrBrtPSGON7q6abae3M2UK1RUNltt8Clrb5S0fwF8851aGR+XgfgqXmOhY2vB825g+wFdDeXuxcrtLRimYw4eEUUGzHi2LvqkvIowlIPyOjUNBMXHIDQcKeIKS6m0r80aPyRvSv9qiZF2u6IPK9ALThoeZSjKq8NvPb/AOTTAcrKz6g7ySkJGE1WXXWyErVGqjXffv8AZvvN+JQWeHkGkDjL6xcyCVUuL8LAFMPRaMDNKIF6I6b/ANNXU14y4Jpv/EtEo5x8Dg8Ulq+AVPBUVs+ei7GKf6UgEq28lNfyiDW8QvhPvDEBc7N5Lvm4pp7urTT2fcaGgYXlXwcMgoBrzh+JKBaodDD2jp5iiZKbVvwDklWtOScN+jjcq1a8wNe0OfpmVXfoBbD/ALcxFRyU7IZ8m4zlhs8qQpybO5m+/eYLFtxjiZyUcGnhh5Ia/ZlScNTxL1otUM489WVLqccBni+Dn0x052ubofh80RvbOKs7q/8AIdzALOdeuPtLNW1yLP27zMp72PJsM69XCWXU9BVwetsHQc6Srtj5l32B4tVQ6+GWJzTrXfJ3nMxW2h4KXHADmW7s4Dw9u83iLeMqtJ28c+u5RZ9bzQ0Nws9py02T/D+ohIAqONe3EwDdOxbxzx/Evcfwkgu9XGkCHiMXV4+ZYlXosWN5fExjOGmgWtPuGnPBE7rz3KM0l/sxNjCeT1XzLJeKWD5f9idnZuKLL9vvLxacmOKjy78MK8VRksvpeIa2EEsipjcx6RCy1fLkm/k6Ju/Zv6QuVwm2Ww6VPiWtrbq9jO3iB7QKV+L96ImBW7oeuPfMGqZAFzRo5Ph5gh/5CR4/uJXCU6KjLlvPHLiAWxkGLbP4f/IwG8E+Vk8K4+IRWYq0Wab1/wCEQ6uly2xTa9QrO+xYtI6Fz6jYt8h5JjDVw6ZlYIUvJg4Y81M0h2gU1sjW5s5Hbxuc6OH0/Za1MYlLXGNOfUBUd2koKw0PH8y1QjywKvm31i0C1y0mvwfFygVl/Anf4THySec9cwxGqWebN8mBnGQwkZ15PzEcClkHjfZlh/vQqjnEzWQuz5PzPK4pmiiSAOK/n1CW4BXOmnxnEvpyP9Vu78XK0myzI12xb8steHG+QK+iApSHdyXdcJja3UbyDfqEvTsAPYaOs8S+fiICspi7K+k1uJUYprds2jYBw1Hwad7mpgy5jGKiPyNamUY/j9kkbWgzbKgXvVh2ihVYb/2Y2dWHJ+L5R0t5BB2Wuv7gAtxvWhKxPgdxBHmA1XHOW8eZlfRMAbH9RuqhJ3l/RxE4c24eHYlZmjzJ7b0tzfHmVDS1IDGh7qF15Asu36/EchGfyXk4+kp5Lpez/EBWD0sP7TMTvZgPSsfRePcSVOKDwPQP5nAGhQeHl7mSeFYz9q1d8eoYI1w2UskZqx1yHEsDhZXyd8QaZzTVkotypsLcdKB5dQoWw2+Utt/Lmx9cPcwooYtuHHr3LsYH7HHBGVK3Dn/U03pA5/34lPMKpV4v1qWxbC9yqmcev5nEtoKlBzO3++oDyLVDW/8AZ8zskmQ2yAgJfRuBZTJjuGj2TAE+03T1NZ8BH15PMUKOEF0Ob6Yh/gbGNf0giZjhtx2Vb9zJATageD/vqUNYTRMGvqMMIDjua5/hADQOJp/6RzoA0xdXOGXikGmP9zf3hAUSCQbuDxFNaUByhXFZRrGbjx0ftDAC9vOhZ6rXzMHyPTYORw3glqVVLtTSxkZ5mkFBwi7NcoVDuG7LR9DFxKF4x5hZahP5jr9jOHH3IDDglN6J9IrIzi9unwGeMSwsvFrOes/3CjbSu2Ci7If7mOuMrhR2x69y3cxxrvtb/mYbL632Gxx2r2RQ3M7cYBy9bJvAHhlf5EbrCA3Df97HiVgAfZf05j/BgJR35lh6FucfjeYGpcfUz5f7UuxUHS/4Of8AEFco5i/4saxRKEcK+EvHeTUvdnmmZIWR+wEU4hnNDg70U0N3KpQeO1jpDPlESyf7beY4PpLTQJ5wYTYnLzHA+MusLJYauM6FdG9hlet7hgy2qBhZzMlLrfZT8TmOdzKG8L77/YpaYLiJNtyxzLOcC9yoL30fBq3GOeI7YqgLPdP3RiQ9qyCqG7qYuQpQooZws4Ub5rw/rzGYLyDHg8sg+/cVFQMNvVvhuGPqCiz0+4HEALAlrRwL/KlCaVxQimsQb0U+FDnXA/1N9ImOvX/EPxOIV9fyESWyA3oHmRSt31gwD5lW3Zs23+ibm0oDGIVTQdy4NQwhU3gLzF5pFtCndEa8EIjU3OijcAG15zBlixOib+Oc1ls3DN7EDlxjiZ7sXTzUwXPT5grUyl1R9sTac5Tpf5lWQC3l5hzb2auHcI+ofsKoHO30QK9I7+3CD5a8GPsfWJhEVbIEbzWvHOpoXWLYuCBnH+1MbczHbYCc8suqcRRh1bBmP5FGq6vqfPkmaqTZbiC2hM+p3v4OpfqaYo/kDoyXfQwaVXrDP7KHFFuXrX4IgZmWC30fHNdzHUOLjmn35RkPEfwe8pQkxd5c6ifM4OHBOVKIfN9EWvNN0rGydqbuvJqnmYi0E2S4Bfm5hbIQsFVTnqgb5zFNYK7W4E1io2gxasLIs3m1lVibQKUu9L5QTXHQAoweFcdJNtBajsosaGKhHATl7g1mBNNtvwJ+YaSDtZCgb3VpX23pZ9YXf7A8e+KBOJ7lFqpZ1ufgSENApejg5s0fMZdZrhO705f5gt73YvhdMzMDV9u2+4sJzEupp/tMVcAA3Nxr5D7QmweJC5U3hscxIHABN6PR7YgLru8cf8kIqotZMLM+EuLiqTNl4eR68wpqNA3VdvhyMTWp3TKP5OINwVKaF6fmhZGEZ5q4POCWQsTivC+TcA4O/K8HHqqPMCIzNH46TdN/MA2wGm8HfKDJEuu4QbWA9wcqM75jI0ZmOUiMAEcENcD5I+9c8GtDlUGl2Vs+IyFC4/zLr10gh1cXBuEjMPmKmFUwDDke21Pu4glm1gkdTpqMCCgtTsLfxNFxZD/ubnT/AAnEALlSp1BBDn5J5qXYzAT5LB7cl4k3JADqaUXhDLji0XsNmPnEM+vhNyMPBi/UCgBcxh/YqGbLjNsX9Hb2VK9scNTIp7HkqB1zBdHUdrN7Ecn5tOSDz28MMvMODTI/CF28Gdo9fnhy4lhWGDDajKOQOeSp0BbQn69XhiXNM5B5Vj4h13yZqlaOKK+SYompNTf61DqOBm42yGjxXbxiKDbjEUCCYKm+2PhhGLJNfcInKL/IThWvGWYkFmlKIBuK+iqCegd3uu4g0enoEFOZ1BR4lleczqhf0lfmbSiVtwDiUj4nhyTLO+5dyzi/B3EUogL/ALuS72fGZ8wR5PhApZtlNYxGOqUS/sVrNf1Gx72HRtnXrrUOJrnsqne+t6hFSSk6ApUwpf0TH4rnZo7pv+JbWoKql9AW9OoD4cViTBvX0iYnVCVQAeg9piOzvd871spQXFTlI+AceEp5FNmUXu4DxoM0Fz+tnmYyJhowv9RYxDbleEvqC/GPiu9i7+PffmoetBqofdAb9DOGC7Vf4DD5lL7IgcJfFx5+IZOoMk3A8WPmV8WqpTanxj4BOJ8gYwTl0tDFqFKnhe1SA/wEKO2uZRZsjqnLLhOcEs7CQ7W/xA156f4g3yT/AJj4R8kcir4S/wCYlRny78QAUWpCLqj/ALo5hMXhw/xMlfgRIF1mYQHNfCMQwcsULuk5OIiNvI732e4XaGXSzR9Nc3ELdcMrJ9vTzKTLdtKLbf1PpMT9uJNqWuOThqGvBRlszp4Ds5IXFCHc4j6MVoYgq4jG5+8PEqtCw0669ELQuA7RTf8AIyFibgFWuPr+6cVg/wDjRfqhAIcBbaf0HOVsPeFNpx/8hACspXQn5kV5ienv45BR2BPkltmk6C/lTQHuOMGJZoz5hWstQVGkcitzrKUdRhGaPZQhby0wKKoMUSuiB5BArPtMXC8EpPNEVbB8Q/2w4Fzur9mPhXvL8wRvf+wzA2VWfUo0EyzQin/p/wB4hF1PoP7l9as778S/VV46lg/hPM1LJZFbUCid7IwabkIHQbwTnp8JFjW+hMZfJ8uo7INQihtTp+DDOURncueeLuLlrSqxbI+Bjpj1fZE4P5yk5MwMuQzRSx6zObYFPrzECUnhaZQC6bDu+YB3CzB5KP4D5o1gVAcKceD6kS6cU5Hj0/yqWeFOU4nkbMCBem81IozhCGN+oMBVpbq4HlOk/u6pRvwH3glGXL5gXOPBMUIinb91icnoLoiajXntK/qe5gU3MAZDR1Boovwg4Y3zCgE1S93iBkQ35vUNf96vtz51R/ULjDqZajR+TzLPUsi3458iG1E7Jk8WYUL5qbpTtURMU7qGOyUT5CO80GTegvK+2IqUa9mYAVdF14Mo1ng8kdcsP13MrVWVZuD7tvSXz29dxAflV6MVDyy5Wfzp+YUha5VBy5se5q07AVraX5BfoShVtY/ICazyeFTH8FzI2NHkGNmYqTL2yv3XOUFtcEIrtJgt4paeF4vc0L9AT3C5XXBzzKuKoFBoTdyuvAr7nObt8EeUWdoOwHRLmiv9XDFC0vB3BkwPr5/7qxIdpbdvgiLJdekTHRmVS4C+0dzLhzPUNPhjGXMb4PxPjSun5lgNxhsE9Syp7JbcPxKI/XHNA9Qfwa49g+sGNfYAJYUQdlGYCv4CWgxgyHwpoNBppLMcE5C/pO7QaKgC9Xk19YYiU90VfKXE3Qva/UIUN/8A0ToL0cCO2Goy26rlKFgxGLh3LVbUBt8EqGlJc0IP+7l61DBfGnDgdHiXgo6tS01acoy1aFLbcbD2RKAdqBXP0iPFXaH9tUPQ1e0hatdSrCmXS/SJC5ysiq1+k/mHNEDxG9dY5mPQOTEt1CZAa4mx5cNS98FqfxAAUZUOal7l7fCdHxKgpwEbzf8ATbOrLpx/7MON73PqbHa2u4nKMN0Spkw6z5qKOxD03Y/mGHwM33/7yl+MHvqJxVgnHUjdSvlEgoqYzAzhCIN3GNcy2e2+EUQvuOdaCwQpveCvqljJDpj6mJk0bo5juB4VxZVeJ6N8hAPsb+IXkzsxfaWfxWf6jWHSuGCjPmFJxw9pz8QelcCmrTwMwjIfMAR48bJS0eCiU/Fm5+CKjrCz7DiIz5y39v0czD9GNpg+i5l8f9bKtHQEqSAi+4gAFBx/3RM/XLwHmakQ/wAGZYs0eYLCelTfs8pUKa+glfYY5/TWLxKwyYT/AMjgL6BEaZnI7meZ3F9ERuo0aj1WBLy9oqivrM4++bGn+pxGm+eZt77pGBeSkqGRMbr/AP4ie5YCLpt1D7S+yWnr7bhaPgX8nMMtbkds68Qp5hNfo5mtS1urX1fzGNG+PfmXGtkY7Kamhl5XL/3T6ngNnnTiH8kVsEDm43nZwFRcCVwXHa0G6nAYDEHnqH1jKyeDuOj9Lp7ispufUQGh+DH8LvbnBn+Fi+Hw7wAO8v5EXlhy/wBo/GcX8RlTs5a/pKjbcTF6yYjU+WTXSGFNoYB7oQodVHOiYlMLx4mLPErn9HUoq976/wAz0EcpwIY6L4xxMiAds+L/ALpTj6aXEL/hb6icB73DEo15EILraUz0Tio5AuQvlMPbcoat2r3KyiL7Da9Je663DbMzcc9YOZjO8ygswfcF2D1F258rzMciStD7g2O5CnW+IudzwlRMApLlUVc8T6ZtLntGane+AeSDzdHydHvtlMFp8icWpi/80Tj/ALhJyOiCXCbDUr/FEYVjkb3AWGHhAqjrpuUFaB24lEuHkuKgRv3iXWJEi5G45sBsQZ+ZlxdtsmZYfkjSsZYLDiCn6JriZTZOTv1NbTOLJzU3m76xDCM3AjRrLm4ZNzJIMHZDnENP6Fc8wBClt6fKLGU6RdCKd3LXSNcXV/7s/wC4h9KQcf8AbIiFBavEWqHyOZz+HcRJjtmOy2u0mfuFxQ8BKMzVrMQ0PHDHHn3LrozEKsj5rYX5N0Pk8w+hftr5A+dRyVMy5Ny4ZquHaoLzU51Ljqo9OIKIl/oEpWPmCFgvzK28spHZvcZbyMGzGj3CsL6cQcIjKV8zzppS1aTX5pYu7HFfmXnPlRTU63bGb0jTMjP+nTx/3KPiWY2JyHTx3HVCNeY8gTtJd0EO7ZTEBjlbR9YqYFcIELCnMSYydBNCW9zq4NxzbC3WzO34zzcwTHZGqvb06fEZaFwX/G/EB0XMPbHWrIMuyyqyP0lMXNw3jMRplGBi58XXMEabr1LwplaLkxL8DF5calSBrZgqrs1PmG9lNL/VmXMx4hAr6NThUI4lLKrWmlZZf85/7i1NVX/Tfdl7kWQpirXkNSwopzbKDAVcp9HsmPaXkz413rULNvb+kAHMHxy43eXtS3kXDtejhPGfQSs+ogjHRlw1bsl7D/iyBGPxmLzZqFlT4CYvsGxIzcECrEIkKRKs0lxsXvczazcG8Xnqf/BgC0i6qIfILoINhNlA/CFsQw+m/kmJhwVb7z8sGCHX/wBH8wyQxGRmLwfzKWxcXOCBw1LMm00wH4If9zuVm16P8qK8PyjBsZ8hEcjeSDoL8SiBtjgt8Tx/MvHxdL8ybHoPZ6YvrnWDynEvDH/HN49m5gnOba+8tsi1VcYA/SWTd1FMXfkiMYaAmKX906tw0wfBc+jEp51D9p7i/wD6xY1X/wC2av8AkZfV4mb+JoR8zUq2N5UT+IUCnBt9YD69UfSH1JxS/lGbD4V+ghoML9pYusGoU0y6I7gbMc9StZcDXEQ3hMEGN9nqja+/6htUKD/uCaRzNYfK2s8jHGMnxLCNi7UPibKT0lQTAmwMscMvEK5V2NGFuznMLJ7OonFQa5igssYMCOcnRXMbYJqm4klq02v4h+FuVUsaN9KY1Ei7hQrm1Ij5cL+I5AfhC9Er1KzlQuq0RronmZDhNwLVHuhxDlZODLvcui+N4jAoD/Jhv7Alam8rrxAaX03/AANrMzsZtw8oRjc6uW9+5SwLfzB2ZxG3j/5PI75V0f8Ac9shwP8AFEZHdjavbME71Yg83+iZcewmlCvCLWk3yQuobczC1VG7gqauhfZEMo1dkcIHmMo6cksiVvo8wrYlQ3DOxjxDgMc+pRrBtp/iNpNHaVIOInNugEqjAKKjGn1iStvMytXyRWoVXxOpX1RzuYRmNqE88s2y9srSrKvL/Mp6q7arxNNlBuAM1fXcA4ai5eVgy1YGZD9UZ6PadzZypzKWz8mpbQpbrgIVZqX71rfy8/0+Ya/7d1AfgMGsdl3ufzwSVvv3Op9EMwu3BleyHakMo1XZGqtDGVmTyI66rAhYWABme5SxqOgMaljEwDB1u4Z2ByQsqR6VBqg5kZLlhz/9iFTUDOJQgMoEcgrVXEQ+oI+kgy4HLobl296BGenif2glCXk9xEbFoT3hthRPGBS+4e5Y+Eq6UOKcd3L4cjAPafx5lnnzywKLPRqNtBpfyXKvdkF3yfxATT6UVb4gDa79yvKnEucYH5gsUFB1/wBtSwD2vb4i4rp++oiFYXfxMjF+Y05CuSXUo8F/mE9+ocr51MnihryJHZ7mTzcNdY+YMBUOIl6DPT1G6YKK3Z3fEqVjqtCMzaIwZGVmk6jr/LNPINmoy0DjcaoP3eIq1prAg5KlFKLFUtBLEIri0S2Bxh1Dk2PZg7A6ibytEFg9phkc3EwVGoAsEoXb8Tk+zEwX/YnWOz+4B8pnfcd2Len0SyICGEH8sq18cHMYxRJ0Gz4nlQl2uV/7e4mp76JcSXDgdEftZvl8x1A3KyP7/cADJQENS6/2U/MFHy/hNjnqKyfC5jIZgx5QHt6pc5BvyxzFV1uVi4JywecFldwmJKwcMdBQ5RyeAYGX5ApcehuAaeD8xlKnVbjP9LUyLCHmIcWpPA2FS8CUMJ0jwrcw+6Ylu8iFgdiLIV8TuZB8wy6xFeL0dE1kfsOo11ELWXq+o7qmSjl4mLTo8YNf9q4uwPdu/wASzW8XU39bmBTEvkh4CdP1QGXrf+JwAU3vpLkByHHxEWizKNgFscg8BFCpmZroeoCDdBbqAVNSnZuHTBFQaNxwVbRHmyYaGFs8JWvGWa8RL/THHl/AngDkJ0wr6HdekVn7JvrMEAnyI1hs+0v4CTQWVwx5q85mg9bvmU6YmBp07lW+bm+oh2GqbUlTbu+CNRcq5jk/p/3SbB+8f7isDwGknaPMu0jBgWRb3V01GsEy0hS7X7lZH4EVU79maK+lTCTwIM9v1BOp4rEMsobilvmLtqvWWAppqPtgXoGL5JmZFrHjTH5Hj3EOQ6zMzM4E4xN5VMjKzEX5Yy+0QhZ/KUJ35Ios+jOhUPFPM4cvZLNY8EzBRw48RXbayvMIL6cPzGY7tbmJeNn4irijxuh5YUw9DQf96lo+Q+Y0Xof5DctkdvX+5aHPncB+fiUio9k2Wrq5nMobupc1fufg1zNKL+JS8+gZkIH0gHKnAWJyA1UAsq7Iuq1CfWAMwsRckvW7dNSiOKPmUM5o8ZlA9EFjmXqvEC6BvMUYG/DPA1C9TIcvMA1mLZrEWX01Vx6+P0qZbYb+ZqaWvy6qERT7v+wVS/u+k/JP9QHzAh4AX9RCwp8DDAvk5UqL7HifaaNz+DAt6jd3XczF0NTZpNQz06RwEHMrfG6tEVQEcA46SLRgHiIiWtFxE/B2d9k0wXtCNstcRTbMty+jpqYOXoyl4PiEuSK1T9YMpoUNiE2DjepwfVKoZsu/EpL3FwEOuBX+ZbD9iEUAjsZalnk/hqW/t7fxGLVxUP4goF3yfeOSgjjUA4D6iGbEWeUdpdZjRT9CUOGulTGYG2SlrcSM1MvyBBXjY4qG7XslOzHaqQLJUpyMzolm0tLzBBa/RCxmV0wy7UQ+rTHx3X3Mxh/FPRD9j1NjeqCX967/AM0xVHAq+hnYDQ/iJUfdcC+wEjFuJ1DcjcVO/cqMJgF9ILA9rlkxeEujqLQr3A5IihRHgvEH7JanPGPUcolbYh32jcqycGCZJ7pqPlgfQmFy8P1WVRNQfsymSYDJmIdk3TBubLNP4h/R/iUMhFBo1yRoYeEiVqK5jhvLEoynxSrgzcvcaUU55gDQaNQ+CQZIRCu9B7YK9uF+xFj4UZ9ydeDTJ8I4TsuPWSIAZMDFaLEPygvDPH+Dx+zSY00OHF/P8TEDwirXR7miFCIh7w/lFYXALLygwSXd2yVCquNMIwMOJmszqb0IXyTFayy1DtZAWlpcZl39YF04Vz5fP6pMI01qIS4Y+Q8IVC5KOP8ARqK4CKb/AAWGD9mOFV7lLv0TpCzD+PE4JAduX9GCpWWM4MsvntJ11/cz7fnRKmM10/WGiuhRGPoI9ot7ItW2bbR5j2b4xWeQ6GFaiAulpW6ll1rSJ7bvlmUrYTWPbtlF0bhtgKMfszxCB+AhbyE3+EEeqkuqIACgKD9CBtAfWf4IozgHPdfMEsXhwfobOBljX41Xgy+wjkahSAcMFXwigho6mwA9kzRfFqLr8SVB/Yl2oznEB0rxM42v+5xf5Xt/ZhbD2r/E9ZUXuYlFAwH2IE+kH6VPXOV/TG0eOs/11Mre5hx+guGnT5196iSEFja6QjAKMfovHWLxCEA1bagUlC4dr8+J9eXobGrbB0o6JeKCszTg+eHUP2XVVdpxNkX/AJfliUxK3+lBYY2ry/p9/c14IJSxr6/3uAfOI29Q69ID9KrWv/Jx3LmbB6gMg9Ht5/U0lbqyDf3llEQvsXCC0AlDD5My+4xzx6ZqpFKdzKFSeH7l6Jx+yyZWg3FSLLX+cZQc51FZMv8AQFqZ0QSjWKDNu8FiPfGepp5Nvb3+gLmHQb3r8/PnlmglfwRDICgNfpWmGC/UEVjsZDR49BKAp0m33B+qWRxBgLgW+x9YcIVAfsxDfI6AgrgsDnwQeU89foteo7uhr6K9TkAW+/3GPk/oEVwDbLdWk27fXUI3uVnmr+5qx5/RE6Sjgn0FBH/+IxJHAMuto/af3O9SgXkeP1oiuVUdTPjPd2mEy3HT9bne2o6fmI3YKf8AnqAl52ePH6XC0gcPyH+5ijIsVSdDnIv2wIaeTiZLVtePMItRFFvOMNjZd/dX9wD2pR8IfopCl4XlO5IQ7vuiGNaDoQ1+2K/W4esxGRrsF14hy16bfcNfpUiHyvUvCKoKiRs+6gUftx1mB7Qt0IRCg/RwMWlBWg4dgOM16mggnH7gTfgEtlucYbYHy6/cfBvL/wDgF//aAAwDAQACAAMAAAAQ8888888888888888888888888888888888888888888888888888888888888888888888888888888888888888888888888888888888888888888888888888888888888888888888888888888888888888888888888888888888888888888888888888888888888888888888888888888888888888888888888888888888888888888888888888888888888888888888888888888888888888888888888888888888888888888888888888888888888888888888888888888888888888888888888888888888888888888888888888888888888888888888888888888888888888888888888888888888888888888w4+88888888888888888888888888888888888888888888shaippPIW8888888888888888888888888888888888888888+HwQ9J5sM0b888888888888888888888888888888888888888Xl0Eh1xkgZ5U88888888888888888888888888888888888884LtR9tcdYVlc488888888888888888888888888888888888886xZJkZRxg9pLC8888888888888888888888888888888888888SsRd5ENbzp3s18888888888888888888888888888888888884+pNlBZ5YmDn/AFz/ADzzzzzzzzzzzzzzzzzzzzzzzzzzzzzzzzzg2j2SwH1vUPNvtWmHzzzzzzzzzzzzzzzzzzzzzzzzzzzzzzzzy73Fln9fvVk928eeNW8JTzzzzzzzzzzzzzzzzzzzzzzzzzzzzzy+/Gnzyd+dkOstv1PW/ev3zzzzzzzzzzzzzzzzzzzzzzzzzzzzyc3nAlFADGzu/tdHmRH80TzzzzzzzzzzzzzzzzzzzzzzzzzzzzzJFVr2jFWVuV+l+ScfafHzzzzzzzzzzzzzzzzzzzzzzzzzzzzyZUnmNobgWgu1vhwjk1fXzzzzzzzzzzzzzzzzzzzzzzzzzzzzxTO/ORohBajp8K0vOOa9PTzzzzzzzzzzzzzzzzzzzzzzzzzzzzhaaH4MLLa1Sx9zHOr/AJAP8888888888888888888888888888pm6yEPg6m653Tr5xeCAHSc888888888888888888888888888tQ8m+SO9dBX6wJJR8uQWFc888888888888888888888888888tZRzHwHEHfGjpJwoFUgcAk888888888888888888888888888+4RZoxALqVAhrOjOVCP8AZ+/PPPPPPPPPPPPPPPPPPPPPPPPPPKRFkhUf+FGE4pDxXicPJIX3PPPPPPPPPPPPPPPPPPPPPPPPPPPPoIT2NFMvl6oJeVVy7bH3HPPPPPPPPPPPPPPPPPPPPPPPPPPPPPLGkM0MfWxsKFjhqEcRX9/PPPPPPPPPPPPPPPPPPPPPPPPPPPPPPPDHFNJ6m4I/aRNfHL8PPPPPPPPPPPPPPPPPPPPPPPPPPPPPPPPPPPPGDZi82DbSSWVCfPPPPPPPPPPPPPPPPPPPPPPPPPPPPPPPPPPPPNcSlMlVr1LbMjPPPPPPPPPPPPPPPPPPPPPPPPPPPPPPPPPPPPFvxv68009PrK6vPPPPPPPPPPPPPPPPPPPPPPPPPPPPPPPPPPPG3Tu+mrclmPPFXPPPPPPPPPPPPPPPPPPPPPPPPPPPPPPPPPPPPLLFiCRwufvPPPPPPPPPPPPPPPPPPPPPPPPPPPPPPPPPPPPPPPPPPLPAVdZ0PPPPPPPPPPPPPPPPPPPPPPPPPPPPPPPPPPPPPPPPPPPPPPOKpPPPPPPPPPPPPPPPPPPPPPPPPPPPPPPPPPPPPPPPPPPPPPPPPPPPPPPPPPPPPPPPPPPPPPPPPPPPPPPPPPPPPPPPPPPPPPPPPPPPPPPPPPPPPPPPPPPPPPPPPPPPPPPPPPPPPPPPPPPPPPPPPPPPPPPPPPPPPPPPPPPPPPPPPPPPPPPPPPPPPPPPPPPPPPPPPPPPPPPPPPPPPPPPPPPPPPPPPPPPPPPPPPPPPPPPPPPPPPPPPPPPPPPPPPPPPPPPPPPPPPPPPPPPPPPPPPPPPPPPPPPPPPPPPPPPPPPPPPPPPPPPPPPPPPPPPPPPPPPPPPPPPPPPPPPPPPPPPPPPPPPPPPPPPPPPPPPPPPPPPPPPPPPPPPPPPPPPPPPPPPPPPPPPPPPPPPPPPPPPPPPPPPPPPPPPPPPPPPPPPPPPPPPPPPPPPPPPPPPPPPPPPPPPPPPPPPPPPPPPPPPPPPPPPPPPPPPPPPPPPPPPPPPPPPPPPPPPPPPPPPPPPPPPPPPPPPPPPPPPPPPPPPPPPP/EACURAQEBAAICAgICAgMAAAAAAAEAESExEEFQUSBAYXEwkIGh4f/aAAgBAwEBPxD/AEF5BZZJONnxZE/gRM/EHgn8Oo8PxHr8csny/EevL54n4o7n8M/Idn4xuXcnP4vwhB4J/wAb8fz5cFuR3tXXD8AfgGfOWZ+ZeolOJtHgOeOoWtPe9Ruc/vHc9wxPjI8P5g6s/wDxMyt4bEO9u/gNsh4smzbPzzwdCeZermy59QZ+8R3pCM4gnTCSfVqRqNdTDA1yA7ZfqxbqXZuauUYAYdfvKBr1N14XFhYi9yxh+4DwRjddeDH7ji1nW3PLwT/vzgMzWwIYJ3iDDbMm5gvE4v639Yfa3fGeMl7sz2oM/dXLUvx7jG56dRMkgxzYuNg8PJPnBgTi2TyYfeVrL+oM/dbJW5sO4gUZo1kD2L+FxvpkPsu+SZ5bPBhjHHduavNzJxAWOv3WytsFrZcEA54yFqMrRxD4uJYI5N5D/KXWXJGx7L759EEpPRZ/RAUCYfvN3bvdVtwuZNhNHe2Q6lTslnNnLK+nJXppY/RPBeE8HXfUqDf8Kbh6eIn3Ux+42xOU23qwrJQOcuAfUT7ZmjmRuI9hmWejm6HLswojR4leUi8JfdNwAhPGGH7xODZOCMlx3PfdkFli0PDkAeDCYC08WwrqeHgDpP1Fg8qHme27v3ZE6iyDPgeXrZXkmGcELHtbsR308MI182lrEp6WXfNvJ1LH2kR7ICDuz4RXSO04g8zuS19lsd53cUsLsjrmj1yLN7oM+GNSyZA83KHFzYv5FGKxDHUQ9PqwTRnHwwbP14E8TALdY2f1ZagY6DlkFd/6QoeD4bIc5u4wy67D2+AG8RGBMMotB8MGsuceBDvxolnF3ADnu3fOfEDW7RzKnBNwR18cOS7BsucfIjn+hL//xAAlEQEAAgICAgIDAQADAAAAAAABABEhMRBBUFEgQDBhcZGAkKH/2gAIAQIBAT8Q/wCbt+OfSWsORqWh4ktRb/CN+IXkj+I8O6/FXBrw2nzOK4Zp4ZX8z5A8I/MRPisMQfBOvifJ5YSsvVz3iaN4DSHxOLl81Ncot5LtwOuj3A6gyoIb+9p+V5aoSnFEKlW0/WmoFFH3mMuMu/iR4XhYFylYABHs69wAD7wVRuZSwhhijcGnMYV1LG5nCLHUFQBuWGoLAQK4Ee8Rrdz94FaNyr3yiLklWUzoJSbmYqS3qWlrM9zDKJUB4ovgGLg7uoPUOQt5hLvJKdypZ1Fv1P6gvcv0ztSji6lxLWm4PTYAFH3iT/GVeKlBuLn3CV6RTZLFKiXg5JeRW3ALgjF4EEA/sAUfewYhWDhQnSwS7UIXTcd2QizDGcIN9cE75bTUsTGhDUGZYrZfvJhYgAUGIEEAy0e4IE4w9fEM5JfVmL4Lgy3TwCgG5pBH2qIdUVnr7rNARHdQmm4hmIQsY2xDJcJKoPcEPqDMOZW9RQCYZjrUf7TGh62oAo+693RGnEDmHGWHUY5suY1gUKzFXZKq7uWltS0bKgDcEgkErMLrrMQKYBby63KPY/eDHGN/5DYkps/yZGrYlalhmZYYmGy8Sp3Bf7jhdSxoMA9Q9IBhgVUbFEfO0tfu++l4nXxZnMDZP3qYg/5C7cLS4254x00bQcSsDE1IxeJmsbh0vEd6iP04n88Eg7ikH24uDkmJxmSUoZURgwbURc0SLGUJ0wRHMXrzcAFHhnQdQXUG0piM41lUvSgVBuVd7S8LDa5kDKVvZ8Ox1OxiO4FJFm3MAb/cE5aeDMgz4eUTEW6ItRbgVF6hGSKiFasfbmwp/dSkesAUeFVLiK8uNdwItQLb6lRHByEEpmkPDOcQA1GhiFq2LUW9QKlETb466oKK4GS/JIKP+hH/xAArEAEBAAICAgIBBAIDAQADAAABEQAhMUFRYXGBkWChscEQUNHh8PEgoLD/2gAIAQEAAT8Q/wD3no85OKnOmOIfaFmTuPmCec7Jiw4PzhxuuIuCQnH6ZOP8czTGX7Zt8DPVm/fHGFVqWXtHYGCQLhMzoTWRIGoFETDELpPjpHtViodnHoWo723dMGjoxvewkOVaEAlDp5zl9TaIINAavSVclWKjAiOQQDHc1gtIBRY6iiuk8MKBwZBECKxAHCnrADOMBp0dl3vEquNAxw2D+laScezHjIo3ig4us6Ow3oecBz2JCtGzpQAG0CYGrGehYJvKFERAZVmNI6rK5AsXw/ohEqJW8rWNuDABTOhDZNrnALMJTQSfA5Uso+eAlToVotQAgOEDAs30pIGkfDUR5bzZLkrrVvFB2HYsxqKU47QQjbBXGNe0l54BIUDaMTJ/Mf6J0YgDImGEFAGorBZNu0TeT35yKGBTQbDjBigT+z9Jv4ZBAeFVTZzMoCOmyx4hjyCdZHLCQDDRHos3MwnTeNjSg4gc5RU3mgQWimxUIqiTkcTY0Vtx29AUB25ASaCcbO8e4Q1hANDMB0hKFYQcpgBjvWATeauINvGIYUUATSxgy0EAyESd6TgS3BxDDAiLYZJokAgCCtrgNkpG4FiJcLlrlTuskxSpATIBMjF9DVeNvDT+g4jrRMOQSSLVuNr0M7UVBQWWja4a0kV82ApzDo8mHSSvYLkfZ+kX2k2OS96Hcyq1H6uoAhLdaOQxVFDohd6LaBbG5r+iJJRnSOJJUDjHCYNJF4ORVCW5ShTycJcDKARzeASHlprB7NQ4GEmGBFGrlcAEgmuMM5ILTutkwfCIDvPBGCCik2TQJKuMxFhRLA7EgERsJxu261BoAsQTN/loQrLHMbbhhi2YgLWbRFlIDDXAi7hBSAW0RshtOJbBnKpQszBWnGaIagEMsIQUGCGPJOeEM3CLVDbzktJSZwhKqqaU1eM20WlzR31NrhGNEon6PWmGp+OsD3VEFAQpAB5g+dYkmmdioBwI6ALimEjQgQagCPCpybliQUhIoWuiFC8oY6EkAAtVbYTLw03GE1KFohLzRBVWGAheuPHC6AEnAKrcNRMJJOiFqMJhe8suYAIOblQKSQbw7YSGNzpTX1LQGESujjNGlLuYOsLQWEW2GTrAQRuUFKZvelSeFwCQzYAECSoW7qSwKs0oPBvwoSsolyj6a4DUFQLCCrc8hGM5JNCA5B2ZJp4xStRSLC0DCWkgbBoayChqzDOb9QtqgcgjezAsQ3kQsfhv0w4/Rzo6sjQR41hQz0hBAkPuIOd7kJdsFCKM0hiVYshcI3aPRqhU6VmccSGJriExo0hTHEA0qvAakkSQZHPA1Qc4UqKhAra5aRCWHsCOjWD1rG34p7KwyrQWhe5llt0X5FJoRFgamSfOBNRei0pyGpgVmDRldCnlbUU4zqm3SalhPJrta7wOpXFegndEKBp1zW+rurKeh2MADjEziGwdsMTXamYcBWqorSENBK5yN6TSwzRpQaS1mA+SYJbJEgZsHunC4h6tL0jAcYqSMjhBNXRAukIYxPbpWI4U1w2H6OdrjoiUq2Q57dYtcuLFbOKPIacacFCUQqYDolSkBvnKES2krstFRKNeMQJCXiFnHFsGAma0NHAaBd7F4axDCxH/AAqRhFUBBXBfso/ckFQ0IojLmrgaok4QGmrBHJhZCaGmnUnl0FyN2MA6eOPpAIac4ZxE/UGdgpFAcTJ+FriOhvaeOWccZJmoIkyHVWnLBatyRbgpA1QnvjREuFScss1UbFJAQs4w1/8AMg8iuaDDQmOSow8Fz4xFVrbkDpHxmi3BBQDy4toQIER5SA1q6MFUjRXSSFAZ7RDvCJdV/NedM8t+xjoJQqjrp8fo0GeEXwGInaDclCbQGrwHEN1B0MZ3dnRVwDi4sW0pmDTiGOgKtZFriBfB7wV22lppXQBokTbecUiCQKDwt+w1wNEDQW3BPIbXVOMYxLSlXal1O2RddYOFJjGMbUJz08amIQEN/Udv2ptC6LMYWCpdQdUfdQp2mb62iBdpTtQEu94AoQN5JYDi03UzQTs0vgYl2IJHjHQS0iioQWEGwK4BPejCaGsK3QrgBSgrY6OcNYSXAnECqx8bJzzei5p9Z7SLESJVRXGDr/rtAINFupvFT2KRpgKxSHfBMOe33al0aWgauG4Jx293vs8nWGj9GCyzQbLUlwCG2EgfeMMCHIoAU56BvrVdZvPyxvNcTQby8oVnsJXJB00ySo/OKIOhtKDjWFwSrotAZWJtB3HFdyWmLVRilkVzi6aRUs28w6WFvBrBJBQBFNBcVEN05DrHsFKzlidbV5mBkcTghSnyTaucQqTpQj0gywC7HHNM6TDhNd0YrdGUuhRm1pHR3hquJzaAkpFNpQ2CcuQBsAbGk1aQIowaJ6GqjkdEHNbM3SggPUqMM4ITAXX3JIBWsl8G3ZhIoiSGKtVOhS8QGKV7n7AMaqSeZiYrYJo3Rb4uveOJJWyLprhx44cfoz5olYANr4+esZjg/mwpgFBeQYg1pZiLh09nm9mKRKbFlASwDi7xZd5ReIUsQ0bpxmzmD6S8JKxfDveOQlUuw1lDQoXnBAYOkW0O6kBIGB0MCQaktMY2auG01CdVBomjR1ha0TpEptgJDfamc/BqlkcoeIovBikcExFwzSdDdcOqAjmMN3kDTbiC7g+EoWzkHW3GAQOEOhUCcuOLFP20HC7KGrgKddIXYm0JWa5NYCVtW2SR0Qo9EnJhtCpxQ9rSKGw5by7BFoIPGAgo041hF2DAUkFH0O2N5wT1aFIIBpcqkdTjHpTKbLXFBAnWs4OPr9FnLgrRTt7MR51xkW9C5H10REHjIGdcRsBs0cMJrZ3ghjRT7yOCrNdrcbLqRN9XA2juVmB4FQZO8EU4o6YEQGJd9vJMc5Kd+I3hLql4uSFwCXiAS10rydZNwFIkiBRS1p7LgGQMGWHghtA3pcryixIQNhIlA6We8NVVHNG4flJ3s+cKzorCI1XJ2EESGQEdMFJQ6DUtiCcsY3GgadHKG52GnSYq4bAbORKCQZXvCNmKTexZ1YcwNObmNKC6CyG+OKjeFEo1eYPZT2XJaiSEBtSyb1TAoKtbu10S7NnNWCjAPl6G6Eu/eJVtJHAIEHB+2mDxpD7P0WcuKJcfkoTkBfLr6yQQRursHc7VtRwUBR1hMDB2RZ0xh9HRGITQ7g7wC0WI/sikiodwMq+RGoOi61TZI5z0Flc6kDQgHjAq9TOdBdFBHGp3MMthGA8pIEYG6HNzK9tOFrkoChITB8pOO8BtArwttM00IgGUnLVDacOTAvZxCR7BWFLQqZXiKNE99AYDrmOsZHyhkkTqsN+TrgjF9JodzddF0yYOoupiQRNEQmuPeOtXJ10nIoxOsXp7qWg2jYuyZZqgKb2YQsqctY89Zh0Syu8UlSeh2hTZ3aMjEBcYAkEDs4dZS7ykE2r4H9iYFgAtFR4d/H6LAK8HP4w7NJOl7HdUWfGAoCFZApaAgAY9so5qi24MKOxxlTUy52iso1eE84dmBDpcsrpGcl42hcEhCCxdnycODReJRZEcQKG7rWNf+uysQwFCWTng7FCT9JpRXvGkR81MhHzo2b93BgTBAS1rubfSXeXwxCIoiLuD0897x6kg+c5XSvN5u94Za0XW6boQ0dB3lWsyB0IgMfs/JgCdIbziDwAEpyXFA+oKdmzYArdd4Nt8JqEQ4hGN3iuHPJBbfLK/nU+PJlU80XjJS3o2DKSZL4xAJYqu0JHOqou7mylOqw70SxW86xxDSpSQTFGmpORwqPbRG9304YF3Ha8OHH6IWmIroDHtDW30Xo/nGZyBLbRAJen5yHyTWjhUKqusS8W/oL2DwOFt5RuiFA28GjmheAg7SZtxXOCip9ZGIbtG09BibYdSDZJIOj1h4Idg8EtqNXEyBjHIKOXamrNEpoSik6Guf54xzSdAIAEc50zbqYb3Q0TgvGO3bWsjmwikqPtQ/Zu5Ef6wRS3bozq3zhSPcjnd7T0THJpwwSJ4Tfn5YBUEQGbyECLrIRhygBELRUG7jgbgwhV5UkZs94kFH0qjXEewhnMssj1J1srbNc5XGcDLRZUS19YGBvGHOYEEV/vHIEPsuwdQlHRzWwcIFmqyPzzjy0MTS+n1lgmoHI+fj9DyiwC1eD3gbUz7gev5YZIB5QL/AAOK7uyHAlJWzanLrvIi3qCSIW4Dpv1xipz1mygKViu8p9VxtkAo87/oxINKssjT07F5swbC/VQMDJAOnfWTTjIUJvFAKbdjHGyIgQyLdzAw7wpTE3InI2Uh41NYlNVA3ylxjym8QAev6d2nOExc2NYO0exHrACDLOHWXptG/qYynYlXKXsSfXvEv9LVoRfaZaJhpQI7h6XDhUpvgXaODxjxAmh3kS0HVMKmPlrFuk5FDWPKpCA1DRQNNaOFwWMEiUKyAjLwj3cidkBgiRcE+rzTQeEILhrB3VxxK5FSfsPWEtYQxIh6503ci6NI6dOBsnmfuOcG7pO3Z9YcfoR4yypAOf8AkcLACOsNSUg5UO/OAXkiR7JWBDou99ZUpyp0kUCA0ImNZdGKUMNlHZvRvAAlEWApDU+QrCF+Th0XYE11R3lsEG1noM5seR5DOFE574ZXaJily4hYVahxkeEMg1xNB7tzek81qhwJjCSVKHudmWjy3AuQxVmHqJQHe8GFttldPLew54I44VVqE+yLjg9SXzlR4Ot63rB6MTUVcPUXwZVKNyRNNJtOtYiEpUvA+D4pjQw1kdpNVBETvGgWGFH8X55u+cds75UHtzgB1yzp9ILYg4NinGElGpRsq3UCfMw1oESPxCpOnrGSWY0SKMqrVIj8Y8j0qBfhzwm8UBTY2gf74ocxovGRa1Dx0/phx+hF+j0+fWU2tDwDoMi2ELcYnC3V8F35MYl7daB0EHcPi2c4wdEkvcTVWP8AOFZkJuRRhXIRO8Rj3JjXNSEqcsxTarurqJJ1oiRYrewqcwQqPXDGKnkfPFFyyFUNuTTifQtXdPN4YvguLMm0rz0nCRnUHD8FQ2oadYLELYtNIGmNm2FxwhPRDQGcJfeHsHDSmkB28E5KyLEicd5+9DXneOTxIeH6Lfw5Rl1JrUbV2ZJN5SIWoMdXAb+Rxa8oMKLkAGapigmPojs8cSOXEPChI3NJRISvti3FU8d1XCih8sfb60HkBIsBecZNssbEEQAJ+WK7mqFc0mmyU328Jhe9ilCgrY404h5sONAb1gpHv+TGQNlR0mAKYxvrS84cGpaqfnFJj/gb/v8AtBihx8Mtnep8neH0d/dD3xCAZKXlI6NYvZ6ZS4zoI8CIStfnHDbQtqTA1qni4o67KThcDQf6wG+OYUMaDnlZhYLE7BuKKKrt5sUhu8UBoQ0xecQSQw7Wc8NohFTIHASXBIeT3msBFp/V6K22UdtM725tjJxqtR2uEktMWJjyOh0uQZEEbEPj9PLnG6R0s0d8vxjgKRUFfV8HtxXOkTZMEdIOnHX4Zy5bEEHxvFPg3Qx5tSoPIYprnE/KekSLW4qRviTCBpDXbyzZULt3uyQJm6Y3T08E3SZEipne3H6YogkTUYsw/TESKxaDUDOL1eOm01LHEfEycQhYAAA8QzdPsZpwGjA/Gof5wcIOP7Vzj9lK/Z1jn/t1i4ZCvRL+MNf7/ZPBnuv9YsR4OfOfVD8YqJXUVYXY0T8YA7qFSSLVBuePfEByYMNA3AAp1ZgwhXk6HaHmll4MlmkLY6Ajtwhv3jtmw2eDHlOBOUo4RwryhagKwQNZfoQWQUMgh1lOMjOXOA0V3ScA3omDMuQRtutVitTZlEswDXwO2ggS8ZGSLY6gQ5T0wWkt2Nd5fACYEBueQoHnkn3jR4FD8aeYYnFyvGigvIyjblMdrBIwK+jVeTFmZaV15wExwI5lQLR1EcnAskL+Y7yjuwOHL22Trl0F5ScjCJICqI20BBTCO+n7MWgESikwkTAR1O7O0qmtuDW1hQKr2LRUt3cKCikgdI5dneZAHepmsaFOb5xrFgglCpS/vLCz5/pYmCCcij94YsG+e/ZrEx82e1HN0FFofzvD5qNA1ea5xAlNQia4TBr/AHm3E/usWM8meRBzduxrDutYZkNIJoVB7MIVSzU2A0rfK3oy0cJzaNOIsUH3iT1S7UsIb6PeHKmWGwmkB4iLfDLzKrYqgAJs9BJvDchgEhULy2GtDeOg14oNIOocZTGc/QRjg6htj6yDYZIqsOkz0DAiMuBtJ3Tb4MNxJubNF8OztuTAhykMXlaeBwo8pR4xnUg8y4mEFJFUGcEDeEwHHACcAnlV1MCeKpsXTIlblsM+Pk4M22q6e449l6RJBrJOqDBY3Ca0tAIrgTKqIwfuAalajyoMfWEqKNmgUJiEnwfdxkOxs3MWi4ZnV13QcKHBn4kF4A6J1hGpIn5yAdOIW9n6mF2OvwMBFAZK6ZRYV2kH52D93HszQjv1hSHU8/BwYRBfXOH+8QnEfgg/ZyIugm+3C5ccPkz2CmFTzZQ9I9bx1lX2JAA8x8sbEXFaDY6CwSS1MeMCqANjlepGC1Lxjpe2sFTlUBYxiKEQuQ45BZXgy+WeUQJoWRXlRzqFoaINadG1tMZ1VQtNDXVMFTjBWzkBpeounnXWCr3AdVa49RcAhIBdgHiHEcWOwwonRT0YObsFBdr2xHxh6TRw6EOUEeMborpXKrNKT0jDFoTZouHaaugZNVFIc2VQNAcowkKCN3s2ag3oTm8lKmoECOG2lMLKRSZXsV1UlwHc7kmM4PANI1jDSG2XUhuItjhTVAOpyvbgnsDKqdq3y4weif3jcoGEtMRKaePmbZ5kqsL8RhkRCH/JsNuA2AzsBp+zCFWImpbD7ObkDIduhkTkAPg/rBDgr8s3hx/u3jJJtj6i2bUHJ99h+cR8KD2nWXnKgco6xcmrAwXRMii0Lt0iEVJa5zVAYRyCIwz2MCGF5uUKA7AcV2ppg+x+wxQqpq4JcaOIsA1+Ny0C02wblVg6M8sSO9HnGNn+UcAibB25O8LiFkhemrHlxqApAOio8q/BwkUk4aKV2W3Ahhw4iACx4m+gXvBGGAlJHDor5ydKGnZDsfpwnWKgDgzgU7GFOMD6XwgUXgTPthmZQIEhvBViwcJLMMStvey5nfCOykEhBO7AxBvADuDibtC0lMLd47fL7JaGtTA4DwECdGMu4u8rC6w8uMpb38Mal4f15+8JeDh9ZPt8uMKN3RRjmtJas/tl+xkSV9P3vDWbxG3pNn2zKQ0enZzbYPy75+XB/Hg+w7fPODq/72IjU+bMsCKu4Ha83FeT5XjEbqurt45r3SDvC/TlmWQUeQcqsRFdN0OT6wrJ2w2EosAB0PNwGJm16o7PEaJd5gLarOA7KgYN8ZMXpUIUA2ajbjgTjBUGnoODTyj58fmX6AooDUTwNYElYYhuLanjB6x6xFZFR2ny0TNIAaMTXe9F5RMJk9FM93hAPRkQJgF69w67yvzhDawonWrVHztZraulU19oDtoaO3LIHutjBUOByMhntM9SB6LWmnKh2t7MSBVqIlTyxsxIAbeV5flyIR4eDFvZfPGREEL9Axhhf5wytDtGFK0sXv4PjOGpEE4uTpUZsod/vkKgNjPrE/IcJl2HYx0rxlm6Kjp4yUog/af3fWREk9f71ZhmltyXQfzgqyi+XAJhau/h7xWkSID++Gj2Cf8AweTGF4px/EyoEu8VkJIofWEEHjK4NiJDU7PDhbtQ0OV0RcSY5jS+LtkbBdMKsYegEFrxZqZpwYsGFoccTifADZyUYmpbPjyMnly4w4EmWioPFn0uzEe5Nwr2LpfwCt4Sv0oQvWtFvaXUwpPeAREFRibp4sS5Fkar8pSCgeFb50RrjeZOgRxgPXzTV3NvjAnlCc7DKzdFn/3Nil+5m9ocPrBQg62T2WWQD4G+gP7yM0d3yhgAQTU29Hp5c3ALBUGBHw/rCV3S7gBmQJrQXQ8qCuOoBpBu0CB33hlOHT9yyMQOr2fExOGtXlPK9vOHH+7neejEoHRoQ58Xc+dG8bdO2KLA8GgdGQBIlJxigw/SwtEC6qd/eQZs6KefeAYQFWv4ej7xrYdK34uGaFHKHeLHh8MLG745ZzDd3EW+OO35wYj46QxlHTQj9vGKQPU/lzWSFlL+RAY9bn/zGWbsIRX8YREfHjxkAXNZZsLIC/XnGBmXgXw8OAkAtaX0Vv1hVBvCx+f6w+2rVD9s7dzOx7e/rBlWl2fZXDpA4Rt8HlPfGCrSF1V8vvEpYTQg+D4xeKes/wDX1nrIby7M0gvInbx1hXy9/JzM1EF5Sdez+sEyigSDR9GbAyf7ymNzSZ4Fh6OV6xFKqjbmvU4PRiltIUa439YMGEO3WTi7ptnv5wQWwDb4Dc9n3nBc6kXqJ/GAOU6gP2d/zhAKNAr8nWc1n/1QdfWckPH815Mi3G1p3kU4dcY+triLi0rOhv1nHG/DEkSDvzwKoip4d5RIHTYvjLwlyaLjtYgErT7rggQ7cb1rIV9rHhocr7w71NSrNusHoDTdfjEQi4/ZsDgPwUvnAot5kR9/8GPzraLz0bV7cZpOgJ8Xo8YFoPuE44rnvNhyDkE2/OcEq8GjZPqZzToB4952Ve9eXEU8HhJs+evW8OD/AHjq5FFbW9wfa4SEpzK68OuXtxEVrAJfzm7NSK2cYRIxnmmv2xicu18ZUeOE4hj/ADxx984N32bH7HJg6xCyvpyOLNIE5kafvEGjAjQ+f7GBhJ1kfZmlIeF/rJQfrRF/OTRu+x9Yufk5fusn3PGzd4uTdHg/LryzRqgGKW+BzSBoDD9lMIOY0rWHAh6OeXIeguwfFctHTou/iZcrjT/e3iBPM+IAK4gB6dG9znEU2Vf49z94KBqlUmv+SyYkLqD0dDBoQh4MCh84IuLTPWw3hI/YxJtVfIh++Lw3mxPBnTGyFAQf2ePnCeAAHB/vLrEYptWq4XaeDEmr2Utz7eq+c8VWaA+sYGiQq/vhW46LoprjXWBvhfkusHkio+cU647xaTxhcRdfv5wey6Ox6eD84QR42p+R3lsCQQr9XLxsqVftrL8XiNeGyZok6zadzeSTZvW0xAYd0H7BxZL/AAn8Ay4rsUP6x373+ZkG88aH5WfnAZrewsEK6oeyBr2yflwSfGm7+ZihdIvQ+hbiyYiK18qv8M0FmeO92X7ZugGqqeVeXAlmHnB5Ee8E0EHrAjHa4uGGWZHcy17KfGI7dTNjX0MMq8Ug7HxxnlKjyeX2u/vDj/d8MxaH0J8B7eMKVMI/sD59cZeN3B0fesRyWdpcMkGjKHuGaaYAoW8Fy+N8h3KdeWEcIDqsFcdPeL7mKM5uXAYnjNYPgPneRLx4YyfEahvDwb5hT4bi2gulifWv2y353RA/KGcXCOVeixhtQuz+3H8Y1cjAX/escANzq9XB4ktXl4SHXGEwA6G6bKTJWYQ368bXEDevCE2M5Jim3nRZ+cKIPocHkAZrSELhFECFfGQB5yxVwYQezf8AM1g6Fj+D6OT0Y5Hxf4A9AQDxMAwskLB8PfPvCMRUWo69V5cODv8A3ijSowB3e/jL8WKRXg8unQ4i2gr2ZuzMjoPirl7L69vgxpVGW54M+bgwDOrNBh291LSgD0ue+tRBJypsOHF4OAHD7yo+HCI2nWAW8dZEfwxa+WsdJ4Jg2LmsxXSGuXW6WNqXaqepj6kNnAuAgGbCutec8nNu1yTGWiufzjmsOhqJx3xinbBUu91MheKyPI5U8wAwAHS8OWAyogd5fj7ZdzZd/wCC3jjhYiQ7k0+134xYRVja8DtG+xuRQdP27mLqAtFg3f7nl11hod/7s7xTMyQW1fWU0lXAZ8XfgbnIK3+yYm21V0/LjGt0tlxbTjBgBGwaH5zfA8hkSRhjvAq6FEEeE2mSpxiDeXugw2qBez8PjvAlka/gfeNILo6POJsNmXE6wm/GR/DNC+MLnzWYlZ8sMR0+cGnW7TnFYOxlzQB3vECdrjoC61jwQCX7Z+cFluUGjrD2kgR5MBJsnGFQJx43sxKPOErkFNo5x6nDV+bqDxzlyDf6gA6V24iIwEb8CeXnBCcRW7xntwHmuAR44oHGHH+6WEVYUgAqv1ixv/D8jp8sKhVa6fjOlyeB++KwJ84V86wdoZ/OKqHMe2G0qP8AsMB8mgN/vWJNqcpAwYhm3bs+POPAz0KSYZu6oLpTrwGj4waIDRfvXReG3WskRXYO/rEIEIXLoYHI9rzOMBRp6bk/ZjqdHObQ75eMXY1vJm3+3ziCE0HONLkd4E5guIFhZMkJRPowrcKnV9zBxRQShGaunGCrQxrYbR/rBbJKz9sZ0Ts+MPh1U4fvlIXHzPb1+M09dakT5e0+IZtp/Nv74xYQ/wDBxh4PYEF0HoNvrIUNg7+Z6cHqYcf7p4wkXQ2q6DtVxyrrJjq/i8u3Wen9YPIK3hnzhNOU3G4PdhZozbVnZNqyMU14TznOyN95yT6FPeAroqj2yoZJxgBSRhDJcs2obpfJTG0414PeH6Ko/AfD6Zqxerbwu5a7Xz3g4eMGvFmz4wwSsAXi74xtJNcYAeDv+sh8i8cZO68t4oJacrgjHBxlg5MI8PSZUBXlhLfIj3hCquemHgkVIZeFmsaVSC3JXnrBqPEwMPeQ/kNBx3QzNTuNOd6O/WQUFDE23MJOxj7OsBmIVQu5enx6wgI0nYFntYZ4VcYp/DyfHGHB/u9hs+eMqfC8oDynT10cYqEMQ6PjIt+VmQTbT3fEwXEeQcMyG8MyS7a6J+cqbc7LKAGuwxyFFsechokEHt/4yHLsnBhiYJAe0HX94sbYAwPqq/XGMsDzu1IBp85cMq706/diSkt4n3j6NPhfxhpD202eOBPSZRWIGD9uL6xTE7cV43p/OFHNCJ1iJ1gr63jGi2a+LjVJhXxjVEG085PYDo6zQSlRkgxO0NcND28cnvFde+33XBEMaD+TeXxkQE5o0Lhc3GLQlRb8J7wsEMWPzt+h+M4wZbbzDl7S+VySUEVe/WQRsG8XywA6zHl5nxxgEoqql9MOcXj+W4NAPyPuHWcDzP8AdLM7cPUa7c3LHbj0x9Kmxce/eCAcrpf9ZKCvYnxkppW18sTmiv8AWNhO32ilPazHpZ3GOQ8ohluIbfk3Y85uAbCj44x0p23g/jHeNGUtPGPr4jt3MEB53PWKdkbG9pU/bGoxLJXcAA+MNufOF4kMcGPkeS6mbWxLDdH2H9sbGJ8//MMDtRCh1uMU6qkT53MxPsRpQvoGahDGABrt94gEADW/gZAtk2AXljwwDZJr91FMXSrgAnkaxOfF4c9ta84Q2k3SHj/szWiA/NajIUfBSHjgw4SKvpi0b09nGv4Cc4RcymlwZvDE6Hh85ICB9P8AzjFhanoB309uI2Zd48vtw0H+6eHJhV2Bz12HXg3iz2KSo8r7xpEabenvA9lbFJ4wahACbT2HzzjtunA3kWecSAtjZ8luaqhac2q061gSlWlFdH0eDIKwF6T85MeUlUw6hKHn8YpkzQbX7ylnAEzfoOcXwK+c6eLx84QFbK/JXBl4bTaP084O9hx+6YImtlEOCR794IK+k/SN/OawGARaWvZgqhwjRvfOMhXy9vWsEasLchvEJQdkkw3yNoZziAstp2xI1+L+zNkIOuN4B1aQ94JK0Bbn4wcb0e/R7XLzL6wTQ+cDyQWPOLOh2iEMIKbxYw1XVszTvpjm8nhTBchA8IwIbMvOOB5ejtzmpIRJqTS9zz5uHH+6dGWwuK1ujz+Tl1j5E0ntfYqriketoT+8wCgnhH+cYJ1t1YINb2V/OGBN5SY4OuWh2YiA4dDv1cDggAC7Bmj1gtKgrFPPsy4ZM3F+sDkXsQc1MOAmpmI1YiPH8YGhAnY6T3mimwSTxCFPeLcUCk3wpdd3eIjQDsaJomOFJoDY9wMMg2fsT56yQEHjoDTXzmpV6pi4uCuccXLjFw8/7YyKJMdWOMU8gOXT4xbTkWD+MvIljXg1jClzyTL4KAFleMVsK8iGAjb5yihHcCPSv2x3I0vT8ry/xkGi7ZeGU2rx6yNisEFoug+TA0ZuUhYDRqOi05ODj3FEoqhkGBiXiOhyaVxnH0nrr0rvOD4/3S3Pbfo8K8Hjtxd/EuS7a89GXZ9o/s8ZVpZeemUtnftk6P8Atwdb85wbS+21t4xCwVsOsSNNP9zJxRc6r3OfJhS+THQDe37frBnbacE2NQWMwObXpY4ZRIj/AHMMA25w3sZhLmUXtrBNyokJcEYiKDAe949lukV4A7xBxbYX0POu8s9DDoHwYNwm9cvWstFWnWp3iGHA4B7wk2xHnHru2gjcXANfmfsxhTweImRhYVgyIobQZjkiNFjiHkeOMXVGz8QkfeJCj+JB9hOveNHAtPM8Rq0809ZchNtqTi/Tz5dYX5iDyPQZtUDXB1Y8Vh07wVkmsEQXkkS6N4sf5JVrXRb2Y7aUS7F846krTkD7Fq8TBDhDIAIGHH+44MbMaB4d3xS6PfvOsVwGtQ8AcGB0Gg7vD6MAvRvA/JpEn2mj7cRnPcYfTkk4kcpvQ2ydW/eQI5RDjBhW0Qeus3ich4vbJmwS4ROXHlWVbx236c0YSzBgqRSiBqZodpWQVAkW+frIMmOCKGI95UGiRFV3he6WmLXOsHJPOuwHnznHkJcH1g7s5BH585LyEOJvQe/OMiQ8E6+8g0iuHNn7skOrr3lZus5prO6PGHDh1eB+8SdRTDBlqO3reItGc5Xz6MK1l1Gmp5mVkNAhyEu6cVjkz13m4KfFNyjtk38d5r8Ug/GRl8gC7456PO3HBgSyx3hl+kJpH/4/OCixvKf5S7fnDj/cu3DIX7XTQ9dr1j2lGck0Hg4MYgDxnUu9SLtMQ1NrA6k5+nRhLDAwDrjODeEVt/MuJUND48BTNiHh7zZ3IQaONWRDcm6fLkQB3fE8nWQkWD4NfrvWIqo97LGFvycQQCbpaOfuuhMP3jEFN8LrWKtw2Kd68EuDxj41cqvMxgqSja/O+cKJphIfhjWGGwn3cHgDgafbzigumGwCQ6n1lrSCG33i3RHCS5dWyvJtrAhG7HluEkElA3nXFS6DvCTvF0T23vAo6dv34yNwG/8AjCqB5HyvrE81PaquznwctGJ7ToPBkEpJFRqDzf2ylDxIvhPx37zYda/3YHJh0Rv7DDD9ubMKKiLmfeAaBMDlI3z+HfyYFkjcEvpxweQsXuIZZrn8ftX5cueh+MDtQDvNpfxPnJOHgc416LrEQilYL3vjIARcneACM6zGxmCkEhwN43lJZ9SLsfny4g1TceFxEwkaKSXF0pYhBeQCjhMhOztLovjLlFPKs9zFQiNCDD6GqEeouaZXnADS5o74x/Cc4GJhU3Zq9265esdHhvziLb7cGGUBO+XHWFR9YyOQPtoYh0JyvORSegwdEPiHTJl4QQ7L/wBYDt2qIB3/ADjcEjgLUOy0WBr/AHaQw7AxcD46R0OF0mn7gHY40RJ5in5wuDePZ+OM0VB8n74Ryfy/lifIxiPBxc5GIh0zcE7gW44tuA1YskdyamBohIMXIpaMc0cwc8EHWNoqGyEnGKI0rQfeBVDQcp1vI2ZjhDnELKoB6vFyKu99ZaL5Y5mhXlcdc4GWqH3eMANoBoKHpE4xJcK/Nf2YWXBHkxSgKh24/ULrscYA3TnNnbwwWRG8mFBgbB3cVHK+lWsQ7l7Vc4h4QeSJ7XLhLXums2KIeEWH04zVHahb9416N4BgvBogHoD/AHz9m0JfUImKnDYPqLj98g9OdA7UNPsM2/O4YHJR8rgUprDi4go8BzfziIM+OM0e3Z7yOKRu44paNDFMDGhs5blh0/8AxjzaxOTNleuGxkC1EOMR34BxuFTjumEyDumdTFOF+b+5h6QwuGfPON0GA7PGRUTF5vGT/bRxq6wwNh5zW8evGgxjYCOm41V07TFC6nN4ztm29ZribcdsLz/C14Vpv1MTpzXodM6vjBVQbXz6wWsk49YpCrzjw5BNlt6LQfarluHg7ufoNGDP0BHjCkq4H+RP3klJHmH4DT8n3lXY6pfix+cHD7RBPzzj4ANqjWp4yTNXnT9uMrE7I5zQDTg0BCtp1jhRfDG7JMBoZ1lr2FxsCEpawzSGw8pzMdOi3/IwaEM3V+MEgiWAFfGVw1O3esLgIHsecRwgR+vZ/rD8bNIe9ZBqw3RonrD2gdPWQ1F2OTFO106bgTdeDCjWzk1kVwHy+sPSYJ8hiHy/oMhs1d+WKRIluPDAiCLCguKfiYuxscryj/yZw/QUMhmiqwBE8I43s3zK+XZfjDQXtOTwdv2y62p9Yao9jjX8tsj6NH6c5awFovccTHMhdExlozk5M10UHFXS4S72fOA6jNgS4A68k7YgikvIf85foE2T294QfpZ+2MIVAcvzmycgXCIxNqmRMH06uRNa7TmZaBp/GGmy7vDlYSDhKEzTaPYg4aQKb18zIkxvBxlHi+TNfhNOTa8fHvOEIvyefvHYlVcDuHfI+XWCB+h48YfcIIv05JtBFGvbT8TJ15CDj+Z+MOEprgHErr2awnUVSJPh3mskl2AeXWKZhOCDb4yirhqP+DCAgG5jRgJptcQGl1eOak+wYouOvB8YdWnbzcU6whhTtHvYYyJ0ccMrRgEKHGM1QS0jpjUzHDD2Y5LLw4kA4QHeNoiTzkeYBsQ3fydYV4nxzy+8OP0XwjmZSNC7yjXUh1dB8YMkMUgpd8j8OMEQinN3R2Z2MrWv34yAFYnO+soMuPQxoM5jEzEbKJx2Zo8Y4H0zq4EAP9vjARYoenwY1maOCGblw+FfOMe4KPuIGKD6i/pj98XIhRo9bD98KhRhbOpQ+mZVE/phrEA3TWaBqOMvnBexqK/ROjlxWoJxihr0OD9GUyl990jqR52MNyrqW0Fe6X6wn57wAn9YuOENQ+BvOlFA3WKNlyre8In2+X5y0lpwXP8AyRHfGXGgTa4u1Q04gBSZzr0MmnAwJkEZSSr14YBJBAMgUOV2vODhfrBEOGFxu3rBFbb69+A3IKlPBMZmCV0GEPd8LTh4BwfoyGzAbj5n2OTSFBNvl7cDoybYGWPYvb7w4JxiAV0HeHWjUNwh8qfWDa0taCTjy4QBZDU+ONP3gbKhI+gafvJIlI1fGtZJe+4+veIKfRh5fI678zEEwN+WQ3zGmSkW8lBpfhMvygiUCVHNRm5X/eEXipH4MMSGaSPeCCT52+3J2oK85ETBLfaP7PrCEEAgeMOP0XdJG76fs7+MCY2OpXg6FvyuM8B0pOQ8X9jWBuOBwBwf4Tmge+v8qdjvNs1hqnA9qa/OAlwTglo+Zv8AwzIFR6Arj56BBud79Jh2w0wMKpw7cvB5C0/HC4Jrc2L/AE4kbBfbGQWolLlNw3DMC2D04496vIXGk0fGGdJHR5ucaPB4ecLdyHwd/hjU0+TuX7f0WExMJ3+fA9rnkA4VvH5SK4gJFvp7PBwH3hVR+Q+184NBNmPuHX4FPpyuVgwZ39FeAaHRMimqZqLtfhN+8NcqzDRnNhOq2+1xfOKCi6ttU9duEkUjhfWdZyBQBEUj849dxVSVcd5iF0esNPNJ3fGAgmw7MequsMlFicPrLZPT7xCurevBgA0GGz/Ye8iE4/RZAk2IDz7cFGqGu3Ak+oeDBinJYe50HHzixi+w7FzrBhEq3a4TtXrI8xQ5H9crtwKIU3xun9esMOQ6ANGB3k11Vdw0fC1Y1IlHmb54A0GJ+F3Ow+8Nh/g7g9hGp9MGMoCDoekfxgcwZ+Ji36knw84PKF/BryYkUva/LyYtQA8PWOLOka8YAEJVwXKwGjvDj9EpcAsZU8B24igHmTuePGfQXVXY8zZhUAwgbXx8YcY3upILlfUwOek/ZZHtTg6MJUFpfBejjBBBK/Pcvb/jou3CHB8rrLXLlQdr4NmSYACbU+jfHrCPGAOA8YxziQt7bPlLrGZ1kXhq62vbjQp9zeMeX+82/wAmggjyJRxkQJD9w5+8oE2gteC+PrAPO6YCYcfosgE7EA225ttc3Z6d7B4O8kunvw+DAAA0esIq6G1XR5rlECsOri+i99uI9Dr7DtXhc4AWi7t6D0YcYgwJUeDtX4M3tOL0WTuodeTvA6xnhMH3G+2sJjTa8vnDjCjacQRVc9ndGNp7X9mFKi7ta+nfvBHhh84cf/il/RsLOmg5wVSKp2nlnnDj/HehdDw5svbkiwKXVrV94RhCTpDgyYsxPJfAeW6Xt0awYkuEQoKvZDDn8SkdYOMQZHqXbVsM7Tl0ZxdR27Nae+vPOCJaKaXwfH6XeM3/AEy014PXrN2qosa3R1ioanrIMcqQGw2le+YZMdiK97ebzg8aA0OifX+DxhnnCd20PBvHMNA2iD7dn1jlwuOJqfWcHx3+mI8f5oSsMHMMhgf8r4SQ0c4bpsar2ryu3AGmv8E9WZeFoe1wViXUT/Ab+8GkQe9uV7XeSAIBo/TkqBTszyRsB9XxkzvAP8MYsCuvHOOaq9dD0b16wwMjwP8Ajd+8M1ny8vvD+GHH6fRB0FzsyRGVwaumBeO8erXcOd9YcfqCn+H4Qa7w4/8A4BX/2Q==;clipPath=inset(16.67% 20.67% 19.67% 17.67%);aspect=fixed;" parent="1" vertex="1">
          <mxGeometry x="-240.86999999999992" y="-357" width="196.59" height="173" as="geometry" />
        </mxCell>
        <mxCell id="kS7yauVVDzb5seXYYpU2-19" value="" style="shape=image;verticalLabelPosition=bottom;labelBackgroundColor=default;verticalAlign=top;imageAspect=0;image=data:image/jpeg,/9j/4AAQSkZJRgABAQAAAQABAAD/2wCEAAkGBxEQDw8PDhAVEBAPEA4PGBgQFRUQFRYXFhEWGRUYFhgaHigjGRolHxUVITEtJSktLjIuGB8zODYsNygtMCsBCgoKDg0OGhAQGy0lHyYvLS0tKy0uLS0tLy0tLS0tLS4vNS0tLS0tMC0tLS0tNy0tLSstLy0tLS0tLTUtLS0tLf/AABEIAMYA/wMBIgACEQEDEQH/xAAcAAEBAAIDAQEAAAAAAAAAAAAAAQYHAwQFAgj/xAA7EAACAgECBAQDBgUDAwUAAAABAgADEQQhBQYSMRMiQVEHYXEyQlKBkaEUscHR8DNi8SOS4RUkNFNy/8QAGQEBAAMBAQAAAAAAAAAAAAAAAAIDBAUB/8QAKREAAwACAgIBAgUFAAAAAAAAAAECAxEhMQQSQSJREzJhkbEFYnGBof/aAAwDAQACEQMRAD8A3jERAEREAREQBERAEREAREQBERAEREAREQBERAEREAREQCSxEAREQBERAEREAREQBJLEAhliIAiIgCIiASWIgCIkMASyRmAWIiAIiIAiIgCIiAIiIAiIgCIiAIiIAiIgCIiAIiIAkliAIiIAiJDALPP4zxejR0tfqbBXWvv3J9Ao7k/ITyOc+dNPw2vznxL2HkqU+Y59W/CvzP5ZmgeZOY9Rr7zdqXz+FBsiD2Uf17mXYsNXz8FWTKp4Ng8zca4hxL/4+dLpQQyL1FbHwchnK7j0IH85kfIvOzO66DiRCasAdDnHTcPTft19/r9Z1+Web+GnTIz3V02dPnW0hW6vXGe49sTWXxA43Tq9Z16UdNdahQwyvU2clgPT0A9dpbMe/wBLWirfq/bez9K5iar+GXxENwGk17edelEuOwcnYJYewc42Pr9e+1AZmqXL0zRNey2WJJZEkIiIAiIgCIiAIiIAiIgCIiAIiIAiIgElkiAWIiAIidfWauumtrbXCVoMszHAAgHOTNc89fElNN16fQkW6gZVn+0lZ9cfib9h+0x7m74h2a2waPh5NVFjrWbOz2dRxt+Ff3Py7TLuAcpVVUqFHRsNxjrO3djLlHpp0VOnX5TQ2u1Vl1j22ubLHPUzMckmcAE2v8S+VUq076pSCUK5JADeZwvcdxvNUzpYbVzwY8k+rJJX0lgGbpXO574+nzny59Pp+eTPZ5a5W1OvYDT1syr9psYVfkCdszzNkmVyyWOG2ZHyzxZNBUNNra0u4dri+LAvUw7A9W2WAz7d+3sMi+HHxIAZdFr7Mrnpquc4OM4VbSf2b9fea647we3TMKj1dCscK+xRmxnI9M47zo2IlQPieZznYfU/TG4+cwr8Jw6b7NLVqtJdH6wBlmlPhn8SfBKaHiDjwsBa7Sc9Hsjn1X5+n07bqVsgH39pmLixEQBECIAlkgwCxEkAsREAREQBERAEREAkREAsGQmYdznzzXos0adDqdZj7CZYJ87CO307/SepNvSPG0uz2uZOY9PoKfF1L4zkKo3dz7KP8AmpOYn4rxdG1DUtVo6yGSoE5I/GF28Q/wB9hOjyuNRr+KC7XkWvXi1k1PkDLuAqKRgAEgge/vvNvAsFUl1SvK1gE7nfyjp/H6SObJWFpQtsTKyLb6Pzieqtwc9LKQwPbfOQZtTgXxZpFSrq6bPEUYLUhWVseuCwIMxrnzxtZxI6SjR+FYjMFRVU2MWwS7sDjBwD3wN8zG9VwK+mx69UvgFNvNv1N91QRtj1znsDOi3juE8nZlStU/ToyHnvnxuIKKaqzVpwQxD4LuR26sbAD2mEkzlbS2eIKuhjbkL0gZOT22/T9ZtTlP4fV6WtdZxSs2P3WgDqA2JHX6Z2Ox2k6zY8U6k8WOrrkx/kj4ePrOnUavNOlJAGdmt32CZ/n+k2DxTgdWt0Q02msfh9GlsDnwzkOOg46ihz1DIO/riZDouHvay36hsKAClIGEQD7PUp+9+vy2ncrod+sXAFM7Dtv7jH3SPffOZzrt290a5lStIxjiXBE11HhFcNVXXVVfad7SF8y2L3ztn175HqJpjmflm3TuTh+tcqyP5jgdih9QB/TGfTfV1bg4AR7goC/wD1KAWwekYyAwBP4CQRntODX6GnXhqfMbal8t3SQNjgKzdyfrvkN23lbTXKJp74Z+aAfWba+HnPFuiWnTcSP/t3ylbHd6MBSosGP9NgwK99vl2xzj3AG4fqha9ZUZIdkXq8M9QK3VjI82x9cEZ23M6vENctnTpNMqMbCOpicquASek/fx1EhjuF8u/eWRqufghW1x8n6WrcMAykFSAQRuCD2IM+pr/kZn0Onqpsta6kAHLblc75T/Z8vb27HPq3DAEHIIztKMeaMm/Rll46j8x9CIiWkBBiDALJLJAKIgRAEREAREQBERAJERANdfFjmvVaNFo0qGvxVPVd36f9qezfM/lPN+GfCa7tILmOS7N1nOWZ879R7+3+GbF47werV1NXagcEEb/5sZoXjWj13Br3Si6yuuwkqy/ZYexB26hNOOVc+q4ZRb9Xt9GR/FXh1GmSl6m6Lms2AO/SBlmHqB9n9RMF4jzBqtQ6WXXuzJ0dJB6ekp9lgF26vn3nU12vtvc2X2Na59XOT9PkPpOvOhiwKVp8sy3kbfBmPJvMn8KbtV4ytqXVvEXUdXVdlsqa3AJLb7g49/p5mot1vGtX5Q1lljA9IyETpGBn0GATv8z7zxKawzAHOMjONzj5fOb++GWn0qaTOlwSWOT9/bsG9cj1+cweQ5xXpds1Yt5J2+kdfgnANNwqtNRqz42sYLUpVet2bGAlKDdmPcn6kkDM5tDzVcLsa+laKbUFgXINtC+K9am4ZPUpKZJXZOoZ2yR4PxC4HZ4yXnxbC9oVbvFAVA7KBSydPTUm5AdRnPTnqyRLoqmGou0uoSy06ZWSt2dqjZZb0G2rNRy9PW3UcKekMOojpmQvNnM4AySMYzn0x75nh6nW2Xl0qBSqssrsytkkY2A2yN8Y7kH02zw8taa/SaTp1RUk/wCnUuemvK4WkOxJIJ2HVnc4yRid/RaQ2dD2r0eG2awvkwvswI+Q/T9fQdDhNY1FXTWj1acAFXOztgbdWdyMEYI9hvkTqcaZrf8AocP6gyP12GshA2QAT1dmIxg7/wAjj2uMYc1afNiCxhk1AYK79SsSNlIznGCNp0uJ8Xp0iNVp+gMgHUSfJXtgFz95tht3Mhk168luG3Fqkuvv0ebzVQDpdNTeBdqz0g4wSV6T1lj+Ht/mZpniWi0tOrY12O1IPekjKsc5VWP3QcbgHOT37z2ePcy2apmSguamI8V2BD2b7lj9yr9Bg/p0eLaaqil9KzF9YliEmtktoFWCw6GA6urLDPzEl4+K6rjjfBVnyrW/tyZNytxbUVk6SxBqHVOpAjLlsjPSMHHUNuofnsczt8P541PD9X0689VN/mepfM+l3wvbbcAMV74PvnOvNRxTUWeGzOcadcKVAQJhQBjpA82w37y0ZsqV3UWNZnzMOpuosdyT77/Oevxcfj5G12+zxZayxz18H6e0WrrurS2lxZW4DKy7gic00FyJzLqNDr006qbKbkAalPxeY9Segbb5Z7e03pw7X16ipLqXD1uMgj9wfYjsQe0Hp2YMQYBZJZIBRERAEREAREQBERAJERALPG5k4DVrKWrtUMCPzHsQfQz2ZJ6m09o8aT4Z+YeaOXrdDearASpyUbGAw/uPWeQJ+mOauXatbQ1di5zuCMZU/iU+8/PnMHA7dFcarR81bGzLnYj+3pOr4+dWtPswZcTl7PP02papw6nfcENuGB7qw9QZl3COZG0vh6nTKSgYLYvV5lBGyOPXGD0v6jY7iefwfS13ac1deXdieln6AlmcVsECE2EjI29Ce2Mzx7Us0tzIRhlyrA56WU/zUjBH5GR8jDOZNfKPceR4+Ufo/gfF6OIacWVkMrjDDO4P8wZy8P4HVTZZdlrbrDu9pDMFAwEXAAVRk9h6nvNEcs8wWaC1dRpyWoZgLKyc9OfQ/P2Pr9ZvPQccr1WkGp0x6gwX59OSASQN9tz+U5PMv1rs3KlS2jt8T1i0VGxgSAUGBk7swA7A7ZPtOpwXjP8AEeKGRk8IjdldFdTnDDrUHHlM6eltz4ll7E0YYMLCXU7EdI+6+SMjpG354GKc482VadTUqhQ261KelnJ2DWkdhjG3fH6zyrS4XZJL5Pb5r5vSmtuh+hBkFxjqbHdah/M9h+k1Vqr79e/mBo0ldiBmKu1VXXsHvcev1x+Q2nU1172n+I1FuS6FQoAz32FY7LWO2T88ZnX1nF2sRUStNOnh1VutHUi3FOz2DPmbc/SaMHh3lfsynLnmeP8Ah2tVxsaUGjQEJYEsouurYsmqTOxVW+yPp7neYwW2AUjHs3pOW/B7flj3yO37xRUtlih2Kpgdboht6fngEZ9PWdNY5xSZvZ2zucM1ZBNLsFRu+RkL/XpP7TMNPyhfVivqRfK5Bdu6dw4KgjpwRv8AymHcJtpJ8G1c9flV8lSCT5cbHH9dvocn5U4vRpL3o4hSuppUtV1MvU1W5yFXfbJOfUfliYbhZadQjR7OEkzN+S+S109p4hqivVUjdJUnoAAJZ8kexmE8A55s0Ou1FlXn0l+pusavtlWckMn4WwR8j2PuOHmnmkagjT6MHTaJAtYUMcsASctvsN849ds+0yXlr4fK9K2WqrM4BPXkjt6AHaSjGsUv3XZC7dP6fg2twbi9OrpW/TWCyt/buD6qw9GHsZ3ppTV2Xcv6pLaRnT3nD1ZPS2PVSfstjt/abb4FxirWUJqNO2Ub32Kkd1YehEz3j1yui2Mm+H2ehERKywoiSWAIiIAiIgCIiASIiAWSWSAJjvN/LFWupZHGD3BHdW/EP7esyKDPZpy9o8aTWmfmXiXD9Tw3VAHKOhLI67hh2yM9x7gz3waOI6ezFXg2o/WWrTq6WdgSAobLBiWOT+W4AO1Oc+V69bQykYYeZSO6t7j3HuJojVaW/Qakq4C219Q3GVZWUqfqrKSPzM6ePIsq2vzIw3Dh/oeejtS5291ZWBwd8EEfX9CJlfKXFLtGy3aV+qizIdOzKw7qAdur1H4ht32nX4vrl11YFVZN9fSd0BdlJKlVK9wOod8bDYDG/haW19PYdhtlHUnKtg7g4/YjsQCJ7n8ZZ5+1HmLL+HX6GweYueTYFGnY3WnC9RUqlRJPZcbvt/zMSXRqiHU60+IXeyl6Ra1Wp6+jIZwQcV+Yf9wnPVxLSr45ap7WdFepi/hGm7OS/lPmI8pB9SvYZnka7W2X2Pbc5stcgszbk42H7bTP439Orf1LRdl8pPo+uK8Tt1DI17dbV1pSuwGEXsNgM99z6zzbH9B9fb/gS6knt9O++5P/AInqcF4HZelmoVFur01iddXX0PYN84wCewP9M9p0cmScM66SM8S7ezyBUc+YMoKqw26SVYZUjP3TsfmJkvK3Gxp7TVWmdNcordHKqxHuz4wPMT32wcb4EcX4aj1HVafBo/1HapCV07FSKtKrOw6xuOrA2xn5TG67rAGBLYcf6akgH/8AXy7fpOfKvK2qW1/BqfrCTXZ7HEq6aDqaKkRhaa/MGNng4ObERgAHGQBn5eucz50XBbbK2s8tVahcG7qRX6m6QEOCDvtvgDI3nDXobqa01lul6qA+MOSAfYkfgyQM9s7HvPZTVnVB6dGQviV0LazeIqeRMdNaFvKmMDtnuBtgTT7xhX0/7ZQ5q3yYzYuCQfQkEfzE2Dyv8Tjp6Fo1NJu8MBVdGAJA7dQPt75/KYRxLhtlFnhvgnYgpkg5/rn0mweQ/h0XKajWrtsy1n9QbP7fr8pZ7xXHtRGFkmtI9HT8Pu47bXqNTX4Gjqz4aZy9mTuxONhsP83mzOHaFKK1rrUKqjACjAH0E5NNp1rUKowAAJzTlXkdcLo2xj9eX2IiJWWCWSWAIiIAiIgCIiASIiAWIkgCWSWAQzEeeeUa9dUcALamSjY3U+oPup9f1mXQRJRbl7RGpVLTPzDZVfoNT0uprsrPb0YfX1U/5vPvjPFFvFSpWK0qXA7Ftwu2wGFGNh7knuZunnzk9NbVlfLamSjex9VP+0/tNEa7R2UWPVcpV0PSQf6e4nZ8fLOTT+Uc7LjccfBxr9ZZ8gz7H+YnRRnPh0z/AOex+RnY4Vr7dNaLaXKONjjpJYeoIO3V7Z77GcOZ90aY22JWg6nsKoAcYYk7A5lGfDNp7LMeRyy8Q1RYt0eItXWGxaxI6sHztvhrDk7/ADM7a8AvQBnUVHw11AOoXNTpkhgzEEdY2IXfI7b4zkOj4dpdDV49rV3Pevk8NC67MOpQHyPfc9PYjvmeBqy6+GXRk0qPZ0A9TKiuzkY/Fgv33Mw1k+nS6/k0Sts7NXGjrbWqdfApsVGZUBHW2UNh7nYsC2AQNgTuMzl4hof4S6r/ANPHUbj0GtsuSQAcjBBxv3GO5+c7evpTXJTp9GivqOpGU04xWo+0XYdh2xnfJzNmcl8lJpF8SxjbewHVY5LMf9q57LMjaS9q/Yv/ALZ/c6PJ3JZDrq9dizUYwqgf9OkZJwgPdsknPvn89g1VhRgT6VQAAOwlmWrdF0zoRESJIREQBLJLAEREAREQBERAJERAESyQBLJLAEREAhEwjn/kxNZWbEHTeg8rfT7re4P7TN5GEnFuHtEalUtM/Kuq0z1O1dilHQ4IOxE+MzeXxB5JXVobaQF1CDynsGA+439DNH6mhqnZLFKspIIOxBE7nj+SsknMy4nDPkH32l6vUH9Jtvknk5P4ZLXPmsVWyMZOR7nsPYTH/iRywmlVL0bZ3KHIAJJUnfHfsd/1kY81Vfrok8DS2YdqOI2u6PcxsKDbqORj1G3vvn1mQcLr1HEgdLSmK8KjO4yEUEevYtgYHacHJvJ9uvcM3UmnU7vjdiPupn+fab24HwWrS1LXUgRVAwB/M+5mby8mNNccotwTb/wedylypToaQla792Y/ac+7H+kyWInNqnT2zZMqVpCIiRJCIiAIiIAlklgCIiAIiIAiIgEiIgFiJIAlklgCJJYBIiIAZcjBmv8A4hcjjVKbqBi9R9A4HZT8/YzYM+SM95PHkcPaI3CpaZoXl7n/AFPDk/hLaRatWVUOxqdAPQnByB8xMl4dw7Vcbsr1GvTwdJXlq6kzl89yxPpj6fLEy7ifJGl1GqTU2ICy9x91iOxYepH+dhMkppCABRgDaaLzx3C5KJxU+KfBw6HQpSqqgACjAAGAB7ATtREyN7NCWhERB6IiIAiIgCIiAJZJYAiIgCIiAIiIBIiIAiWSAJZJYAiIgCSIgFiSWASIiAIiIAiIgCIiAIiIAiIgCWSWAIiIAiIgCIiASIiAIliASWIgEliIBIiIAiWIBIiIAiIgCIiAIiIAiIgCIiAJYiAIiIB//9k=;aspect=fixed;clipPath=inset(11.62% 17.84% 10.61% 17.45%);" parent="1" vertex="1">
          <mxGeometry x="-221.63999999999993" y="-600" width="172.21" height="160.7030338433009" as="geometry" />
        </mxCell>
        <mxCell id="kS7yauVVDzb5seXYYpU2-20" value="" style="shape=image;verticalLabelPosition=bottom;labelBackgroundColor=default;verticalAlign=top;imageAspect=0;image=data:image/jpeg,/9j/4AAQSkZJRgABAQEASABIAAD/2wBDAAMCAgMCAgMDAwMEAwMEBQgFBQQEBQoHBwYIDAoMDAsKCwsNDhIQDQ4RDgsLEBYQERMUFRUVDA8XGBYUGBIUFRT/2wBDAQMEBAUEBQkFBQkUDQsNFBQUFBQUFBQUFBQUFBQUFBQUFBQUFBQUFBQUFBQUFBQUFBQUFBQUFBQUFBQUFBQUFBT/wgARCAEYARcDASIAAhEBAxEB/8QAHAABAAICAwEAAAAAAAAAAAAAAAYHAQUCBAgD/8QAGQEBAAMBAQAAAAAAAAAAAAAAAAECBAMF/9oADAMBAAIQAxAAAAH1SAAAADHX7EahvOzXViDq9qloXUws6fcpq4qvp8PtHrNz2a/sCoyswzgyAAAAAAAADEYk0aqitn1daNoURe1ExN7sJUldNL3ND7xuRx2Uasit7IhyEmM4MsZAAAABgyAADjHJHHYQ+0aqtWYUbeNGRN6MJUvcNP29EdqOSKOzMcset7HhzEmM4MgAAAAAxkAAOGg38fhCLWp63pjlRV5UdC9HBM09bNSWujvx7fR0j1kVnZkOYmWM4MsZABgyAAAAACu/OV8eVprvthD9bKfauK7AmPCBYhL9jEPlKXfOBbVMnuzzleUPSAiWM4GQAAAAAAAAqvyh7dqC9fP3WuK0bx5H7vouBwqHPqHaS8tfO45NDzP3/V0Ul5+vT4W7SZ6KWceWDIAAAAAAAGM4OOl3WohWlv1BcNo40RfNCQvhzTNR2HX9gRG4j0jjszFbMrOzYcgMZwZYyMMmMhhkAAAAMZwY1G3+ZUdv9PuTChr51cNnkmarnOw+kPvoN/xK3svrdmHJhLOAZYGQ45yAAAAAAODV1j0vcSlvjNrvUbxRemaJ5wvRRnEvVRWS9VFd9Ny56/258uQAAAAAAAAAKgoa8qL3+h15Vclg4+XlmMezq0ifPDj8/S9T742cpz5YFixOMIB9uXW0afU87r+wfP8ACyKVAAAAAAAAApOKyeL9dXoz78XHK6/Y4nlmLTKvO/ryy2aWuTh5vSxruzHKquu6O71/Uth15YebysilQAAAAAAAAKVp25aG2eh6wlXjuxfOz39E6qrQ6+luT5bekQkEi6XHP1tVEY/fvs/l1O7s0eqbCr6wMPnchSoAAAAAAAAFI0jdlfbvThPxtrr37VgncSv2tH49X44PI32dLpYppo/YEj696V7U40vbr6MsCv7Ax4OQpUAAAAAAABjOCkK2sel9vpzfTRr0hCmOn2dZbRvvvBr7rngcOldbTM+7kC+HPlNY/wBf4devqOwa+sHJ5vIUqAAAAAAAAxnBR1b2RWm70Z5Vcvri3ftWzTtvkaiW4jd+0p2fWxz4QuSxqY9dFhUpZFc8s3qCwa+sHH5fIUqAAAAAAAAxnBR1P3BU+30t3ALFr51+dvVBdUVhEPk0a7aLD++r+OXHEpXFtrq2WRU1lVnwzeorBr+wM/m5FKgAAAAAAAMZwUd9ca++u3vO95edM9dr6C8y+iZmI+fLtoftf1l3tB2vO5ecbXpy1/R7XX5/u6iuFLsn0EnejPkUoAAAAAAAAwEMoc7dvvribce8WdDgTPZ+hWOryLNn8SHpTamfPkQAAAA//8QAMxAAAAYBAAgEBQQDAQAAAAAAAQIDBAUGAAcQERITNTZAFBczNBUhJTEyFiIjJiQwQVD/2gAIAQEAAQUC/wBayxW5EnBF9ZXSZ1NR3ZE1NSqpUCJOCL9xYVDJRlLdqvGOqOfOBs2qzuVkZsn4ZPHFOMqC6jht29j5TQuXao3q3VbudJ+nli5TSvadvYuU0Hl+qOL/AG3VcA+ro+jlh5VSvadvYeU0Hl2pgA/qvVcflKIehlg5TS/Z9vP8q0f+w1MOrdV19+29vlg5VS/Z9vPcqoPtNUf1fquvydtPbZP8qpQ/4XbzvKqGcwJbc25HiH6t25ty7jsdMx/xNuWAfpVIKBGXbXeUcRMS4tsqukznnrAyd9myHRu0ysUku6I5WvE0jil4mlHDyadvxC3SqCBr3N+GUscg7TZTjxllBmHsm/7XSSH0EfthfVafgGO8N73FfwN7Yn4EzRhzLtdI/IB2akUVFl2nyJjv7GKJXuKB+wyRvBE/Aps0YG+qdrPwxZ1g80aIN21dpSE3kNo/aRC5NFLUgNKkgvMeVrLfmNHrSXk5+lNofGejVm6auNHrBeHkdHLRiygKM0mEa9U29eW7aX5ZQc2ao0f7jqvgfwxHLMn+U0f2fby/LaB+WqN6y1X728NyvJ/lNHDYz7eW+cbQyGKbVHB/cNV7TMdvChsisneV0gu607c5d4iLfhG1FYAVfUu34wopcFPDl3ipI8L/ANqTkkYpqfSEACOkcAzzLDPM3PM7PM/PM4M8ziZ5nlzzPLnmcXPM4Ma6R0VFUlSrp9ppAMIEVV2Yiks9VSqDw4Gqr5DFOMgpxTbeKbN82b5sE5s4ps4hsKbaFJOJ632mkUdibZkrIOoGCTSbpMUEQUZoqhYa4m4RWRO1X/7CwreSZkp7dfBpSY4pWW7Vs/ZEj3hconTIdppIHYSpogZNFIEEtS6QLpXFuCTwhNqkHHRoFamBOMVWASrLcRg4ABmh3uFQ+mO00l+nS19rMB3g1CO6F1VA5t8crR43cRJxYdZQpHRw3Y2WTSUlgXDZQ+mO00kl3iQ0iEPJxUgHD1SskQqUnJhLSbhUC4xlY2JapW1m1BS1E3HFmau0ps6R5Fx88onTIdppHH9p0d7IufdQuNr0yEHN7abJebdTIUeCQAsxFtgstsg2CLKJqMfIx8u1LFSb1gZuDr0HH2onTPaaR/zMYNpjb47NuB99nyoUoUzSdkmpbNZZ+LkYiBscYxi7DYCu5p24R8O7AQRcZROme00j+rAsE3w/AWwuSQ0YdvNNUYtVmwWkHMdFk+DvK5GEUYVuJORzGR8hGhHxklHs6yyIUU4+OZWNkSPk6J0z2mkb1YZ8mzwLC3QViZAGSMo5YPnBZI6UW0l2RYl9YfEIx9mBkwkZhWSydkIxxGtbSzXVSds3rWdkAlJGidM9ppH9YQ3yKiBzRvLbVz1Jquc6iZkT1kPod35kYeEsZ+mAIuxSFQFDIk2EJQ+mO00j+vAlfqOpZxIJNE5h6kRVc7hWXQeO1rJtBAjxwmCMQ+lUl45WMgdgBleFoEnM/GRwMofTHaaRvXi4/wAWmhDnXMI4UcjSvCoTi6y7kcUYf19Rn/XdmVtkk5dMV/HOftlD6Y7TSN67VwmgYjVrKsMDDnSj39gIByZHonbsp0ibxjleA3iWq6irf/lE6ZDtNIw7q0b49Rd9CzThExRLqjm8mLGfF2Mh9sgl5hVtJNJZpH/I5Ypw7QfKoTZVB/jGjdNB2mkj71qPL4FWJQMlbWwJOaow312UWj4a0xKYt2n1F7DsE18lI5NJGXL8NlKbGh4A8O3MlbWZS5R+m+00jB+6rygKtjy6h0rZIEeL1OTIweN5UzdK1TPCbtVDNXMRKl4clLcVGVdfEX9Pk95opNG4dnfFWVpXTnaWaB+OND0+YIqpXLGsT9Ey+DSpfEq9ZG5D0+aVP+i5fG9Wn2hnFYsLvApcvgU6ZIY0LZjkZ0iWWVjWBIxiH+r/xAAqEQACAgEDAgUDBQAAAAAAAAABAgARAxITMSEwFCIyQVEEEHEgIzNQYP/aAAgBAwEBPwH/ABtyzLM1GWZZl9w/2yozcTaabbTbabbTbabbdzGaQRssx5iIjBlueJX4nil+ICGW43qPbHpH3wcGNBzMRpOsbnt4k1Y4+OjFx9YubSpSusJHIm2CuoQCrH4jc9vCwXHZniEPtEcFdXEcAMYFviByo0GK4a6jeo9vCNWOpl04hxzFC6ATMypj88CJt665mynzExj2jcnt4v4jMKrVT6jy0RMS+QXNRP4uZaCGYRQKxuT28TAY+sxOBzMzBqmEjRzNX7lzKfJMJAuNye2PREv3mSz1EW6lNqhupjDX1j+o9tXI6TcM3DNwzcM3TNw/r//EACkRAAIBAgYBAwQDAAAAAAAAAAECAAMREhMhMDFRMgQgIhAzQEE0UIH/2gAIAQIBAT8B9p+hv7BuH3DcP4R/Cwg8zADAqj9TAvUwL1MC9QqNwWtNJpNO5p3NO4bW3Dx/SBS3Ey26mW3UwN1Mtuplt1MtutynYU7mGu7+GggrumrawEMLiGuo0mesBxC8fk7dX+N9fS3alH8paUxoI/kdtQGpYTCtSloRcQLUq6AWEDimuERgrGCkpii0fk7aWFO5masDXF4wEwgy4GkVrm0fyO2v249kE4USoFUXiquHEIF0lMfuP5HbX7cpgcSppYxB8Ze8fRTKemkfk7akLTuZRqq3Bleoq2uZSYFbgzMXHzHIwyk6texj8nbrg5IlKz1Rglb41SXnplJRiJ8QmE8yurZK3/2UbNVXLjcnbVyukFUjgQ1SeRM0zM1vaZzQVMPA9/8A/8QARhAAAQMCAgUIBQkGBQUAAAAAAQACAwQREiEQEzFBcQUUIjJAUWGxUnKBgsEjMzQ1QnOT0eEVYpGSoaMgJDBD8FBTY8Lx/9oACAEBAAY/Av8ATxP2I4De2nAHdLTgN78NOJ5s1HAb27RI5uRBClfK7G7Ft06kyuMV+rpgDJXMaXDIFN4aJXN2hSOkdiOXaJfYpfW0+3TT8WpvDRMpPd7RL7FL6+kcTpp+LUz1Rom9ik93tEyk9bSDuxHTTes1R+qNE3sUnu9onUw/f0jidNN6zVF6o0TKT3e0T8FU+vp8LnTTnxaovVGidP4N7RUcFKBbCXHFpHt89NP7FD6o0TKQDZl2dktNJqnmUNvbcix9bI5h2jJXgqJIvVKcBXEgZ9JoKJdyhL7LIVAqJBMPt3zQLeUJM9xAQYa+QAeiAEDUVMktvSKsyvmAaMs19YPzNtguhrqyZ+/NycIKqaIHbhcp21NTJMxsVwHcezR/ft8jpk4FHQ3S5D10OGip+5+PZm/fN+OmXA0usxzjbuR0NVnCx8dB4Jj7dEyEAocEFUj/AMH/ALdm5s6QxdIOxAXUkvPXuwi9sAClJqZIhGbZC91PKZ31BljdF0gBYHarc/m/kC5kZpQL9cWUZdWTODTcjCM1JW84kgc+2JrWgph10suLgFHI6qmGNuwAZKCg1kjNS8vEthiN9qfKKmV5ZusE+R0ssVrbLFPlilkke9mA4uz1Pqqs9bTbjph/5vVN6midScG+XaKj1VW8dPtOmFU3qaJ+Cfwb2io9VVeIEC+Vxp9p0w4Wl3AXVONhw79E2V1Jlbq9oIvbxRN7+zTrLjbfq6R0rWQbe9t+i17I9LF7P+tOnnPR2ADaSjaiy+8X0D+6voH939F9X/3P0X1cfxP0X1cfxf0X1cfxP0X1e/8AEX1c78RfV7vxF9Xu/EX1efxUBPSOiYftNdismyMdiY4XBG/stGN3S0auCN0j+5qvJLFEe690XQyRS+F7LVytdFJ3OW1b1vW//AVS33Yh/XstH7yZDH1nb+4d61cIwQjryfaeV0Ym8Tms4xxGSLX5tPUfvanwy/OR7fEd+jWzVeqfrGs1d8zcq8RqS2+0yD8l15/xf0Rxia3pCXPyU0MTzIwEZu2jRS8XefZaH3/gqmf7Rwxt8/yTY27GjS5h2FUsw+0TE5YDH8ngvrPFUs/Pb1glbhhvtzUAByc85qQO62LKyqRbqsXKAyve4v3oa3Drc9ipeLvPstD7/wAFO3fHK1/s/wCBXG/SSdypG73Sl3sW3JQNlB/aGvbqj7VFh2B5Qgz1mHHsyVW4+htVVqy5srTe/iiH9GTuVLxd59l5P8XOHksbvo0nycnh4psT3C32H7iNL2NcA0C737gFJK35pgwRg93esDXDWOy4KGB0BfPrA909s2WO5FsNc7V9xpyg7nYw2281JRil5QOrO0MpiE+qpnO1bzdpcLFRlUvF3n2Xk0fvu+CsXAYtgO9alzec03oHa3gh/mJaf91zURrpag+ixtkWH/K0/wD2xmTxU8s0WLo7XC4sqMCmGrdm629VFXqRrcNhbID2KOUhzXDJxDsipIoWO1F7Ydtj3rWWswqHh8FEqbi7z7Lybxd8EC5gdh2HuV1s0WVRDUyhjoxazsslQnnbWxAWeb5NyVVFFWRuktcDvULJKlgc6xLe5B8T9bSsyFht71M2KR8pleHdIdVQ8PgolTcXefZeTeLvgqzWQ84cxl2R4sNzdcnaykdSmYvElOX32DbdVGqmNU9r25g9RpdaykYeS8MZJbHMZXZ+KEMDcb/6DimTM5OZXzukcHXduGS5SdMXRMjijcMJuYSb/wAVSzRskrI8MmIuyxlvgnVbaN3J2pkaHYTfE07du9VpioTSwwNuyrx5k9xVJE2hNQyRmJ9aX9Xgqaoqab9omple1vSsGNBtknQR31berfgqbi7z7Lybxd8FVtlEpbM3DeHaFRCNk74qfESZTd5JCqg6GR2ucwgtHc66nlMtY17ruDHNFghTU8JiD/npQc3/AKKGkn5ywseXYoDZVwigdjkEbYi4Xyb6Sp45GOFQxsnVb0bnYoWcoTySQh/UjyUdO1tdSQsadVDqrMce8qjnLavncMeDmsPzTioaflOCemkp3ukbqRkQ43spJmNsPJU3F3n2Xk33vggMerIN+KJVL903yU/BvkhUMjle3DbC1hREjMD/AEXBUuXfu8SofuvioZ8JdHGc1KIXvqXzOvhcMmJwmYY2PBbjZtCjghZLgFyZXxkfwRa0WFlS8XefZeTfe+CeKKwP23PAIAToIaR8xDTrKoxAD2BNYyqlaxuQAduRkleZHna5yjNFXRMpQwAMbPhXJ7ZZmTVQYRI5rr8FhZPI1vcHEIThwkGy8kuf9VVtqMAc+WMtAcCsrDgmc8+b+zfq4t11DzR+WD5TVkbfaj3ql4u8+y8ne98FVSCq5qYwMybA8U5p5YjeMJOGOUknLSJqyniEQ2RMpgZH/kmmWkFG23QYGW/+6KV8FPrpJXkySAXLbbAi+an1E0UtmPIs54O3RMZYtdqoi9sfpFMp5+SI4o5MsTWuBanDiqXi7z7Lyb73wT9bStqgdziRb+CqHspOYPgF9biOA+BvpNPNU1NoafGXPnLda7wVFVNdNadl9XM7Fg9uiiENTPFPWy2vGbNaNn8VLMyaocaSXVOE7sV/EaJpdfJBHFEXvMXWI7lSRzV1VzisaXMLbYW8U72ql4u8+y8nnuxfBPZydcem87AunWNqQOlqtgT8TSyRnWjKGEEl2QbvJUWvniY8DqSQiQj2rDVOx5WjeBZh8B3LPILBSNjZT54JJx1T3tTIZcE1Mxxe4xbSe8oObsKw0MeulIs9rh0beKdUjmusMeraxv8Atj91OZICyQZYSqbi7z7LQ8HfBUcTctcNY8qzWYXbnKmn+2Xat3ipqt/+0MDPA7ymGVuN7hfgqiPdgxs8CqamdkJJGhxTrj5KLotYFrIxa2RaqiKNvQJxAdyp7ZPqDje9FrRhduddRy2s/Fgcqbi7z7LRcHfBRRA2qYMrd470WhgDvSCZBEcbYtrhvKfFO7DDOLYjsDkIyzFh2FSF/wA9K3Cxngopm9aNwcFzin+Uhl3dxRL7QwNzcbqacCwccuCZAHYaiDqjvarNjs7vTKdpxFpu8+Pcqb3vPsrQwhs8Zuy+w+C6NI/EPtNeEWPZO9vcZv1X0J38wX0J38wWCOOoYzuEo/NFz6OR7jvc4H4r6C/+IRdBTzRE7cDwL/1Q10E0oG50g/NfQXfzBBzaOQEbw4fmsLm1Jb94EGup9S3e+RwsFDSx5tjFr9/+n//EACkQAQACAQIEBgMBAQEAAAAAAAEAESExQVFhcfAQQIGRobEwwdHhIPH/2gAIAQEAAT8h/HbZLhYXOVXfFtaClU+PCj6YeK2oatXDlX1eYQu0DGBgC4GPGyEvPTXxNtC0hxH7TwfqqkfWcVd65f8AN/hWvxb/AE/qGh3/AN+ILrquvfxddliP2/14Zen9zJeX08x33OK+u+3xobvvxzRe9XSK+0x4dtzmxzj6P/R5L6P3Hv7/ALfEW8Ue/i3VU6Ez7THgbC+zL5Hb6eQ0/Bn0j7i6Jffi7qxtXz18cMmbIu628Pp/c9JVPbzHw33MS5s+vi1HB93hc1rTBK/dUufGJdov8P8Ao8izLpfuEOk06lOK8TENb8SuOmfuy/ssTVDrWrCWg6vwwz5ZqawQuC79IOYKTV8S3My7GdcS7JvD22kD5bxg/UX0VkjDB3AfULWVOZ60RblQNmYL9CjXxPWnBCudTSl8OMQ4McKLl1VZ2XUvyrGeRAUY8F7rjF6x37p+j6mMR+xPlvqfWRZ9Ir7+n8L+R0gvu8Q8jhDKQTdrjQGX0mqS8wLRvH6CqwUmI6bRtrPsgUvngQL+yVogIbhv4fgfysr36plZ16xnr0mM0CkBWUrhdDMWlb1GlgdI0OJH8kEKTTu9I9MJMWFWL0JVwaalGamer33CAIg6iaDtse0rL9kYx6JaG8JgEoYFXeK8q6eBuHaqv9eCoJQJnD1lSpQvMg300qbXWiP8UtfzfLxYOv5leCOP/TxHu/uZdN4fFQez48wUZlvUf1moA58dXef3PiDv3oy15RmhCqCk8CpiVGCIFWGCVs/ir8j4MXYmKXUugtKxXxp0HQCX6+INVVWCVKuM38FYWcauNlychXn6lHmlwAaO9kEtZdt5/UU1ez+R4m4IFLLyk8PgSDd9nGb9T+R/wf8AJnMXp/kS0b0/yZceuP5H29kq9FEC0dpwd4eUtBrdc8QbUy4BbF11nMLFv4IagpSUn3liINaV9JmZe8uxdusaDRGAY6zBVsxbnrFI8Irq8DpeHlObb/WC9S6tNxcqg5m0O19QsdAW92PAvJtBx01OTnNbape125QavDjaoMMCyWV4K0K+UlZs4IkhfnjUN5qe6JeC6eeZUHOanaePyoGOlwABmV1y7cIclUPBg12MLKnmHh9y/CFZeCDAJquW32lRQpHAhVV2FyygfJrmABVeyaRE7KW5dpj2OcNPKbTjAdXUHMQY5AWeJ6IFz9E/oZ8rSzM6caMdfmXLiRhcM88O+PGIMdit7jMaUnhLTlKz4EaYXiTvPHDymdaLQcJyAZpePQ595ZQrZto0zL9otHKKHAhwNcyyY3YZZ6n9wUAQqah3lyaMCH6RpzhSCbH974xKXzAwvebqBzfc5bu4BmcoX/J3nj8qPiboJZVSADgbrVx7bdNJlr7ra9rlebcm3vKyNS7qXMhTSklL97j1ZYlGGD0joUgsnWGmLlTl6FzZrVMVqjRDQaqrg/yHvcEp6P6J2Xjh5TTT2OCboZVKrIfSEFWLKwVKq0XFpuugtoksbr0EL1m+y1mJocYEcgrcdnhCYbUOgxaTziKX85qGCVWj0TA6P0TsvHDyi7jeLqSiPIYuNoAo4qkHxiRAAdR1mzZmp4Ll0ILy0HFbE0qWNpEJyjYoZMxHwlsS7kGPRvUAV39DtHAjREquHS3FvAgU760JqJdSBLzu4l1iCJL3AQ1Oy8cPJuk7xxg82N+q29Y20yVaPbMSN2MgXIvek87tlwTeZpnDOXJGLrkrWuNecMy00FjbzNwccykDYnCCg8UBPFA1a4ysJ5DbbdYaCcLhFe0HhOc/Jpwitb9DNKAv2nfeOHk3SC+t9oK5odhDPgreGsHockr2uiL6NCQ4rXSt4uDisQ4yxK5MyIVirHbnju0DU0uEeYXAH726TX5pCyUFrQALoOENEFevWZdjnDybpPkfaHbYVeuwtwtADYKzXtzhMYMNOCVyLs2sAAiwia4JQs6566k71lTG0Oe1xRWxDp2ysiF389q705MCoLNaVcwr9i+j+4GVVmg57aqqWq7obnYeOHk3SfN+0NadbtpdQyzs9VzgXTjMk9GCUAOG3thzgY+tVnFaymoGAoVZ7ysOgwgMDtGhvWo5SpJZXG2Mr05eOjTbEvwKTsPHDybpDfW+0VUXjqRGL6Epz79I6w2nOPmI0xKHDiz/AMhZjwlUdBbMrJzgZ1iirazeMULsV8ciVKySiALZ6y7GvsG6BWZkBbojtPH5Q6S49LH3hpiOQFW13PeXQexcrixRMnM5RM3sBnRBAOsAI9hbM1ZFJnAhorgZV2iWyVfqaw3MGIznjykC9J/UfERuj3kgYtj/AO9MCEUObhrvM/KHTwyAQVB6t5+qIkrRgW75w8AKc2zBlpw6mepUqFKSuLbEeoLTOpf+SxCod1zFKVRiTT6qYr63AjDKKjnWky5Zg1rNHx8xk9WoW+cr8nYDXh9Q13OcPJuksiqy9o9b8DjjDGxIp2IIG2ssXh0/sqEhZwtF5OlypLFWViE/LnCLC9AhZ3ZXJisQArfQeCTeGM0dX9S9zD3UGCHdzX1KzjVoxasuAN/EIHTzb9kNdX7YeTdJYiJt5qpcDLjAPEbjgrhMjGTs/eZGbt4wKSaVh0jPmpaPrGHu/eYUGe5EEjNAoHpB+1+YyFrD06Q2bik1vmXOr5QUNsZxyZqt31fxv//aAAwDAQACAAMAAAAQ08088wuuMTcjM0Q0owsc8ssLbe8oI88QI4ww4E08osTqATsU8AUsoAQE08ogKPCV/wCfEDBBADGFMKE026yilvEIEAAPPPHKBuLBCtHvEAAAAPPBEEOsV8oRGNECGIMPPPPDJPW5BGnsBJIMAPPPPLNd853eSrnHDPPPPPPOBqlS8N/M/PPPPPPPPLBxs2SIR/vPPPPPPPPPBw2tUR/Z/PPPPPPPPOMUSAIqA1/PPPPPPPPPEQRp8rvN/PPPPPPPPPHeFEj6OF/PPPPPPPPPHsuEDCoi/PPPPPPPPPNbPaF/OCPPPPPPPPPPIo4HvwfY/PPPPP/EACkRAAICAQMCBQUBAQAAAAAAAAABESExMEFhkaFAUbHB0RAgcYHw4fH/2gAIAQMBAT8Q+1GcFb/StZC8Csi8Eifoh6rZYYohuOQ5hsyJsTqSbpENkMh+Qk/IhoSc3qofgYjwKWUoh2OM4TjOM49RJonCGkLoQqNRTRW+Ud5pzL8izRKFPy/4PljSIRUp71++TLpzXHyxrJpjsFLGoLNxqUQpFBbrPyR0Yj2GfTc0Sq9RoS26TvBRkP17EENtttf25AhHHyQcpdqveMbDTiXaEd5prayntuR6Ut1+TketVVNqvSYEEE3Lq98yugxuNzuJeS+MevdVYnLfa/WF8nfabJScZUrPkT1XHD9xMNWz9kUVhspSsERdP8+xaqXA50lKXHOYbO+03NfD0JRPnCz3K8/7oUjw7HSvPE/FC27TyJJ1K+f8O+00bWBFEh0EMfPI7CdCPDoIB3Gmvjg40T5SI9kX4Rwoa1SQ225f3f/EACcRAAICAQMCBgMBAAAAAAAAAAABESExEDBBUaFhcYGx0fAgwfGR/9oACAECAQE/EPxoqFMXk6GimXJ5DNq9zAY9Od5ho9OdFuYMyMg50W4kJQeUjCIeGGxQ0EhzAVtK9yKTcE5T7kpU+/wdH7fBMoh3+C39fBJJP33MmjzpycixuNSoEPTnRbi6U1SeuS5xG26TISkfTDqO2xlSnVUxZxDCSPCFIQ7rbkqdf2KEqHEORELg646SOk8DuNvjS5GE3gaLe8jZHOkSBzIqmWIRJHdbb/QZKMfcCuIiW5YrCfYoNwIgHcbaTCJ/oy9Z8fUpuJmCqZnxEIlskdtYKOs7jbdK32yO6P0MRwUUxuyU1OCEoobLB3W2kYP85GbUnh/T6Y7SI8gji1mfvwTrbIopndbbDYpO/IVmtLLFSRTVFEKeBNhH7yIZEQKUxnyO+210MFMhehQofoR0khtgT1gkykNRxLyQ23b/AC//xAApEAEAAgIBAwMEAwEBAQAAAAABABEhMUFRYXEQgZEgQKGxMMHw4fHR/9oACAEBAAE/EP4n8xodtShWjBxCVURhSlLPS86l+SGkWOS6r0WOyrEZFfR5rmXYO7n4jAEgCorRgzGUVRAm9Qb3FVnvLYLzOfprPoln0Vn6nMwV2Aaz0YR1qgQOwAmYbI7e2Vozri/z6sH0aJOzSS5XlvwTV0w/b2gQfKLZoqgbS6Agvj1dQyqcszfaa+qgu4Nn1srEpYLtY7Ro4FUHvF1ByeY0TAq9V/2/ME3GEq6R+l3hLnr/AMUtYKnU43wjBqp0lG8r39XUMel/YXiLKl0rrCKdKYIP5l2kZsc1OK7fMvLLvEVxwtC+W/zES8pjwl041MuLqeMJS5aL20fiLr1delm7JX0rXqb7S/qY/iVbBQJXb3bquKLjMvJFdZgpha3b2KrzFyziIFgsBm6YrX+qRa1K6ov9EoTZ897hn1ZZcN+tenvKx19HU8xwuvbrBs1X0upbN15fZEHa/YS9dJeTtK4sL2s4ae36lgpHWsyihYgOwy9Hb+lLq4qfoPEXQyjQxt9DqEMHT6j1q5VQ3euv0uouNQDooTJfGNRqjEd5ccS5ev7merBDpYyH9wf7jSEuQA0mS0z2isA4PZHKLd/llAvkR77hr1dTU0nPrqXcZV8S8Qz9bqFB6RAb9yuMumsmUleDat3M+kreyDzG01Vaf9ir4+ZlySkFQmD/AAy3u3djhO8TMgCZ7xHlc1KbUcSuF16s5hfpr1tlU/SXz9Lpl0p/wOCiFold/RAysugsYoygQnYop94HHiGXqPCBFOKqDmqJqKS2Jt7Vt1qZ1tLcX3xg123Xcu8i87viBQ5N2Gq93cCkIupNFqU83Cm7rOBJszlzaWrBLoUDBYpqAgAIAGim5WXJ0HwA3Vm/V1NwzrE1MPpzCeforPq7lemkRQssECpzjZDSgxLhDZjrxHYgStPtKFULf7cLDhAPzNheFwPGGjFctS/odupXDiv0Jnfhr4QgWULF4vMQPQX6zqEIwKl5lqxAgfXvJ67Iqwuvaha5MXOoS076Qx4ndn37DLC6NUfxAgqy2ZaKk8w2FtXA7Es94bKWaurLh1RWUXmDRlW4qw8ZPJAFNofJNe3Q/pqIGGNV3fquonIWwwel1MNbg+nP8WkoTZzFuK4No27oGQmFtqXAwWlCrXBEsbSp2ZG2GYml2hJ0HOcQeijuU1RSr53DvYQAAqeBqsdYJAUtS7gWYMmIfzvHtgxfm5WUFplm6EZrvKXxe56KWEHqV7wWsLPVrYWQA9AQRlCzFIQ++Eqo3Aw2dX1YOWocwZxBt8ehDf03moR+gRXiukrGAvvWyVB0rbimuZXEq0m5Nl2t96hfKamZjMXA0WXAQddZgRjwjvcBAbCsu6tQK9XUHrCXDMvD2g0mp4+uvS4tkrOIbzVm/JNAVvZg+UQgK2GvJxa5WfMQuIIXyxzRjvawfuVUsMFuh8yhxFttvnC/V1LqblWS8Tj1f4U3HBKqCCoQC1bOIhj9+dSWZ41NwbSABhJePeiFdpvUumMowA4DCFySItwjpgNZ32IqJVGq54rMX/hWljqZmz1fSu84l9owo3nfM1Hz/EKzC3dHhhoq5Ddw04aeInSUIt2o2vt6B/ybu7Kh0dnObmu8qmKkG2LvnfEAtbNIKW7aniWALJVR8MbsitD3DW77wJv2i1DxKzOvWUsMTbAlSv4ks/gq5RJRKJRKIgyiUQK9KPSpX8wBbWBtPle+ALZU3HSEd6rK4L5hNYIO3UDQDVLcAXbTqdQWafYEX0LiypK6JHbpSPSCFOBnAJnatzL1KY4pUWBxkTWhgCHVuJ4b8xq2T2FYHuM3+0xSttuAR+FjIwGb6ECkRb6HXgHdojJG4h92PzKt7CEZooHwx7LwVnRP+eLiwNhwLM+Aja4Vclht/cfQIpzlVICXfrmOy14iAKB6qX8uSK6TInxHQlWeBSe03+zcEFdgqb8SbbJa8X2gL/6RBS0o69X/ABgGblrYFZT5sipZNAfCQy9yi5IU3+k6JDoTyYVZy6F5FdYoaXfzUdKQ/aAV6LVDrMFD4CVCBRAWr3AAU6R8slwS7fcAIFKUtvcaSCQBQU6ReDUKVqPHC0x3A+X2bpjDmBXXEHf5bpUp82fhzA4GGuU2+Vt95eJpMBoe4mRPDUt47E01bwfhDy0RL/RvFblkQZlRCgW3liODWgCgvKH5jhLrhenDGC/xGG80QaVCxw1slHCgrBu9rS+kyMArAKOVYvcFPPc+169OGS67QEk5UUH9oizAjdRLIsesZIGJehmanUG847a934lwiE4dZGEwuwlyTGja9kM7wxgHFvfEvOyFrfEt8FdagGjhOEllIFtCCqc36ZOY1kRKyhpNU9JbK3yXN4+0EODEbyf9w480CmsV7QO4pBsgSeXA5FaeSFwdrk1ARaBtXEJiEczluitvtEdB4SyiHCW1xhxNxoYYB/p7wWWEIFpbSxpXC2MHopKVRqjuYSXYBuXGt76JBm68Dezj2zHFh1ASoF2CcPe4AuAVaKMio7WuIUuh7P2liNK30oP9wZftdLvNf/esEtWR9ttZ+7BTmhzHKxwN9g1e9EMrw1A+i1rzTMlVC6m2YF1ijAPHMFWUOVgKbKA1Ve832z5wVBQFBx73G6UwhCmjA22N8wuVPiXJXi7DEIPrOpa1diOTT8S7WpTHFXdx0hbJBS6Yk/Dh7/aO+4PzFgS1i0vPX9QybtVxmKfeVD+4eEabQ54+IOGAq+kMmoHwrQtab2/M4efhaKiyqUdblIUlKIRtMnQEMe413AQKWDDxHzKKNDTYBcmFx7QZlop7qL2nRiiMTVCiqckEzpjl7/ZrREOUTiWj+gcGjlDmYPqAwkFpkMXpId9GyMdAU53nTiUUneYBAEKXdPvMzUrQe2YDqw91+4ph0iqx1uMVvEVgGDZg3i9bgJ1TOCNaXgHOLuLEzS9gICpx0xu8LDyiRwVZatHYYalQLFzcliinRWq3mOwW3R1TTpLt5AIedJZhJPNDV9vT3v8AZ7oL1XhuNFnILSkTixwneH1brAwXQy3+pgZcyAVe2q2wg03YsDKlF0aYMxm6baC0JGEPvu93ISFBNGq0TYQNQUVuFySwWZqdWG+jOGGLxiubiexQw0FgG1NqvGWOkWKyNxW7q1cWu8y2Nkl2LLwsNpgq7qA0m4uGu5Qq7C7JT9sdUshi6s8F1mrnQ1xT3+z3RDHdxcbmztCgTDkNmy8S5lVkZcblRxrfl8UfCsoK/wBMqG1RwqAya2xsi24jaVnBrejwwVUbwKYKUF2TCOz/AMU4ldXjT0lsnqxCpb1ZFAMzZpC5FXh79Y2Cprsr410Z5dEoCTRcqnK5YoD3+z3TZ9uJht3EqiXNjVZckv6SG+4wBZfgsLzEDxEDGAdKqcZJQ/BbzgqB2jVtSszeOe1RjuwSK9QxflINpxC2XwAF7hTlaPWyigt563FiCLay6TX6L4h7kUA9yjUzLVzysFj7+xS8QOoGBZ2eya94ElyXLN03+ZqHAT3+z3RUthFBkmV11AIYxV5YZPHIkaqDh7LxDzOHhwzIiFDr+p4X5S0AE2qnxzSsAJ25EOAvRwdRf7C8RnYmnYOSRtKz8Rm5/wDJQ5dN6eGUDfvqpj6RERDqjOuteIK8b9LhqCkrrnHSYYwcnYTMwge/2e6dnxKWgl/xuisr3OMQQzhtQVQsXRllPDjakXOT8SnGLBR3agQd1FNGQpQNL1cqbp+2RyCjf55lnJjC7/Mc+EBGXQ3X+iXMWgT4BWZ7dLIgM3Z8QiljIRVgnB1x3i6CLQi0ZGm39FRyQAUvLSc9/wBw0HSHy+z3Qw148W0WQFsgGFbVoba56DKq2WuIDgoRmvxA1jKLuLNrVOR9pl1cWs1Uvm9YlToNzrUK4rFKaWO1VC1h0avjNvOokAO3FA2wELoAxLDY5dCD7kcEZOrsnbLaUovPZdQy6EraOEdkIn0FnkUVpuynviV2C5SqXNoeRVd9iNZXWaKw+esqN29WGz9nuiaiqcPXMVDFCYqn2AcEHZWogDGTk6wJxiY0C9XP4Okff/eRml4Ad5ZYnUtAWUuCnfMcim9kqU9RRfIywu7RqgWuLy+YkgZ6rYGqwoUbczDpC3SLBuvGkY+U6QyZXbNV0CPCquCy/AFRq0z4yNNKLSdcQB2VExFy5qx4qUWBq/Z7olTj98EFuix1V4Cq4odNx5/kFpm0HmjdxTYYqEItIAL5WkcpZ5vNxwCrhZeLhWwdK425srklNVrcgwdjHLtStMEoKsLSa94SeuEJdLnIjvCWR+YCQpp/QMrguDYrNcqXvRfvLofzlZQHYAzVPWB3HdwLyUjrlM2IUWNgVel1xBMGc/mOr9numY/xgBTDQ0I8Id4YuKK0aCfxA53SJ7m3vKU+6aZzw51xycp6rH2ae0UENvvqpLGgEKANrKJ2FH3IiJLVHUwX3qCN9SMbDnb9UWHxL7YuNORS78wO7AqB3BOwZ6kKi2vVpX6KLXFzZ/i//9k=;rotation=90;aspect=fixed;clipPath=inset(0% 25.63% 0% 23.84%);" parent="1" vertex="1">
          <mxGeometry x="-165.6" y="-855" width="89.13" height="177" as="geometry" />
        </mxCell>
        <mxCell id="kS7yauVVDzb5seXYYpU2-24" value="&lt;div style=&quot;text-align: center;&quot;&gt;&lt;span style=&quot;font-size: 30px;&quot;&gt;&lt;b&gt;Датчик&lt;/b&gt;&lt;/span&gt;&lt;/div&gt;" style="text;html=1;whiteSpace=wrap;labelBackgroundColor=none;fontColor=#000000;" parent="1" vertex="1">
          <mxGeometry x="-185.03" y="-925" width="128" height="43" as="geometry" />
        </mxCell>
        <mxCell id="kS7yauVVDzb5seXYYpU2-25" value="&lt;div style=&quot;text-align: center;&quot;&gt;&lt;span style=&quot;font-size: 30px;&quot;&gt;&lt;b&gt;Что измеряет&lt;/b&gt;&lt;/span&gt;&lt;/div&gt;" style="text;html=1;whiteSpace=wrap;labelBackgroundColor=none;fontColor=#000000;" parent="1" vertex="1">
          <mxGeometry x="28" y="-948" width="140" height="78" as="geometry" />
        </mxCell>
        <mxCell id="kS7yauVVDzb5seXYYpU2-26" value="&lt;div style=&quot;text-align: center;&quot;&gt;&lt;span style=&quot;font-size: 30px;&quot;&gt;&lt;b&gt;Единица&lt;/b&gt;&lt;/span&gt;&lt;/div&gt;&lt;div style=&quot;text-align: center;&quot;&gt;&lt;span style=&quot;font-size: 30px;&quot;&gt;&lt;b&gt;измерения&lt;/b&gt;&lt;/span&gt;&lt;/div&gt;" style="text;html=1;whiteSpace=wrap;labelBackgroundColor=none;fontColor=#000000;" parent="1" vertex="1">
          <mxGeometry x="256.5" y="-955" width="170" height="85" as="geometry" />
        </mxCell>
        <mxCell id="kS7yauVVDzb5seXYYpU2-28" value="&lt;div style=&quot;text-align: center;&quot;&gt;&lt;span style=&quot;font-size: 30px;&quot;&gt;&lt;b&gt;Диапа&lt;/b&gt;&lt;/span&gt;&lt;b style=&quot;font-size: 30px; background-color: initial;&quot;&gt;зон&lt;/b&gt;&lt;/div&gt;" style="text;html=1;whiteSpace=wrap;labelBackgroundColor=none;fontColor=#000000;" parent="1" vertex="1">
          <mxGeometry x="509.5" y="-936.5" width="151" height="48" as="geometry" />
        </mxCell>
        <mxCell id="kS7yauVVDzb5seXYYpU2-29" value="&lt;div style=&quot;text-align: center;&quot;&gt;&lt;span style=&quot;font-size: 30px;&quot;&gt;&lt;b&gt;Точность&lt;/b&gt;&lt;/span&gt;&lt;/div&gt;" style="text;html=1;whiteSpace=wrap;labelBackgroundColor=none;fontColor=#000000;" parent="1" vertex="1">
          <mxGeometry x="772" y="-934" width="144" height="50" as="geometry" />
        </mxCell>
        <mxCell id="kS7yauVVDzb5seXYYpU2-30" value="&lt;div style=&quot;text-align: center;&quot;&gt;&lt;span style=&quot;font-size: 30px;&quot;&gt;&lt;b&gt;Частота&lt;/b&gt;&lt;/span&gt;&lt;/div&gt;" style="text;html=1;whiteSpace=wrap;labelBackgroundColor=none;fontColor=#000000;" parent="1" vertex="1">
          <mxGeometry x="1056" y="-932" width="130" height="50" as="geometry" />
        </mxCell>
        <mxCell id="kS7yauVVDzb5seXYYpU2-31" value="&lt;div style=&quot;text-align: center;&quot;&gt;&lt;span style=&quot;font-size: 30px;&quot;&gt;&lt;b&gt;Частота&lt;/b&gt;&lt;/span&gt;&lt;/div&gt;&lt;div style=&quot;text-align: center;&quot;&gt;&lt;span style=&quot;font-size: 30px;&quot;&gt;&lt;b&gt;max&lt;/b&gt;&lt;/span&gt;&lt;/div&gt;" style="text;html=1;whiteSpace=wrap;labelBackgroundColor=none;fontColor=#000000;" parent="1" vertex="1">
          <mxGeometry x="1293.5" y="-959" width="130" height="75" as="geometry" />
        </mxCell>
        <mxCell id="kS7yauVVDzb5seXYYpU2-44" value="&lt;div style=&quot;text-align: center;&quot;&gt;&lt;span style=&quot;font-size: 30px;&quot;&gt;&lt;b&gt;Давление,&lt;/b&gt;&lt;/span&gt;&lt;/div&gt;&lt;div style=&quot;text-align: center;&quot;&gt;&lt;span style=&quot;font-size: 30px;&quot;&gt;&lt;b&gt;температура&lt;/b&gt;&lt;/span&gt;&lt;/div&gt;" style="text;html=1;whiteSpace=wrap;labelBackgroundColor=none;fontColor=#000000;" parent="1" vertex="1">
          <mxGeometry x="3" y="-773" width="190" height="78" as="geometry" />
        </mxCell>
        <mxCell id="kS7yauVVDzb5seXYYpU2-45" value="&lt;div style=&quot;text-align: center;&quot;&gt;&lt;span style=&quot;font-size: 30px;&quot;&gt;&lt;b&gt;Координаты&lt;br&gt;GPS&lt;/b&gt;&lt;/span&gt;&lt;/div&gt;" style="text;html=1;whiteSpace=wrap;labelBackgroundColor=none;fontColor=#000000;" parent="1" vertex="1">
          <mxGeometry y="-533" width="190" height="78" as="geometry" />
        </mxCell>
        <mxCell id="kS7yauVVDzb5seXYYpU2-46" value="&lt;div style=&quot;text-align: center;&quot;&gt;&lt;span style=&quot;font-size: 30px;&quot;&gt;&lt;b&gt;Концентра-ция&amp;nbsp;&lt;/b&gt;&lt;/span&gt;&lt;b style=&quot;font-size: 30px; background-color: initial;&quot;&gt;метана&lt;/b&gt;&lt;/div&gt;" style="text;html=1;whiteSpace=wrap;labelBackgroundColor=none;fontColor=#000000;" parent="1" vertex="1">
          <mxGeometry x="-11.5" y="-287.5" width="213" height="78" as="geometry" />
        </mxCell>
        <mxCell id="kS7yauVVDzb5seXYYpU2-47" value="&lt;div style=&quot;text-align: center;&quot;&gt;&lt;span style=&quot;font-size: 30px;&quot;&gt;&lt;b&gt;Углекислый&lt;/b&gt;&lt;/span&gt;&lt;/div&gt;&lt;div style=&quot;text-align: center;&quot;&gt;&lt;span style=&quot;font-size: 30px;&quot;&gt;&lt;b&gt;газ, темпе-&lt;/b&gt;&lt;/span&gt;&lt;/div&gt;&lt;div style=&quot;text-align: center;&quot;&gt;&lt;span style=&quot;font-size: 30px;&quot;&gt;&lt;b&gt;ратура,&lt;br&gt;влажность&lt;/b&gt;&lt;/span&gt;&lt;/div&gt;" style="text;html=1;whiteSpace=wrap;labelBackgroundColor=none;fontColor=#000000;" parent="1" vertex="1">
          <mxGeometry y="-77" width="182" height="151" as="geometry" />
        </mxCell>
        <mxCell id="kS7yauVVDzb5seXYYpU2-48" value="&lt;div style=&quot;text-align: center;&quot;&gt;&lt;span style=&quot;font-size: 30px;&quot;&gt;&lt;b&gt;Температура&lt;/b&gt;&lt;/span&gt;&lt;/div&gt;" style="text;html=1;whiteSpace=wrap;labelBackgroundColor=none;fontColor=#000000;" parent="1" vertex="1">
          <mxGeometry x="-13" y="223.5" width="195" height="42" as="geometry" />
        </mxCell>
        <mxCell id="kS7yauVVDzb5seXYYpU2-49" value="&lt;div style=&quot;text-align: center;&quot;&gt;&lt;span style=&quot;font-size: 30px;&quot;&gt;&lt;b&gt;Магнитное&lt;/b&gt;&lt;/span&gt;&lt;/div&gt;&lt;div style=&quot;text-align: center;&quot;&gt;&lt;span style=&quot;font-size: 30px;&quot;&gt;&lt;b&gt;поле&lt;/b&gt;&lt;/span&gt;&lt;/div&gt;" style="text;html=1;whiteSpace=wrap;labelBackgroundColor=none;fontColor=#000000;" parent="1" vertex="1">
          <mxGeometry x="10" y="451" width="162" height="77" as="geometry" />
        </mxCell>
        <mxCell id="kS7yauVVDzb5seXYYpU2-50" value="&lt;div style=&quot;text-align: center;&quot;&gt;&lt;span style=&quot;font-size: 30px;&quot;&gt;&lt;b&gt;Концентра-&lt;/b&gt;&lt;/span&gt;&lt;/div&gt;&lt;div style=&quot;text-align: center;&quot;&gt;&lt;span style=&quot;font-size: 30px;&quot;&gt;&lt;b&gt;ция кислорода&lt;/b&gt;&lt;/span&gt;&lt;/div&gt;" style="text;html=1;whiteSpace=wrap;labelBackgroundColor=none;fontColor=#000000;" parent="1" vertex="1">
          <mxGeometry x="9.5" y="678" width="172.5" height="115" as="geometry" />
        </mxCell>
        <mxCell id="kS7yauVVDzb5seXYYpU2-51" value="&lt;div style=&quot;text-align: center;&quot;&gt;&lt;span style=&quot;font-size: 30px;&quot;&gt;&lt;b&gt;Ускорение,&lt;/b&gt;&lt;/span&gt;&lt;/div&gt;&lt;div style=&quot;text-align: center;&quot;&gt;&lt;span style=&quot;font-size: 30px;&quot;&gt;&lt;b&gt;гироскоп&lt;/b&gt;&lt;/span&gt;&lt;/div&gt;" style="text;html=1;whiteSpace=wrap;labelBackgroundColor=none;fontColor=#000000;" parent="1" vertex="1">
          <mxGeometry x="10" y="925" width="172.5" height="115" as="geometry" />
        </mxCell>
        <mxCell id="kS7yauVVDzb5seXYYpU2-52" value="&lt;div style=&quot;text-align: center;&quot;&gt;&lt;span style=&quot;font-size: 30px;&quot;&gt;&lt;b&gt;g(ускоре-ние), граду-&lt;/b&gt;&lt;/span&gt;&lt;/div&gt;&lt;div style=&quot;text-align: center;&quot;&gt;&lt;span style=&quot;font-size: 30px;&quot;&gt;&lt;b&gt;сы в секунду&lt;/b&gt;&lt;/span&gt;&lt;/div&gt;&lt;div style=&quot;text-align: center;&quot;&gt;&lt;span style=&quot;font-size: 30px;&quot;&gt;&lt;b&gt;&lt;br&gt;&lt;/b&gt;&lt;/span&gt;&lt;/div&gt;" style="text;html=1;whiteSpace=wrap;labelBackgroundColor=none;fontColor=#000000;" parent="1" vertex="1">
          <mxGeometry x="213" y="896.5" width="197" height="115" as="geometry" />
        </mxCell>
        <mxCell id="kS7yauVVDzb5seXYYpU2-53" value="&lt;div style=&quot;text-align: center;&quot;&gt;&lt;span style=&quot;font-size: 30px;&quot;&gt;&lt;b&gt;проценты&lt;/b&gt;&lt;/span&gt;&lt;/div&gt;" style="text;html=1;whiteSpace=wrap;labelBackgroundColor=none;fontColor=#000000;" parent="1" vertex="1">
          <mxGeometry x="242" y="714.5" width="157" height="42" as="geometry" />
        </mxCell>
        <mxCell id="kS7yauVVDzb5seXYYpU2-54" value="&lt;div style=&quot;text-align: center;&quot;&gt;&lt;span style=&quot;font-size: 30px;&quot;&gt;&lt;b&gt;гауссы&lt;/b&gt;&lt;/span&gt;&lt;/div&gt;" style="text;html=1;whiteSpace=wrap;labelBackgroundColor=none;fontColor=#000000;" parent="1" vertex="1">
          <mxGeometry x="260" y="464" width="116.5" height="51" as="geometry" />
        </mxCell>
        <mxCell id="kS7yauVVDzb5seXYYpU2-55" value="&lt;div style=&quot;text-align: center;&quot;&gt;&lt;span style=&quot;font-size: 30px;&quot;&gt;&lt;b&gt;градусы&lt;/b&gt;&lt;/span&gt;&lt;/div&gt;&lt;div style=&quot;text-align: center;&quot;&gt;&lt;span style=&quot;font-size: 30px;&quot;&gt;&lt;b&gt;Цельсия&lt;/b&gt;&lt;/span&gt;&lt;/div&gt;" style="text;html=1;whiteSpace=wrap;labelBackgroundColor=none;fontColor=#000000;" parent="1" vertex="1">
          <mxGeometry x="251.5" y="204" width="133.5" height="81" as="geometry" />
        </mxCell>
        <mxCell id="kS7yauVVDzb5seXYYpU2-56" value="&lt;div style=&quot;text-align: center;&quot;&gt;&lt;span style=&quot;font-size: 30px;&quot;&gt;&lt;b&gt;ppm, граду-&lt;/b&gt;&lt;/span&gt;&lt;/div&gt;&lt;div style=&quot;text-align: center;&quot;&gt;&lt;span style=&quot;font-size: 30px;&quot;&gt;&lt;b&gt;сы Цельсия, процент относи-тельной влажности&lt;/b&gt;&lt;/span&gt;&lt;/div&gt;" style="text;html=1;whiteSpace=wrap;labelBackgroundColor=none;fontColor=#000000;" parent="1" vertex="1">
          <mxGeometry x="206.5" y="-120" width="223.5" height="240" as="geometry" />
        </mxCell>
        <mxCell id="kS7yauVVDzb5seXYYpU2-57" value="&lt;div style=&quot;text-align: center;&quot;&gt;&lt;span style=&quot;font-size: 30px;&quot;&gt;&lt;b&gt;частей на&amp;nbsp;&lt;/b&gt;&lt;/span&gt;&lt;/div&gt;&lt;div style=&quot;text-align: center;&quot;&gt;&lt;span style=&quot;font-size: 30px;&quot;&gt;&lt;b&gt;миллион,&lt;/b&gt;&lt;/span&gt;&lt;/div&gt;&lt;div style=&quot;text-align: center;&quot;&gt;&lt;span style=&quot;font-size: 30px;&quot;&gt;&lt;b&gt;(ppm)&lt;/b&gt;&lt;/span&gt;&lt;/div&gt;" style="text;html=1;whiteSpace=wrap;labelBackgroundColor=none;fontColor=#000000;" parent="1" vertex="1">
          <mxGeometry x="242" y="-321" width="152.5" height="156" as="geometry" />
        </mxCell>
        <mxCell id="kS7yauVVDzb5seXYYpU2-58" value="&lt;div style=&quot;text-align: center;&quot;&gt;&lt;span style=&quot;font-size: 30px;&quot;&gt;&lt;b&gt;градусы,&lt;/b&gt;&lt;/span&gt;&lt;/div&gt;&lt;div style=&quot;text-align: center;&quot;&gt;&lt;span style=&quot;font-size: 30px;&quot;&gt;&lt;b&gt;метры&lt;/b&gt;&lt;/span&gt;&lt;/div&gt;" style="text;html=1;whiteSpace=wrap;labelBackgroundColor=none;fontColor=#000000;" parent="1" vertex="1">
          <mxGeometry x="255.21" y="-533" width="137" height="78" as="geometry" />
        </mxCell>
        <mxCell id="kS7yauVVDzb5seXYYpU2-59" value="&lt;div style=&quot;text-align: center;&quot;&gt;&lt;span style=&quot;font-size: 30px;&quot;&gt;&lt;b&gt;гектопаска-&lt;/b&gt;&lt;/span&gt;&lt;/div&gt;&lt;div style=&quot;text-align: center;&quot;&gt;&lt;span style=&quot;font-size: 30px;&quot;&gt;&lt;b&gt;ли, градусы&lt;/b&gt;&lt;/span&gt;&lt;/div&gt;&lt;div style=&quot;text-align: center;&quot;&gt;&lt;span style=&quot;font-size: 30px;&quot;&gt;&lt;b&gt;Цельсия&lt;/b&gt;&lt;/span&gt;&lt;/div&gt;" style="text;html=1;whiteSpace=wrap;labelBackgroundColor=none;fontColor=#000000;" parent="1" vertex="1">
          <mxGeometry x="245" y="-786" width="193" height="114" as="geometry" />
        </mxCell>
        <mxCell id="kS7yauVVDzb5seXYYpU2-63" value="&lt;div style=&quot;text-align: center;&quot;&gt;&lt;span&gt;&lt;b&gt;-&lt;/b&gt;&lt;/span&gt;&lt;/div&gt;" style="text;html=1;whiteSpace=wrap;labelBackgroundColor=none;fontColor=#000000;fontSize=100;" parent="1" vertex="1">
          <mxGeometry x="1315" y="-326" width="51.54" height="91" as="geometry" />
        </mxCell>
        <mxCell id="kS7yauVVDzb5seXYYpU2-65" value="&lt;div style=&quot;text-align: center;&quot;&gt;&lt;span style=&quot;font-size: 30px;&quot;&gt;&lt;b&gt;6.66 килогерц&lt;/b&gt;&lt;/span&gt;&lt;/div&gt;" style="text;html=1;whiteSpace=wrap;labelBackgroundColor=none;fontColor=#000000;" parent="1" vertex="1">
          <mxGeometry x="1262.27" y="935.25" width="157" height="94.5" as="geometry" />
        </mxCell>
        <mxCell id="kS7yauVVDzb5seXYYpU2-66" value="&lt;div style=&quot;text-align: center;&quot;&gt;&lt;span style=&quot;font-size: 30px;&quot;&gt;&lt;b&gt;1000 Герц&lt;/b&gt;&lt;/span&gt;&lt;/div&gt;" style="text;html=1;whiteSpace=wrap;labelBackgroundColor=none;fontColor=#000000;" parent="1" vertex="1">
          <mxGeometry x="1258.27" y="468.5" width="157" height="42" as="geometry" />
        </mxCell>
        <mxCell id="kS7yauVVDzb5seXYYpU2-67" value="&lt;div style=&quot;text-align: center;&quot;&gt;&lt;span style=&quot;font-size: 30px;&quot;&gt;&lt;b&gt;10 Герц&lt;/b&gt;&lt;/span&gt;&lt;/div&gt;" style="text;html=1;whiteSpace=wrap;labelBackgroundColor=none;fontColor=#000000;" parent="1" vertex="1">
          <mxGeometry x="1277" y="-505" width="157" height="42" as="geometry" />
        </mxCell>
        <mxCell id="kS7yauVVDzb5seXYYpU2-68" value="&lt;div style=&quot;text-align: center;&quot;&gt;&lt;span style=&quot;font-size: 30px;&quot;&gt;&lt;b&gt;3,33 Герца&lt;/b&gt;&lt;/span&gt;&lt;/div&gt;" style="text;html=1;whiteSpace=wrap;labelBackgroundColor=none;fontColor=#000000;" parent="1" vertex="1">
          <mxGeometry x="1280" y="-747" width="157" height="42" as="geometry" />
        </mxCell>
        <mxCell id="kS7yauVVDzb5seXYYpU2-72" value="&lt;span style=&quot;&quot;&gt;&lt;font style=&quot;font-size: 30px;&quot;&gt;&lt;b&gt;300-1100 гектопаскали, от -40 до +85 °C&lt;/b&gt;&lt;/font&gt;&lt;/span&gt;" style="text;whiteSpace=wrap;html=1;fontColor=#000000;fontStyle=0" parent="1" vertex="1">
          <mxGeometry x="480" y="-788.4" width="242" height="108.81" as="geometry" />
        </mxCell>
        <mxCell id="kS7yauVVDzb5seXYYpU2-73" value="&lt;b style=&quot;font-size: 30px;&quot;&gt;±1 гектопаскаль, ±1 °C&lt;/b&gt;" style="text;whiteSpace=wrap;html=1;fontColor=#000000;" parent="1" vertex="1">
          <mxGeometry x="787" y="-785.9999999999999" width="215.24" height="122.14" as="geometry" />
        </mxCell>
        <mxCell id="kS7yauVVDzb5seXYYpU2-75" value="&lt;span style=&quot;font-size: 30px;&quot;&gt;&lt;b&gt;до 1 Герца&lt;/b&gt;&lt;/span&gt;" style="text;whiteSpace=wrap;html=1;fontColor=#000000;" parent="1" vertex="1">
          <mxGeometry x="1041" y="-747" width="166" height="53" as="geometry" />
        </mxCell>
        <mxCell id="kS7yauVVDzb5seXYYpU2-79" value="&lt;div style=&quot;text-align: center;&quot;&gt;&lt;span&gt;&lt;b&gt;-&lt;/b&gt;&lt;/span&gt;&lt;/div&gt;" style="text;html=1;whiteSpace=wrap;labelBackgroundColor=none;fontColor=#000000;fontSize=100;" parent="1" vertex="1">
          <mxGeometry x="1311" y="-73" width="51.54" height="91" as="geometry" />
        </mxCell>
        <mxCell id="kS7yauVVDzb5seXYYpU2-82" value="&lt;div style=&quot;text-align: center;&quot;&gt;&lt;span&gt;&lt;b&gt;-&lt;/b&gt;&lt;/span&gt;&lt;/div&gt;" style="text;html=1;whiteSpace=wrap;labelBackgroundColor=none;fontColor=#000000;fontSize=100;" parent="1" vertex="1">
          <mxGeometry x="1311" y="161" width="51.54" height="91" as="geometry" />
        </mxCell>
        <mxCell id="kS7yauVVDzb5seXYYpU2-85" value="&lt;div style=&quot;text-align: center;&quot;&gt;&lt;span&gt;&lt;b&gt;-&lt;/b&gt;&lt;/span&gt;&lt;/div&gt;" style="text;html=1;whiteSpace=wrap;labelBackgroundColor=none;fontColor=#000000;fontSize=100;" parent="1" vertex="1">
          <mxGeometry x="1320" y="660" width="51.54" height="91" as="geometry" />
        </mxCell>
        <mxCell id="kS7yauVVDzb5seXYYpU2-88" value="&lt;span style=&quot;font-size: 30px;&quot;&gt;&lt;b&gt;1 Герц&lt;/b&gt;&lt;/span&gt;" style="text;whiteSpace=wrap;html=1;fontColor=#000000;" parent="1" vertex="1">
          <mxGeometry x="1073" y="-510.5" width="107" height="53" as="geometry" />
        </mxCell>
        <mxCell id="kS7yauVVDzb5seXYYpU2-89" value="&lt;span style=&quot;font-size: 30px;&quot;&gt;&lt;b&gt;Постоянная&lt;/b&gt;&lt;/span&gt;" style="text;whiteSpace=wrap;html=1;fontColor=#000000;" parent="1" vertex="1">
          <mxGeometry x="1050" y="-269.5" width="185" height="53" as="geometry" />
        </mxCell>
        <mxCell id="kS7yauVVDzb5seXYYpU2-90" value="&lt;span style=&quot;font-size: 30px;&quot;&gt;&lt;b&gt;до 1 Герца&lt;/b&gt;&lt;/span&gt;" style="text;whiteSpace=wrap;html=1;fontColor=#000000;" parent="1" vertex="1">
          <mxGeometry x="1069" y="-26.5" width="166" height="53" as="geometry" />
        </mxCell>
        <mxCell id="kS7yauVVDzb5seXYYpU2-91" value="&lt;span style=&quot;font-size: 30px;&quot;&gt;&lt;b&gt;до 1 Герца&lt;/b&gt;&lt;/span&gt;" style="text;whiteSpace=wrap;html=1;fontColor=#000000;" parent="1" vertex="1">
          <mxGeometry x="1073" y="212.5" width="166" height="53" as="geometry" />
        </mxCell>
        <mxCell id="kS7yauVVDzb5seXYYpU2-92" value="&lt;span style=&quot;font-size: 30px;&quot;&gt;&lt;b&gt;Постоянная&lt;/b&gt;&lt;/span&gt;" style="text;whiteSpace=wrap;html=1;fontColor=#000000;" parent="1" vertex="1">
          <mxGeometry x="1050.75" y="707.71" width="185" height="53" as="geometry" />
        </mxCell>
        <mxCell id="kS7yauVVDzb5seXYYpU2-93" value="&lt;span style=&quot;font-size: 30px;&quot;&gt;&lt;b&gt;до 1.6&lt;/b&gt;&lt;/span&gt;&lt;div&gt;&lt;span style=&quot;font-size: 30px;&quot;&gt;&lt;b&gt;килогерца&lt;/b&gt;&lt;/span&gt;&lt;/div&gt;" style="text;whiteSpace=wrap;html=1;fontColor=#000000;" parent="1" vertex="1">
          <mxGeometry x="1063.5" y="946.75" width="185" height="83" as="geometry" />
        </mxCell>
        <mxCell id="kS7yauVVDzb5seXYYpU2-94" value="&lt;span style=&quot;font-size: 30px;&quot;&gt;&lt;b&gt;100 Герц&lt;/b&gt;&lt;/span&gt;" style="text;whiteSpace=wrap;html=1;fontColor=#000000;" parent="1" vertex="1">
          <mxGeometry x="1073" y="468.5" width="140.5" height="53" as="geometry" />
        </mxCell>
        <mxCell id="kS7yauVVDzb5seXYYpU2-95" value="&lt;font style=&quot;font-size: 30px;&quot;&gt;&lt;b&gt;~2-3 метра&lt;/b&gt;&lt;/font&gt;" style="text;whiteSpace=wrap;html=1;fontColor=#000000;" parent="1" vertex="1">
          <mxGeometry x="792.76" y="-509.5" width="167" height="51" as="geometry" />
        </mxCell>
        <mxCell id="kS7yauVVDzb5seXYYpU2-96" value="&lt;font style=&quot;font-size: 30px;&quot;&gt;&lt;b&gt;±5%&lt;/b&gt;&lt;/font&gt;" style="text;whiteSpace=wrap;html=1;fontColor=#000000;" parent="1" vertex="1">
          <mxGeometry x="851" y="-272.06999999999994" width="65" height="55.57" as="geometry" />
        </mxCell>
        <mxCell id="kS7yauVVDzb5seXYYpU2-97" value="&lt;b&gt;&lt;font style=&quot;font-size: 30px;&quot;&gt;±(30 ppm + 3%), ±0.8 °C, ±5% RH&lt;/font&gt;&lt;/b&gt;" style="text;whiteSpace=wrap;html=1;fontColor=#000000;" parent="1" vertex="1">
          <mxGeometry x="792.76" y="-62.569999999999936" width="215.24" height="122.14" as="geometry" />
        </mxCell>
        <mxCell id="kS7yauVVDzb5seXYYpU2-98" value="&lt;font style=&quot;font-size: 30px;&quot;&gt;&lt;b&gt;±0.5 °C&lt;/b&gt;&lt;/font&gt;" style="text;whiteSpace=wrap;html=1;fontColor=#000000;" parent="1" vertex="1">
          <mxGeometry x="834" y="219" width="111" height="51" as="geometry" />
        </mxCell>
        <mxCell id="kS7yauVVDzb5seXYYpU2-99" value="&lt;b&gt;&lt;font style=&quot;font-size: 30px;&quot;&gt;±4-12 микротесла&lt;/font&gt;&lt;/b&gt;" style="text;whiteSpace=wrap;html=1;fontColor=#000000;" parent="1" vertex="1">
          <mxGeometry x="811" y="440.93" width="179" height="97.14" as="geometry" />
        </mxCell>
        <mxCell id="kS7yauVVDzb5seXYYpU2-101" value="&lt;b&gt;&lt;font style=&quot;font-size: 30px;&quot;&gt;±0.01g, ±4 °/с&lt;/font&gt;&lt;/b&gt;" style="text;whiteSpace=wrap;html=1;fontColor=#000000;" parent="1" vertex="1">
          <mxGeometry x="796.5" y="961.9699999999999" width="208" height="52.57" as="geometry" />
        </mxCell>
        <mxCell id="kS7yauVVDzb5seXYYpU2-102" value="&lt;b&gt;&lt;font style=&quot;font-size: 30px;&quot;&gt;Всемирное покрытие&lt;/font&gt;&lt;/b&gt;" style="text;whiteSpace=wrap;html=1;fontColor=#000000;fontStyle=0" parent="1" vertex="1">
          <mxGeometry x="498" y="-538.0500000000001" width="174" height="88.11" as="geometry" />
        </mxCell>
        <mxCell id="kS7yauVVDzb5seXYYpU2-103" value="&lt;b&gt;&lt;font style=&quot;font-size: 30px;&quot;&gt;200-10000 ppm&lt;/font&gt;&lt;/b&gt;" style="text;whiteSpace=wrap;html=1;fontColor=#000000;fontStyle=0" parent="1" vertex="1">
          <mxGeometry x="494.5" y="-279" width="227" height="49.9" as="geometry" />
        </mxCell>
        <mxCell id="kS7yauVVDzb5seXYYpU2-104" value="&lt;b&gt;&lt;font style=&quot;font-size: 30px;&quot;&gt;400-5000 ppm, от -10 до +60 °C, 0-100% RH&lt;/font&gt;&lt;/b&gt;" style="text;whiteSpace=wrap;html=1;fontColor=#000000;fontStyle=0" parent="1" vertex="1">
          <mxGeometry x="490" y="-60.81999999999998" width="242" height="108.81" as="geometry" />
        </mxCell>
        <mxCell id="kS7yauVVDzb5seXYYpU2-105" value="&lt;b&gt;&lt;font style=&quot;font-size: 30px;&quot;&gt;от -55 до +125 °C&lt;/font&gt;&lt;/b&gt;" style="text;whiteSpace=wrap;html=1;fontColor=#000000;fontStyle=0" parent="1" vertex="1">
          <mxGeometry x="491.5" y="194.1" width="219" height="90.9" as="geometry" />
        </mxCell>
        <mxCell id="kS7yauVVDzb5seXYYpU2-106" value="&lt;b&gt;&lt;font style=&quot;font-size: 30px;&quot;&gt;±4/±8/±12/±16 гаусс&lt;/font&gt;&lt;/b&gt;" style="text;whiteSpace=wrap;html=1;fontColor=#000000;fontStyle=0" parent="1" vertex="1">
          <mxGeometry x="506.5" y="445" width="203" height="97" as="geometry" />
        </mxCell>
        <mxCell id="kS7yauVVDzb5seXYYpU2-107" value="&lt;b&gt;&lt;font style=&quot;font-size: 30px;&quot;&gt;0-25%&lt;/font&gt;&lt;/b&gt;" style="text;whiteSpace=wrap;html=1;fontColor=#000000;fontStyle=0" parent="1" vertex="1">
          <mxGeometry x="542.5" y="711.6" width="105" height="65.4" as="geometry" />
        </mxCell>
        <mxCell id="kS7yauVVDzb5seXYYpU2-108" value="&lt;b&gt;&lt;font style=&quot;font-size: 30px;&quot;&gt;±2/±4/±8/±16g, ±125/±250/±500/±1000/±2000 °/с&lt;/font&gt;&lt;/b&gt;" style="text;whiteSpace=wrap;html=1;fontColor=#000000;fontStyle=0" parent="1" vertex="1">
          <mxGeometry x="484" y="920.94" width="242" height="108.81" as="geometry" />
        </mxCell>
        <mxCell id="kS7yauVVDzb5seXYYpU2-110" value="&lt;font style=&quot;font-size: 30px;&quot;&gt;&lt;b&gt;±0.1%&lt;/b&gt;&lt;/font&gt;" style="text;whiteSpace=wrap;html=1;fontColor=#000000;" parent="1" vertex="1">
          <mxGeometry x="851" y="707.71" width="65" height="55.57" as="geometry" />
        </mxCell>
      </root>
    </mxGraphModel>
  </diagram>
</mxfile>
